<svg width="400" height="400" viewBox="0 0 400 400" fill="none" xmlns="http://www.w3.org/2000/svg">
<path fill-rule="evenodd" clip-rule="evenodd" d="M193 10H10V38H193V10ZM390 63H10V65H390V63ZM10 299H390V301H10V299ZM152 103H25V125H152V103ZM387.99 92H12.0101V136H387.99V92ZM10 90V138H390V90H10ZM358 128C365.732 128 372 121.732 372 114C372 106.268 365.732 100 358 100C350.268 100 344 106.268 344 114C344 121.732 350.268 128 358 128ZM25 171H152V193H25V171ZM12.0101 160H387.99V204H12.0101V160ZM10 206V158H390V206H10ZM372 182C372 189.732 365.732 196 358 196C350.268 196 344 189.732 344 182C344 174.268 350.268 168 358 168C365.732 168 372 174.268 372 182ZM152 239H25V261H152V239ZM387.99 228H12.0101V272H387.99V228ZM10 226V274H390V226H10ZM358 264C365.732 264 372 257.732 372 250C372 242.268 365.732 236 358 236C350.268 236 344 242.268 344 250C344 257.732 350.268 264 358 264ZM170 326H10V348H170V326ZM379 328H361C356.029 328 352 332.029 352 337C352 341.971 356.029 346 361 346H379C383.971 346 388 341.971 388 337C388 332.029 383.971 328 379 328ZM361 326C354.925 326 350 330.925 350 337C350 343.075 354.925 348 361 348H379C385.075 348 390 343.075 390 337C390 330.925 385.075 326 379 326H361ZM386 337C386 340.866 382.866 344 379 344C375.134 344 372 340.866 372 337C372 333.134 375.134 330 379 330C382.866 330 386 333.134 386 337ZM10 367H170V389H10V367ZM361 369H379C383.971 369 388 373.029 388 378C388 382.971 383.971 387 379 387H361C356.029 387 352 382.971 352 378C352 373.029 356.029 369 361 369ZM350 378C350 371.925 354.925 367 361 367H379C385.075 367 390 371.925 390 378C390 384.075 385.075 389 379 389H361C354.925 389 350 384.075 350 378ZM379 385C382.866 385 386 381.866 386 378C386 374.134 382.866 371 379 371C375.134 371 372 374.134 372 378C372 381.866 375.134 385 379 385Z" fill="#A8A8A8"/>
</svg>
