<?xml version="1.0" encoding="UTF-8"?>
<svg width="108px" height="108px" viewBox="0 0 108 108" version="1.1" xmlns="http://www.w3.org/2000/svg" xmlns:xlink="http://www.w3.org/1999/xlink">
    <title>thumbnail_bookmark_advanced_template_01</title>
    <g stroke="none" stroke-width="1" fill="none" fill-rule="evenodd">
        <g transform="translate(-1196.000000, -702.000000)" fill-rule="nonzero">
            <g transform="translate(1196.000000, 702.000000)">
                <g>
                    <rect fill="#282828" x="8" y="8" width="92" height="92"></rect>
                    <rect fill="#363636" x="8" y="8" width="92" height="18"></rect>
                    <rect fill="#363636" x="8" y="83" width="92" height="18"></rect>
                    <rect fill="#6A6A6A" x="12" y="12" width="51" height="4"></rect>
                    <rect fill="#6A6A6A" x="12" y="20" width="84" height="2"></rect>
                    <polygon fill="#525252" points="51.6145553 55.3396226 58.2857143 46 69 61 39 61 47.5714286 50.2857143"></polygon>
                    <rect fill="#6A6A6A" x="12" y="88" width="8" height="8" rx="4"></rect>
                    <g transform="translate(42.000000, 89.000000)">
                        <rect fill="#000000" opacity="0" x="0" y="0" width="6" height="6"></rect>
                        <polygon fill="#6A6A6A" points="5.25 0 2.99208907 3 5.25 6 3.75791093 6 1.5 3 3.75791093 0"></polygon>
                    </g>
                    <g transform="translate(63.000000, 92.000000) scale(-1, 1) translate(-63.000000, -92.000000) translate(60.000000, 89.000000)">
                        <rect fill="#000000" opacity="0" x="0" y="0" width="6" height="6"></rect>
                        <polygon fill="#6A6A6A" points="5.25 0 2.99208907 3 5.25 6 3.75791093 6 1.5 3 3.75791093 0"></polygon>
                    </g>
                    <rect fill="#6A6A6A" x="88" y="88" width="8" height="8" rx="4"></rect>
                </g>
            </g>
        </g>
    </g>
</svg>