<svg width="32" height="32" viewBox="0 0 32 32" fill="none" xmlns="http://www.w3.org/2000/svg">
<path fill-rule="evenodd" clip-rule="evenodd" d="M2.59619 6.3566C2.98533 5.76679 3.53951 5.3022 4.19097 5.0197L15.544 0.0944306C15.6875 0.032155 15.8424 0 15.999 0C16.1556 0 16.3105 0.032155 16.454 0.0944306L30 5.97008V23.6585C30.0003 24.3632 29.7931 25.0527 29.404 25.6425C29.0148 26.2324 28.4605 26.6969 27.809 26.9793L16.456 31.9056C16.3125 31.9678 16.1576 32 16.001 32C15.8444 32 15.6895 31.9678 15.546 31.9056L2 26.0289V8.34055C1.99986 7.63585 2.20705 6.94641 2.59619 6.3566ZM6.01462 21.5192C6.02371 21.5346 6.03663 21.5475 6.05214 21.5569L15.6457 26.9083C15.7528 26.9684 15.8745 27 15.9983 27C16.1222 27 16.2438 26.9684 16.351 26.9083L25.4954 21.8055C25.6488 21.7199 25.7762 21.5968 25.8648 21.4486C25.9534 21.3003 26 21.1321 26 20.9609V11.0704C26 10.9167 25.958 10.7657 25.8784 10.6327C25.7988 10.4997 25.6843 10.3893 25.5465 10.3126L16.0504 5.01367C16.0346 5.00472 16.0167 5 15.9983 5C15.98 5 15.962 5.00472 15.9462 5.01367L13.5309 6.36092C13.5203 6.36685 13.5115 6.37538 13.5054 6.38563C13.4993 6.39588 13.4961 6.4075 13.4961 6.41933C13.4961 6.43116 13.4993 6.44278 13.5054 6.45304C13.5115 6.46329 13.5203 6.47182 13.5309 6.47775L22.4779 11.4702C22.8689 11.6885 23.1937 12.0024 23.4195 12.3803C23.6453 12.7583 23.7642 13.187 23.7643 13.6234V19.1367C23.7645 19.2161 23.7429 19.2941 23.7018 19.3628C23.6607 19.4315 23.6016 19.4885 23.5304 19.528L17.8968 22.6726C17.3194 22.9942 16.6648 23.1634 15.9983 23.1634C15.3319 23.1634 14.6772 22.9942 14.0998 22.6726L8.97198 19.8109C8.74704 19.6853 8.56033 19.5046 8.43049 19.2872C8.30066 19.0697 8.23228 18.823 8.23231 18.5719V11.7606C8.23249 11.7488 8.23573 11.7372 8.24173 11.7269C8.24774 11.7166 8.25633 11.708 8.2667 11.7017C8.27735 11.6959 8.28938 11.6928 8.30162 11.6928C8.31386 11.6928 8.32589 11.6959 8.33655 11.7017L15.9883 15.9696C16.0384 15.9978 16.08 16.0381 16.109 16.0866C16.138 16.1351 16.1534 16.1901 16.1536 16.2461V18.7734C16.1536 18.7851 16.1568 18.7966 16.1629 18.8067C16.1689 18.8169 16.1775 18.8253 16.188 18.8313C16.1986 18.8371 16.2107 18.8402 16.2229 18.8402C16.2351 18.8402 16.2472 18.8371 16.2578 18.8313L18.2295 17.7316C18.5091 17.575 18.7412 17.3503 18.9027 17.0798C19.0643 16.8093 19.1495 16.5027 19.15 16.1904V15.2258C19.1494 14.9482 19.0735 14.6757 18.9299 14.4353C18.7863 14.195 18.58 13.9952 18.3316 13.856L9.64959 9.01148C9.51886 8.93879 9.37068 8.90052 9.21987 8.90052C9.06905 8.90052 8.92087 8.93879 8.79015 9.01148L6.05214 10.5388C6.03663 10.5482 6.02371 10.5611 6.01462 10.5764C6.00553 10.5917 6.00052 10.609 6 10.6267V21.469C6.00052 21.4866 6.00553 21.5039 6.01462 21.5192Z" fill="black"/>
</svg>
