<svg width="16" height="16" viewBox="0 0 16 16" fill="none" xmlns="http://www.w3.org/2000/svg">
<path fill-rule="evenodd" clip-rule="evenodd" d="M8.52713 0.516022C8.52713 0.231031 8.29113 0 8 0C7.70887 0 7.47287 0.231031 7.47287 0.516022V10.0244L4.89987 7.52676C4.69401 7.32524 4.36025 7.32524 4.15439 7.52676C3.94854 7.72828 3.94854 8.05501 4.15439 8.25653L8 12L11.8456 8.25653C12.0515 8.05501 12.0515 7.72828 11.8456 7.52676C11.6397 7.32524 11.306 7.32524 11.1001 7.52676L8.52713 10.0244V0.516022ZM0 8C0 4.64262 2.06817 1.76829 5 0.581517V1.67363C2.63505 2.7971 1 5.2076 1 8C1 11.866 4.13401 15 8 15C11.866 15 15 11.866 15 8C15 5.2076 13.3649 2.7971 11 1.67363V0.581517C13.9318 1.76829 16 4.64262 16 8C16 12.4183 12.4183 16 8 16C3.58172 16 0 12.4183 0 8Z" fill="black"/>
</svg>