<svg width="17" height="16" viewBox="0 0 17 16" fill="none" xmlns="http://www.w3.org/2000/svg">
<g clip-path="url(#clip0_319_49)">
<path d="M3.5 1.99999C3.77614 1.99999 4 2.22385 4 2.49999C4 2.77614 3.77614 2.99999 3.5 2.99999H2C1.44771 2.99999 1 3.44771 1 3.99999V14C1 14.5523 1.44771 15 2 15H13C13.5523 15 14 14.5523 14 14V10.5C14 10.2239 14.2239 9.99999 14.5 9.99999C14.7761 9.99999 15 10.2239 15 10.5V14C15 15.1046 14.1046 16 13 16H2C0.895431 16 0 15.1046 0 14V3.99999C0 2.89542 0.895431 1.99999 2 1.99999H3.5ZM12.6502 0.146447L15.6581 3.1545L16.0037 3.49999L12.6502 6.85354C12.4549 7.0488 12.1384 7.0488 11.9431 6.85354C11.7479 6.65828 11.7479 6.34171 11.9431 6.14645L14.1689 3.91979C8.23597 3.63816 5.69953 6.09838 6.29358 11.4448C6.32407 11.7192 6.12632 11.9664 5.85187 11.9969C5.57741 12.0274 5.33018 11.8297 5.29968 11.5552C4.63993 5.61738 7.62754 2.68991 14.0031 2.91351L11.9431 0.85354C11.7695 0.679974 11.7503 0.410561 11.8853 0.215692L11.9431 0.146447C12.1384 -0.0488158 12.4549 -0.0488158 12.6502 0.146447Z" fill="black"/>
</g>
<defs>
<clipPath id="clip0_319_49">
<rect width="16.0037" height="16" fill="white"/>
</clipPath>
</defs>
</svg>
