<svg width="16" height="16" viewBox="0 0 16 16" fill="none" xmlns="http://www.w3.org/2000/svg">
<path fill-rule="evenodd" clip-rule="evenodd" d="M12.9054 3.2435V5.3H13.6V2.5H12.9633L12 3.17627L12.3597 3.64689L12.9054 3.2435ZM10.5 3.5C10.7761 3.5 11 3.72386 11 4C11 4.27614 10.7761 4.5 10.5 4.5H2.5C2.22386 4.5 2 4.27614 2 4C2 3.72386 2.22386 3.5 2.5 3.5H10.5ZM12.0569 9.3V8.7608L13.1044 7.79794C13.1701 7.73375 13.2233 7.66827 13.2638 7.60151C13.3042 7.53475 13.3245 7.46029 13.3245 7.37813C13.3245 7.28056 13.2941 7.2016 13.2334 7.14127C13.1727 7.08093 13.0917 7.05076 12.9905 7.05076C12.8842 7.05076 12.7976 7.08863 12.7306 7.16437C12.6635 7.24012 12.6237 7.33961 12.611 7.46286L12 7.37813C12.0152 7.23948 12.0525 7.11623 12.112 7.00839C12.1714 6.90055 12.2467 6.80876 12.3378 6.73301C12.4288 6.65727 12.5332 6.5995 12.6509 6.5597C12.7685 6.5199 12.8931 6.5 13.0247 6.5C13.1486 6.5 13.2688 6.51669 13.3852 6.55007C13.5016 6.58345 13.6053 6.6348 13.6964 6.70413C13.7875 6.77345 13.8602 6.86075 13.9146 6.96602C13.969 7.0713 13.9962 7.19454 13.9962 7.33576C13.9962 7.43333 13.9836 7.52127 13.9583 7.59959C13.933 7.6779 13.8982 7.75044 13.8539 7.81719C13.8096 7.88395 13.759 7.94622 13.7021 8.00399C13.6452 8.06176 13.5863 8.11889 13.5256 8.17538L12.9032 8.73769H14V9.3H12.0569ZM13.9147 13.0327C13.9716 12.9264 14 12.8006 14 12.6555C14 12.5804 13.9879 12.5097 13.9637 12.4434C13.9395 12.3771 13.9056 12.3171 13.8621 12.2633C13.8185 12.2095 13.7665 12.1632 13.706 12.1244C13.6455 12.0856 13.5789 12.0575 13.5064 12.0399V12.0287C13.6322 11.9937 13.7356 11.9255 13.8167 11.8241C13.8978 11.7228 13.9383 11.5983 13.9383 11.4507C13.9383 11.3231 13.9123 11.2123 13.8603 11.1185C13.8082 11.0247 13.7399 10.9465 13.6552 10.8839C13.5705 10.8214 13.4743 10.7751 13.3666 10.745C13.2589 10.715 13.1482 10.7 13.0345 10.7C12.928 10.7 12.824 10.7144 12.7223 10.7432C12.6207 10.7719 12.5269 10.8145 12.441 10.8708C12.3551 10.9271 12.2807 10.9971 12.2178 11.081C12.1549 11.1648 12.1077 11.263 12.0762 11.3756L12.6425 11.5107C12.6618 11.4206 12.7036 11.3487 12.7677 11.2949C12.8318 11.2411 12.9074 11.2142 12.9946 11.2142C13.0793 11.2142 13.1543 11.2392 13.2196 11.2893C13.2849 11.3393 13.3176 11.4119 13.3176 11.507C13.3176 11.572 13.3049 11.6246 13.2795 11.6646C13.2541 11.7046 13.2202 11.7366 13.1779 11.7603C13.1355 11.7841 13.0877 11.8004 13.0345 11.8091C12.9812 11.8179 12.9256 11.8223 12.8675 11.8223H12.6897V12.2839H12.853C12.9159 12.2839 12.9788 12.2895 13.0417 12.3008C13.1047 12.3121 13.1609 12.3308 13.2105 12.3571C13.2601 12.3834 13.3001 12.419 13.3303 12.4641C13.3606 12.5091 13.3757 12.5654 13.3757 12.633C13.3757 12.6955 13.3642 12.7481 13.3412 12.7906C13.3182 12.8332 13.2892 12.8676 13.2541 12.8938C13.219 12.9201 13.1791 12.9395 13.1343 12.952C13.0895 12.9645 13.0454 12.9708 13.0018 12.9708C12.8857 12.9708 12.7901 12.9376 12.7151 12.8713C12.64 12.805 12.5904 12.7281 12.5662 12.6405L12 12.7944C12.0339 12.9195 12.0847 13.0265 12.1525 13.1153C12.2202 13.2041 12.2995 13.2767 12.3902 13.333C12.4809 13.3893 12.5814 13.4312 12.6915 13.4587C12.8016 13.4862 12.9147 13.5 13.0309 13.5C13.1494 13.5 13.2662 13.4831 13.3811 13.4493C13.4961 13.4155 13.5995 13.3643 13.6915 13.2954C13.7834 13.2266 13.8578 13.1391 13.9147 13.0327ZM11 8C11 7.72386 10.7761 7.5 10.5 7.5H2.5C2.22386 7.5 2 7.72386 2 8C2 8.27614 2.22386 8.5 2.5 8.5H10.5C10.7761 8.5 11 8.27614 11 8ZM10.5 11.5C10.7761 11.5 11 11.7239 11 12C11 12.2761 10.7761 12.5 10.5 12.5H2.5C2.22386 12.5 2 12.2761 2 12C2 11.7239 2.22386 11.5 2.5 11.5H10.5Z" fill="black"/>
</svg>
