<svg width="16" height="16" viewBox="0 0 16 16" fill="none" xmlns="http://www.w3.org/2000/svg">
<path d="M5.44 6.16802C5.44 6.62668 5.39467 7.04002 5.304 7.40802C5.21867 7.77602 5.09067 8.08802 4.92 8.34402C4.75467 8.60002 4.54667 8.79735 4.296 8.93602C4.05067 9.07468 3.768 9.14402 3.448 9.14402C3.128 9.14402 2.84267 9.07468 2.592 8.93602C2.34134 8.79735 2.13067 8.60002 1.96 8.34402C1.78934 8.08802 1.65867 7.77602 1.568 7.40802C1.48267 7.04002 1.44 6.62668 1.44 6.16802C1.44 5.70935 1.48267 5.29602 1.568 4.92802C1.65867 4.56002 1.78934 4.24802 1.96 3.99202C2.13067 3.73602 2.34134 3.53868 2.592 3.40002C2.84267 3.26135 3.128 3.19202 3.448 3.19202C3.768 3.19202 4.05067 3.26135 4.296 3.40002C4.54667 3.53868 4.75467 3.73602 4.92 3.99202C5.09067 4.24802 5.21867 4.56002 5.304 4.92802C5.39467 5.29602 5.44 5.70935 5.44 6.16802ZM4.456 6.16802C4.456 5.97068 4.44267 5.74668 4.416 5.49602C4.39467 5.24535 4.34667 5.00802 4.272 4.78402C4.20267 4.56002 4.10134 4.37335 3.968 4.22402C3.83467 4.06935 3.66134 3.99202 3.448 3.99202C3.22934 3.99202 3.05334 4.06935 2.92 4.22402C2.78667 4.37335 2.68267 4.56002 2.608 4.78402C2.53867 5.00802 2.49067 5.24535 2.464 5.49602C2.43734 5.74668 2.424 5.97068 2.424 6.16802C2.424 6.36535 2.43734 6.58935 2.464 6.84002C2.49067 7.09068 2.53867 7.32535 2.608 7.54402C2.68267 7.76268 2.78667 7.94935 2.92 8.10402C3.05334 8.25335 3.22934 8.32802 3.448 8.32802C3.66134 8.32802 3.83467 8.25335 3.968 8.10402C4.10134 7.94935 4.20267 7.76268 4.272 7.54402C4.34667 7.32535 4.39467 7.09068 4.416 6.84002C4.44267 6.58935 4.456 6.36535 4.456 6.16802Z" fill="black"/>
<path d="M11.344 9.00002L12.8 6.89602L12.792 6.88802C12.712 6.92535 12.6133 6.95202 12.496 6.96802C12.384 6.98402 12.28 6.99202 12.184 6.99202C11.9333 6.99202 11.6987 6.94668 11.48 6.85602C11.2613 6.76002 11.0693 6.63202 10.904 6.47202C10.7387 6.30668 10.608 6.11468 10.512 5.89602C10.4213 5.67202 10.376 5.43202 10.376 5.17602C10.376 4.87735 10.4293 4.60535 10.536 4.36002C10.6427 4.11468 10.7867 3.90668 10.968 3.73602C11.1547 3.56002 11.3733 3.42668 11.624 3.33602C11.88 3.24002 12.152 3.19202 12.44 3.19202C12.7333 3.19202 13.0053 3.24268 13.256 3.34402C13.512 3.44002 13.7333 3.57602 13.92 3.75202C14.1067 3.92802 14.2507 4.13602 14.352 4.37602C14.4587 4.61068 14.512 4.86402 14.512 5.13602C14.512 5.29602 14.4987 5.44802 14.472 5.59202C14.4453 5.73068 14.4053 5.86668 14.352 6.00002C14.304 6.12802 14.2427 6.25868 14.168 6.39202C14.0987 6.52535 14.0187 6.66402 13.928 6.80802L12.512 9.00002H11.344ZM13.536 5.11202C13.536 4.96268 13.5093 4.82135 13.456 4.68802C13.408 4.55468 13.336 4.43735 13.24 4.33602C13.144 4.22935 13.0293 4.14668 12.896 4.08802C12.7627 4.02402 12.6133 3.99202 12.448 3.99202C12.1227 3.99202 11.8587 4.09868 11.656 4.31202C11.4587 4.52002 11.36 4.79202 11.36 5.12802C11.36 5.28802 11.384 5.43735 11.432 5.57602C11.4853 5.70935 11.56 5.82402 11.656 5.92002C11.752 6.01602 11.864 6.09335 11.992 6.15202C12.1253 6.20535 12.272 6.23202 12.432 6.23202C12.592 6.23202 12.7387 6.20535 12.872 6.15202C13.0107 6.09868 13.128 6.02402 13.224 5.92802C13.3253 5.82668 13.4027 5.70668 13.456 5.56802C13.5093 5.42935 13.536 5.27735 13.536 5.11202Z" fill="black"/>
<rect x="1" y="12" width="4" height="1" fill="black"/>
<rect x="6" y="12" width="4" height="1" fill="black"/>
<rect x="11" y="12" width="4" height="1" fill="black"/>
</svg>
