<svg xmlns="http://www.w3.org/2000/svg" viewBox="0 0 20 20"><path d="M5.951 14.904l-.22-.978a3.993 3.993 0 1 0-1.749-7.782l-.218-.97A4.973 4.973 0 0 1 5 5a4.997 4.997 0 0 1 .951 9.904zm-3.479-1.8A4.006 4.006 0 0 1 1.388 8.28l-.31-1.383a4.987 4.987 0 0 0 1.7 7.567zm.653-5.446c.047-.038.1-.066.15-.101l-.841-3.742A2.48 2.48 0 0 1 1.5 4c-.017 0-.033-.005-.05-.005l1 4.455a3.005 3.005 0 0 1 .674-.793zm.845-5.866a2.468 2.468 0 0 1-.314.95l13.91 4.009L5.55 17.676 4.487 12.95a2.981 2.981 0 0 1-.612-.168 2.979 2.979 0 0 1-.512-.276L4.95 19.57 19.564 6.286zM3 1.5A1.5 1.5 0 1 1 1.5 0 1.5 1.5 0 0 1 3 1.5zm-1 0a.5.5 0 1 0-.5.5.5.5 0 0 0 .5-.5zm4.354 7.854l-.707-.707L5 9.293l-.646-.646-.707.707.646.646-.646.646.707.707.646-.646.646.646.707-.707L5.707 10z"/><path fill="none" d="M0 0h20v20H0z"/></svg>