<svg width="400" height="400" viewBox="0 0 400 400" fill="none" xmlns="http://www.w3.org/2000/svg">
<rect x="326" y="58" width="12" height="281" transform="rotate(90 326 58)" fill="black"/>
<rect x="258.473" y="73" width="12" height="213.473" transform="rotate(90 258.473 73)" fill="black"/>
<rect x="204.015" y="88" width="12" height="159.015" transform="rotate(90 204.015 88)" fill="black"/>
<rect x="159" y="119" width="12" height="114" transform="rotate(90 159 119)" fill="black"/>
<rect x="131.605" y="134" width="12" height="86.6046" transform="rotate(90 131.605 134)" fill="black"/>
<rect x="109.512" y="149" width="12" height="64.5116" transform="rotate(90 109.512 149)" fill="black"/>
<rect x="195" y="180" width="12" height="150" transform="rotate(90 195 180)" fill="black"/>
<rect x="158.953" y="195" width="12" height="113.953" transform="rotate(90 158.953 195)" fill="black"/>
<rect x="129.884" y="210" width="12" height="84.8837" transform="rotate(90 129.884 210)" fill="black"/>
<rect x="245" y="241" width="12" height="200" transform="rotate(90 245 241)" fill="black"/>
<rect x="196.938" y="256" width="12" height="151.938" transform="rotate(90 196.938 256)" fill="black"/>
<rect x="158.178" y="271" width="12" height="113.178" transform="rotate(90 158.178 271)" fill="black"/>
<rect x="174" y="302" width="12" height="129" transform="rotate(90 174 302)" fill="black"/>
<rect x="143" y="317" width="12" height="98" transform="rotate(90 143 317)" fill="black"/>
<rect x="118" y="332" width="12" height="73" transform="rotate(90 118 332)" fill="black"/>
<rect x="24" y="83" width="8" height="16" transform="rotate(-90 24 83)" fill="black"/>
<rect x="24" y="144" width="8" height="16" transform="rotate(-90 24 144)" fill="black"/>
<rect x="24" y="204" width="8" height="16" transform="rotate(-90 24 204)" fill="black"/>
<rect x="24" y="266" width="8" height="16" transform="rotate(-90 24 266)" fill="black"/>
<rect x="24" y="327" width="8" height="16" transform="rotate(-90 24 327)" fill="black"/>
<rect x="135" y="376" width="8" height="24" transform="rotate(-90 135 376)" fill="black"/>
<rect x="85" y="376" width="8" height="24" transform="rotate(-90 85 376)" fill="black"/>
<rect x="33" y="376" width="8" height="24" transform="rotate(-90 33 376)" fill="black"/>
<rect x="185" y="376" width="8" height="24" transform="rotate(-90 185 376)" fill="black"/>
<rect x="237" y="376" width="8" height="24" transform="rotate(-90 237 376)" fill="black"/>
<rect x="289" y="376" width="8" height="24" transform="rotate(-90 289 376)" fill="black"/>
<rect x="341" y="376" width="8" height="24" transform="rotate(-90 341 376)" fill="black"/>
<path fill-rule="evenodd" clip-rule="evenodd" d="M376 354.501L376 355.5L300.5 355.5L300.5 359.5L299.5 359.5L299.5 355.5L249.5 355.5L249.5 359.5L248.5 359.5L248.5 355.5L198.5 355.5L198.5 359.5L197.5 359.5L197.5 355.5L147.5 355.5L147.5 359.5L146.5 359.5L146.5 355.5L96.5 355.5L96.5 359.5L95.5 359.5L95.5 355.5L45.5 355.5L45.5 359.5L44.5 359.5L44.5 355.5L40.5 355.5L40.5 354.5L44.5 354.5L44.5 294.5L40.5 294.5L40.5 293.5L44.5 293.5L44.5 233.5L40.5 233.5L40.5 232.5L44.5 232.5L44.5 172.5L40.5 172.5L40.5 171.5L44.5 171.5L44.5 111.5L40.5 111.5L40.5 110.5L44.5 110.5L44.5 50.5L40.5 50.5L40.5 49.5L44.5 49.5L44.5 27.5L45.4984 27.5L45.4984 354.501L376 354.501ZM351.5 355.5L351.5 359.5L350.5 359.5L350.5 355.5L351.5 355.5Z" fill="black"/>
</svg>
