<svg width="400" height="400" viewBox="0 0 400 400" fill="none" xmlns="http://www.w3.org/2000/svg">
<path fill-rule="evenodd" clip-rule="evenodd" d="M200 353.81C240.414 353.81 277.188 338.223 304.637 312.733L258.788 266.885C243.105 280.681 222.53 289.048 200 289.048C150.82 289.048 110.952 249.18 110.952 200C110.952 153.549 146.519 115.405 191.905 111.315V46.3999C110.721 50.6095 46.1905 117.769 46.1905 200C46.1905 284.947 115.053 353.81 200 353.81ZM353.6 208.095C351.758 243.628 337.856 275.971 315.91 301.109L269.933 255.132C280.334 241.956 287.092 225.771 288.685 208.095H353.6ZM353.809 200.139C353.809 200.092 353.81 200.046 353.81 200C353.81 199.954 353.809 199.908 353.809 199.861V200.139ZM353.6 191.905C349.53 113.402 286.598 50.4705 208.095 46.3999V111.315C250.815 115.165 284.835 149.185 288.685 191.905L353.6 191.905ZM272.857 199.849C272.776 159.681 240.188 127.143 200 127.143C159.762 127.143 127.143 159.762 127.143 200C127.143 240.238 159.762 272.857 200 272.857C240.188 272.857 272.776 240.319 272.857 200.151V199.849ZM200 370C293.888 370 370 293.888 370 200C370 106.112 293.888 30 200 30C106.112 30 30 106.112 30 200C30 293.888 106.112 370 200 370Z" fill="#A8A8A8"/>
</svg>
