<svg width="400" height="400" viewBox="0 0 400 400" fill="none" xmlns="http://www.w3.org/2000/svg">
<path fill-rule="evenodd" clip-rule="evenodd" d="M376 354.501V355.5H351.5V359.5H350.5V355.5H300.5V359.5H299.5V355.5H249.5V359.5H248.5V355.5H198.5V359.5H197.5V355.5H147.5V359.5H146.5V355.5H96.5V359.5H95.5V355.5H45.5V359.5H44.5V355.5H40.5V354.5H44.5L44.5 294.5H40.5L40.5 293.5H44.5L44.5 233.5H40.5V232.5H44.5L44.5 172.5H40.5V171.5H44.5L44.5 111.5H40.5V110.5H44.5L44.5 50.5H40.5V49.5H44.5L44.5 27.5L45.4983 27.5L45.4984 354.501L376 354.501ZM24 75V83H40V75H24ZM24 136V144H40V136H24ZM24 204V196H40V204H24ZM24 258V266H40V258H24ZM24 327V319H40V327H24ZM33 376V368H57V376H33ZM85 368V376H109V368H85ZM135 368V376H159V368H135ZM185 368V376H209V368H185ZM237 376V368H261V376H237ZM289 368V376H313V368H289ZM341 376V368H365V376H341ZM347 89C351.418 89 355 85.4183 355 81C355 76.5817 351.418 73 347 73C342.582 73 339 76.5817 339 81C339 85.4183 342.582 89 347 89ZM299 103C303.418 103 307 99.4183 307 95C307 90.5817 303.418 87 299 87C294.582 87 291 90.5817 291 95C291 99.4183 294.582 103 299 103ZM268 141C268 145.418 264.418 149 260 149C255.582 149 252 145.418 252 141C252 136.582 255.582 133 260 133C264.418 133 268 136.582 268 141ZM155 185C159.418 185 163 181.418 163 177C163 172.582 159.418 169 155 169C150.582 169 147 172.582 147 177C147 181.418 150.582 185 155 185ZM185 210C185 214.418 181.418 218 177 218C172.582 218 169 214.418 169 210C169 205.582 172.582 202 177 202C181.418 202 185 205.582 185 210ZM127 250C131.418 250 135 246.418 135 242C135 237.582 131.418 234 127 234C122.582 234 119 237.582 119 242C119 246.418 122.582 250 127 250ZM97 292C97 296.418 93.4183 300 89 300C84.5817 300 81 296.418 81 292C81 287.582 84.5817 284 89 284C93.4183 284 97 287.582 97 292ZM135 296C135 300.418 131.418 304 127 304C122.582 304 119 300.418 119 296C119 291.582 122.582 288 127 288C131.418 288 135 291.582 135 296ZM180 266C180 270.418 176.418 274 172 274C167.582 274 164 270.418 164 266C164 261.582 167.582 258 172 258C176.418 258 180 261.582 180 266ZM221 230C225.418 230 229 226.418 229 222C229 217.582 225.418 214 221 214C216.582 214 213 217.582 213 222C213 226.418 216.582 230 221 230ZM208 172C212.418 172 216 168.418 216 164C216 159.582 212.418 156 208 156C203.582 156 200 159.582 200 164C200 168.418 203.582 172 208 172ZM269 173C269 177.418 265.418 181 261 181C256.582 181 253 177.418 253 173C253 168.582 256.582 165 261 165C265.418 165 269 168.582 269 173ZM307 143C307 147.418 303.418 151 299 151C294.582 151 291 147.418 291 143C291 138.582 294.582 135 299 135C303.418 135 307 138.582 307 143ZM347 127C347 131.418 343.418 135 339 135C334.582 135 331 131.418 331 127C331 122.582 334.582 119 339 119C343.418 119 347 122.582 347 127Z" fill="#525252"/>
</svg>
