<svg width="400" height="400" viewBox="0 0 400 400" fill="none" xmlns="http://www.w3.org/2000/svg">
<rect x="24" y="83" width="8" height="16" transform="rotate(-90 24 83)" fill="#A8A8A8"/>
<rect x="24" y="144" width="8" height="16" transform="rotate(-90 24 144)" fill="#A8A8A8"/>
<rect x="24" y="204" width="8" height="16" transform="rotate(-90 24 204)" fill="#A8A8A8"/>
<rect x="24" y="266" width="8" height="16" transform="rotate(-90 24 266)" fill="#A8A8A8"/>
<rect x="24" y="327" width="8" height="16" transform="rotate(-90 24 327)" fill="#A8A8A8"/>
<rect x="135" y="376" width="8" height="24" transform="rotate(-90 135 376)" fill="#A8A8A8"/>
<rect x="85" y="376" width="8" height="24" transform="rotate(-90 85 376)" fill="#A8A8A8"/>
<rect x="33" y="376" width="8" height="24" transform="rotate(-90 33 376)" fill="#A8A8A8"/>
<rect x="185" y="376" width="8" height="24" transform="rotate(-90 185 376)" fill="#A8A8A8"/>
<rect x="237" y="376" width="8" height="24" transform="rotate(-90 237 376)" fill="#A8A8A8"/>
<rect x="289" y="376" width="8" height="24" transform="rotate(-90 289 376)" fill="#A8A8A8"/>
<rect x="341" y="376" width="8" height="24" transform="rotate(-90 341 376)" fill="#A8A8A8"/>
<path fill-rule="evenodd" clip-rule="evenodd" d="M376 354.501L376 355.5L351.5 355.5L351.5 359.5L350.5 359.5L350.5 355.5L300.5 355.5L300.5 359.5L299.5 359.5L299.5 355.5L249.5 355.5L249.5 359.5L248.5 359.5L248.5 355.5L198.5 355.5L198.5 359.5L197.5 359.5L197.5 355.5L147.5 355.5L147.5 359.5L146.5 359.5L146.5 355.5L96.5 355.5L96.5 359.5L95.5 359.5L95.5 355.5L45.5 355.5L45.5 359.5L44.5 359.5L44.5 355.5L40.5 355.5L40.5 354.5L44.5 354.5L44.5 294.5L40.5 294.5L40.5 293.5L44.5 293.5L44.5 233.5L40.5 233.5L40.5 232.5L44.5 232.5L44.5 172.5L40.5 172.5L40.5 171.5L44.5 171.5L44.5 111.5L40.5 111.5L40.5 110.5L44.5 110.5L44.5 50.5L40.5 50.5L40.5 49.5L44.5 49.5L44.5 27.5L45.4983 27.5L45.4984 354.501L376 354.501Z" fill="#A8A8A8"/>
<path fill-rule="evenodd" clip-rule="evenodd" d="M326.792 248.694C311.366 239.988 291.916 243.615 280.664 257.294L272.527 267.186C260.195 282.177 237.374 282.566 224.54 268.003C210.921 252.551 186.221 254.75 175.546 272.364L163.455 292.314C154.374 307.298 135.057 312.399 119.762 303.852C106.169 296.255 89.0661 299.719 79.4995 312.006L45.3945 355.807L44.6055 355.193L78.7104 311.391C88.5805 298.715 106.226 295.142 120.25 302.979C135.075 311.263 153.798 306.319 162.6 291.796L174.69 271.846C185.716 253.655 211.225 251.384 225.29 267.342C237.717 281.442 259.814 281.066 271.754 266.551L279.891 256.659C291.452 242.604 311.435 238.879 327.283 247.823L350.746 261.065L350.254 261.935L326.792 248.694Z" fill="#A8A8A8"/>
<circle cx="96" cy="300" r="3" fill="#A8A8A8"/>
<circle cx="45" cy="355" r="3" fill="#A8A8A8"/>
<circle cx="147" cy="306" r="3" fill="#A8A8A8"/>
<circle cx="197" cy="258" r="3" fill="#A8A8A8"/>
<circle cx="249" cy="278" r="3" fill="#A8A8A8"/>
<circle cx="300" cy="245" r="3" fill="#A8A8A8"/>
<circle cx="351" cy="262" r="3" fill="#A8A8A8"/>
<path fill-rule="evenodd" clip-rule="evenodd" d="M229.969 208.854C210.673 201.061 188.548 207.338 176.22 224.105L165.557 238.606C155.526 252.248 136.097 254.668 123.025 243.904C109.129 232.46 88.2352 236.601 79.755 252.481L45.4411 316.735L44.559 316.264L78.8729 252.01C87.6506 235.573 109.277 231.286 123.661 243.132C136.289 253.532 155.061 251.193 164.752 238.013L175.414 223.512C188.013 206.378 210.623 199.962 230.344 207.926L233.587 209.236C243.614 213.286 254.683 213.978 265.136 211.211L277.603 207.911C292.171 204.055 307.591 204.968 321.602 210.517L350.684 222.035L350.316 222.965L321.234 211.447C307.422 205.977 292.22 205.077 277.858 208.878L265.392 212.178C254.73 215 243.44 214.294 233.213 210.163L229.969 208.854Z" fill="#A8A8A8"/>
<circle cx="96" cy="239" r="3" fill="#A8A8A8"/>
<circle cx="45" cy="316" r="3" fill="#A8A8A8"/>
<circle cx="147" cy="250" r="3" fill="#A8A8A8"/>
<circle cx="197" cy="208" r="3" fill="#A8A8A8"/>
<circle cx="249" cy="213" r="3" fill="#A8A8A8"/>
<circle cx="300" cy="206" r="3" fill="#A8A8A8"/>
<circle cx="351" cy="223" r="3" fill="#A8A8A8"/>
<path fill-rule="evenodd" clip-rule="evenodd" d="M350.868 117.838L327.111 143.731C313.684 158.365 295.265 167.444 275.48 169.179L263.529 170.227C254.007 171.063 244.464 168.878 236.254 163.983L230.252 160.405C211.467 149.207 187.249 154.106 174.293 171.725L166.58 182.215C155.993 196.613 135.488 199.167 121.693 187.806C107.972 176.507 87.5027 179.473 77.5531 194.202L45.4144 241.78L44.5857 241.22L76.7245 193.642C87.0041 178.424 108.152 175.36 122.328 187.034C135.681 198.03 155.528 195.558 165.774 181.623L173.488 171.133C186.748 153.098 211.537 148.084 230.764 159.547L236.766 163.125C244.796 167.911 254.129 170.048 263.442 169.231L275.392 168.183C294.928 166.469 313.116 157.505 326.374 143.055L350.132 117.162L350.868 117.838Z" fill="#A8A8A8"/>
<circle cx="96" cy="181" r="3" fill="#A8A8A8"/>
<circle cx="45" cy="241" r="3" fill="#A8A8A8"/>
<circle cx="147" cy="194" r="3" fill="#A8A8A8"/>
<circle cx="197" cy="155" r="3" fill="#A8A8A8"/>
<circle cx="249" cy="167" r="3" fill="#A8A8A8"/>
<circle cx="300" cy="162" r="3" fill="#A8A8A8"/>
<circle cx="351" cy="118" r="3" fill="#A8A8A8"/>
</svg>
