<svg width="400" height="400" viewBox="0 0 400 400" fill="none" xmlns="http://www.w3.org/2000/svg">
<rect x="24" y="83" width="8" height="16" transform="rotate(-90 24 83)" fill="#A8A8A8"/>
<rect x="24" y="144" width="8" height="16" transform="rotate(-90 24 144)" fill="#A8A8A8"/>
<rect x="24" y="204" width="8" height="16" transform="rotate(-90 24 204)" fill="#A8A8A8"/>
<rect x="24" y="266" width="8" height="16" transform="rotate(-90 24 266)" fill="#A8A8A8"/>
<rect x="24" y="327" width="8" height="16" transform="rotate(-90 24 327)" fill="#A8A8A8"/>
<rect x="135" y="376" width="8" height="24" transform="rotate(-90 135 376)" fill="#A8A8A8"/>
<rect x="85" y="376" width="8" height="24" transform="rotate(-90 85 376)" fill="#A8A8A8"/>
<rect x="33" y="376" width="8" height="24" transform="rotate(-90 33 376)" fill="#A8A8A8"/>
<rect x="185" y="376" width="8" height="24" transform="rotate(-90 185 376)" fill="#A8A8A8"/>
<rect x="237" y="376" width="8" height="24" transform="rotate(-90 237 376)" fill="#A8A8A8"/>
<rect x="289" y="376" width="8" height="24" transform="rotate(-90 289 376)" fill="#A8A8A8"/>
<rect x="341" y="376" width="8" height="24" transform="rotate(-90 341 376)" fill="#A8A8A8"/>
<path fill-rule="evenodd" clip-rule="evenodd" d="M376 354.501L376 355.5L351.5 355.5L351.5 359.5L350.5 359.5L350.5 355.5L300.5 355.5L300.5 359.5L299.5 359.5L299.5 355.5L249.5 355.5L249.5 359.5L248.5 359.5L248.5 355.5L198.5 355.5L198.5 359.5L197.5 359.5L197.5 355.5L147.5 355.5L147.5 359.5L146.5 359.5L146.5 355.5L96.5 355.5L96.5 359.5L95.5 359.5L95.5 355.5L45.5 355.5L45.5 359.5L44.5 359.5L44.5 355.5L40.5 355.5L40.5 354.5L44.5 354.5L44.5 294.5L40.5 294.5L40.5 293.5L44.5 293.5L44.5 233.5L40.5 233.5L40.5 232.5L44.5 232.5L44.5 172.5L40.5 172.5L40.5 171.5L44.5 171.5L44.5 111.5L40.5 111.5L40.5 110.5L44.5 110.5L44.5 50.5L40.5 50.5L40.5 49.5L44.5 49.5L44.5 27.5L45.4983 27.5L45.4984 354.501L376 354.501Z" fill="#A8A8A8"/>
<path fill-rule="evenodd" clip-rule="evenodd" d="M302.959 60.5L348.041 60.5001C348.279 59.0812 349.513 58 351 58C352.657 58 354 59.3431 354 61C354 62.6569 352.657 64 351 64C349.514 64 348.28 62.9189 348.042 61.5001H302.958C302.72 62.9189 301.486 64 300 64C298.534 64 297.313 62.9482 297.052 61.5579L251.968 62.442C251.754 63.8893 250.507 65 249 65C247.573 65 246.379 64.0042 246.075 62.6697L199.982 65.3289C199.818 66.831 198.546 68 197 68C195.493 68 194.245 66.8887 194.032 65.4408L149.948 64.5592C149.686 65.9488 148.466 67 147 67C145.534 67 144.313 65.9482 144.052 64.558L98.9677 65.442C98.754 66.8893 97.5067 68 96 68C94.5338 68 93.3133 66.9482 93.0518 65.558L47.9677 66.442C47.754 67.8893 46.5067 69 45 69C43.3431 69 42 67.6569 42 66C42 64.3431 43.3431 63 45 63C46.4662 63 47.6868 64.0519 47.9482 65.4422L93.0323 64.5582C93.2459 63.1108 94.4932 62 96 62C97.4662 62 98.6868 63.0519 98.9482 64.4422L144.032 63.5582C144.246 62.1108 145.493 61 147 61C148.507 61 149.755 62.1114 149.968 63.5594L194.052 64.441C194.314 63.0513 195.534 62 197 62C198.427 62 199.621 62.9959 199.925 64.3305L246.018 61.6713C246.182 60.1691 247.454 59 249 59C250.466 59 251.687 60.0519 251.948 61.4422L297.032 60.5582C297.246 59.1108 298.493 58 300 58C301.487 58 302.72 59.0811 302.959 60.5ZM302.996 156.849L348.12 162.158C348.484 160.911 349.636 160 351 160C352.657 160 354 161.343 354 163C354 164.657 352.657 166 351 166C349.394 166 348.082 164.738 348.004 163.151L302.88 157.842C302.516 159.089 301.364 160 300 160C298.656 160 297.518 159.116 297.137 157.898L251.999 164.093C251.949 165.707 250.626 167 249 167C247.415 167 246.118 165.771 246.008 164.215L199.897 159.781C199.554 161.059 198.387 162 197 162C195.597 162 194.418 161.036 194.091 159.734L149.989 163.263C149.856 164.796 148.568 166 147 166C145.453 166 144.18 164.829 144.017 163.326L98.9242 160.673C98.6187 162.006 97.4255 163 96 163C94.6153 163 93.4497 162.062 93.1041 160.786L47.9928 165.209C47.8855 166.768 46.5866 168 45 168C43.3431 168 42 166.657 42 165C42 163.343 43.3431 162 45 162C46.3848 162 47.5505 162.938 47.8959 164.214L93.0072 159.791C93.1144 158.232 94.4134 157 96 157C97.5469 157 98.8204 158.171 98.9826 159.675L144.076 162.327C144.381 160.994 145.574 160 147 160C148.404 160 149.582 160.964 149.91 162.266L194.011 158.738C194.144 157.204 195.432 156 197 156C198.585 156 199.882 157.229 199.992 158.786L246.103 163.219C246.446 161.941 247.613 161 249 161C250.344 161 251.482 161.884 251.863 163.102L297.001 156.907C297.051 155.293 298.374 154 300 154C301.606 154 302.918 155.262 302.996 156.849ZM147 264C148.362 264 149.512 263.092 149.878 261.849L194.003 267.144C194.078 268.734 195.391 270 197 270C198.585 270 199.882 268.771 199.992 267.215L246.103 262.781C246.446 264.059 247.613 265 249 265C250.426 265 251.619 264.006 251.924 262.673L297.017 265.325C297.18 266.829 298.453 268 300 268C301.567 268 302.853 266.799 302.988 265.267L348.089 261.73C348.415 263.034 349.595 264 351 264C352.657 264 354 262.657 354 261C354 259.343 352.657 258 351 258C349.433 258 348.147 259.201 348.012 260.733L302.911 264.27C302.585 262.966 301.405 262 300 262C298.574 262 297.381 262.994 297.076 264.327L251.983 261.675C251.82 260.171 250.547 259 249 259C247.415 259 246.118 260.229 246.008 261.785L199.897 266.219C199.554 264.941 198.387 264 197 264C195.638 264 194.488 264.908 194.122 266.151L149.997 260.856C149.921 259.266 148.609 258 147 258C145.374 258 144.051 259.293 144.001 260.907L98.8634 267.102C98.4818 265.884 97.3441 265 96 265C94.6152 265 93.4496 265.938 93.1041 267.214L47.9928 262.791C47.8855 261.232 46.5866 260 45 260C43.3431 260 42 261.343 42 263C42 264.657 43.3431 266 45 266C46.3848 266 47.5504 265.062 47.8959 263.786L93.0072 268.209C93.1144 269.768 94.4134 271 96 271C97.6257 271 98.9494 269.707 98.9986 268.093L144.137 261.898C144.518 263.116 145.656 264 147 264Z" fill="#A8A8A8"/>
</svg>
