<svg width="20" height="20" viewBox="0 0 20 20" fill="none" xmlns="http://www.w3.org/2000/svg">
<path fill-rule="evenodd" clip-rule="evenodd" d="M5 2.5C5 3.88071 3.88071 5 2.5 5C1.11929 5 0 3.88071 0 2.5C0 1.11929 1.11929 0 2.5 0C3.88071 0 5 1.11929 5 2.5ZM4 2.5C4 3.32843 3.32843 4 2.5 4C1.67157 4 1 3.32843 1 2.5C1 1.67157 1.67157 1 2.5 1C3.32843 1 4 1.67157 4 2.5Z" fill="black"/>
<path fill-rule="evenodd" clip-rule="evenodd" d="M5 12.5C5 13.8807 3.88071 15 2.5 15C1.11929 15 0 13.8807 0 12.5C0 11.1193 1.11929 10 2.5 10C3.20513 10 3.84207 10.2919 4.29657 10.7615L6.15631 9.37206C6.05524 9.10054 6 8.80672 6 8.5C6 7.11929 7.11929 6 8.5 6C9.70948 6 10.7184 6.85888 10.95 8H13.05C13.2816 6.85888 14.2905 6 15.5 6C15.6017 6 15.702 6.00607 15.8005 6.01788L16.2473 4.664C15.5016 4.23136 15 3.42425 15 2.5C15 1.11929 16.1193 0 17.5 0C18.8807 0 20 1.11929 20 2.5C20 3.88071 18.8807 5 17.5 5C17.3969 5 17.2953 4.99376 17.1956 4.98165L16.7493 6.33402C17.4969 6.76618 18 7.57434 18 8.5C18 9.56445 17.3347 10.4735 16.3973 10.8341L17.3211 14.0063C17.3802 14.0021 17.4398 14 17.5 14C18.8807 14 20 15.1193 20 16.5C20 17.8807 18.8807 19 17.5 19C16.1193 19 15 17.8807 15 16.5C15 15.5308 15.5516 14.6904 16.3579 14.2755L15.4036 10.9982C14.2372 10.9539 13.2755 10.1107 13.05 9H10.95C10.7512 9.97956 9.97956 10.7512 9 10.95V15.05C10.1411 15.2816 11 16.2905 11 17.5C11 18.8807 9.88071 20 8.5 20C7.11929 20 6 18.8807 6 17.5C6 16.2905 6.85888 15.2816 8 15.05V10.95C7.48891 10.8462 7.03443 10.5866 6.68838 10.2228L4.83577 11.6069C4.94187 11.8843 5 12.1854 5 12.5ZM4 12.5C4 13.3284 3.32843 14 2.5 14C1.67157 14 1 13.3284 1 12.5C1 11.6716 1.67157 11 2.5 11C3.32843 11 4 11.6716 4 12.5ZM8.5 10C9.32843 10 10 9.32843 10 8.5C10 7.67157 9.32843 7 8.5 7C7.67157 7 7 7.67157 7 8.5C7 9.32843 7.67157 10 8.5 10ZM10 17.5C10 18.3284 9.32843 19 8.5 19C7.67157 19 7 18.3284 7 17.5C7 16.6716 7.67157 16 8.5 16C9.32843 16 10 16.6716 10 17.5ZM17.5 18C18.3284 18 19 17.3284 19 16.5C19 15.6716 18.3284 15 17.5 15C16.6716 15 16 15.6716 16 16.5C16 17.3284 16.6716 18 17.5 18ZM17 8.5C17 9.32843 16.3284 10 15.5 10C14.6716 10 14 9.32843 14 8.5C14 7.67157 14.6716 7 15.5 7C16.3284 7 17 7.67157 17 8.5ZM17.5 4C18.3284 4 19 3.32843 19 2.5C19 1.67157 18.3284 1 17.5 1C16.6716 1 16 1.67157 16 2.5C16 3.32843 16.6716 4 17.5 4Z" fill="black"/>
<path d="M3 7V6H2V7H3Z" fill="black"/>
<path d="M3 8V9H2V8H3Z" fill="black"/>
<path d="M3 17V16H2V17H3Z" fill="black"/>
<path d="M2 18H3V19H2V18Z" fill="black"/>
</svg>
