<svg width="68" height="56" viewBox="0 0 68 56" fill="none" xmlns="http://www.w3.org/2000/svg">
<rect x="52.0869" y="10.2222" width="3.33333" height="44.087" transform="rotate(90 52.0869 10.2222)" fill="#444444"/>
<rect x="31.7393" y="14.1111" width="3.33333" height="23.7391" transform="rotate(90 31.7393 14.1111)" fill="#6A6A6A"/>
<rect x="37.3911" y="19.6667" width="3.33333" height="29.3913" transform="rotate(90 37.3911 19.6667)" fill="#444444"/>
<rect x="30.6089" y="29.1113" width="3.33333" height="22.6087" transform="rotate(90 30.6089 29.1113)" fill="#444444"/>
<rect x="26.6523" y="38.5554" width="3.33333" height="18.6522" transform="rotate(90 26.6523 38.5554)" fill="#444444"/>
<rect x="27.7827" y="23.5557" width="3.33333" height="19.7826" transform="rotate(90 27.7827 23.5557)" fill="#6A6A6A"/>
<rect x="23.8262" y="33" width="3.33333" height="15.8261" transform="rotate(90 23.8262 33)" fill="#6A6A6A"/>
<rect x="20.4346" y="42.4443" width="3.33333" height="12.4348" transform="rotate(90 20.4346 42.4443)" fill="#6A6A6A"/>
<path d="M8 8V48H60" stroke="#444444"/>
</svg>
