<svg width="68" height="56" viewBox="0 0 68 56" fill="none" xmlns="http://www.w3.org/2000/svg">
<path fill-rule="evenodd" clip-rule="evenodd" d="M34 47C38.9923 47 43.5349 45.0746 46.9257 41.9258L41.2621 36.2623C39.3247 37.9665 36.7831 39 34 39C27.9249 39 23 34.0751 23 28C23 22.262 27.3935 17.5501 33 17.0448V9.02586C22.9714 9.54588 15 17.842 15 28C15 38.4934 23.5066 47 34 47ZM52.9741 29C52.7465 33.3893 51.0293 37.3846 48.3183 40.4899L42.6387 34.8105C43.9236 33.1829 44.7584 31.1834 44.9552 29H52.9741ZM52.9741 27C52.4713 17.3026 44.6974 9.52871 35 9.02586V17.0448C40.2771 17.5204 44.4796 21.7229 44.9552 27H52.9741ZM43 28C43 32.9706 38.9706 37 34 37C29.0294 37 25 32.9706 25 28C25 23.0294 29.0294 19 34 19C38.9706 19 43 23.0294 43 28ZM34 49C45.598 49 55 39.598 55 28C55 16.402 45.598 7 34 7C22.402 7 13 16.402 13 28C13 39.598 22.402 49 34 49Z" fill="#6A6A6A"/>
</svg>
