<svg width="68" height="56" viewBox="0 0 68 56" fill="none" xmlns="http://www.w3.org/2000/svg">
<path fill-rule="evenodd" clip-rule="evenodd" d="M8 8H9V46.9998H60V47.9998H8V8Z" fill="#444444"/>
<path d="M38 13H30V16.6029C30.0703 16.5454 30.1404 16.4899 30.2103 16.4361C31.1949 15.6787 32.1062 15.3086 32.8183 15.136C33.1716 15.0504 33.4699 15.0147 33.6971 15.0023C33.8106 14.9961 33.9062 14.9957 33.9822 14.9976C34.0066 14.9983 34.0289 14.9992 34.0492 15.0002C35.5391 15.0082 36.8501 15.3806 38 16.0827V13Z" fill="#6A6A6A"/>
<path d="M21 28H24.1371C23.3244 30.5107 22.2381 32.7774 21 34.7983V28Z" fill="#6A6A6A"/>
<path d="M27.2759 28C25.8769 32.7818 23.5709 36.7882 21 40.0163V47H29V28H27.2759Z" fill="#6A6A6A"/>
<path d="M12 39H17.9507C15.9688 41.3304 13.8695 43.1652 12 44.4999V39Z" fill="#6A6A6A"/>
<path d="M20 41.2189C17.893 43.6469 15.6687 45.5744 13.6578 47H20V41.2189Z" fill="#6A6A6A"/>
<path d="M32.0394 18.814C31.4504 19.2671 30.7382 19.9958 30 21.1663V47H38V20.099C37.5664 19.5405 37.1196 19.1058 36.6507 18.7823C35.9276 18.2832 35.0836 18.0001 33.9998 18.0001H33.925L33.8911 17.9967C33.884 17.9968 33.874 17.9971 33.8612 17.9978C33.8032 18.001 33.6874 18.0122 33.5251 18.0516C33.2059 18.1289 32.6798 18.3214 32.0394 18.814Z" fill="#6A6A6A"/>
<path d="M39 47V21.6477C40.1928 23.8142 41.1743 26.762 42.3751 30.3686L42.733 31.4435C43.8817 34.8963 44.9346 38.0611 47 40.9331V47H39Z" fill="#6A6A6A"/>
<path d="M48 47V42.2052C49.462 43.9103 51.334 45.4853 53.8379 47H48Z" fill="#6A6A6A"/>
<path d="M49.5219 39.3005C50.913 41.1974 52.8725 42.9931 56 44.7926V35H48V36.7972C48.4408 37.6722 48.9353 38.5005 49.5219 39.3005Z" fill="#6A6A6A"/>
<path d="M45.5176 30.31C46.0329 31.8567 46.4969 33.2495 47 34.5323V21H42.0443C43.1906 23.313 44.1457 26.1853 45.1683 29.2608L45.1717 29.2708C45.2549 29.5212 45.3386 29.7728 45.4229 30.0257L45.5176 30.31Z" fill="#6A6A6A"/>
<path d="M31.4297 18.0213C29.9193 19.1832 27.9645 21.6966 26.4823 27.1316C23.7252 37.2407 16.7763 43.8785 11.8677 47H9.89746C14.5657 44.4885 22.5498 37.7502 25.5175 26.8684C27.0352 21.3034 29.0805 18.5668 30.82 17.2287C31.6899 16.5596 32.4729 16.2487 33.054 16.1079C33.3436 16.0377 33.5811 16.0102 33.7518 16.0008C33.8372 15.9961 33.9059 15.996 33.9561 15.9973C33.9812 15.998 34.0017 15.999 34.0173 16L34.0188 16.0001C35.4826 16.0035 36.7201 16.4 37.7868 17.1362C38.8501 17.8701 39.7197 18.9245 40.4793 20.2054C41.8977 22.5972 42.9931 25.89 44.2345 29.6217L44.5929 30.698C45.7936 34.3035 46.772 37.2414 48.7156 39.8918C50.5656 42.4145 53.316 44.7063 58.0459 47H55.8519C52.054 44.9434 49.6299 42.8296 47.9092 40.4832C45.8708 37.7036 44.8474 34.6289 43.6645 31.0753L43.3033 29.9906C42.0434 26.2051 40.9804 23.0108 39.6191 20.7155C38.904 19.5096 38.1238 18.5839 37.2188 17.9592C36.3216 17.34 35.2778 17.0001 33.9999 17.0001L33.975 17.0001L33.9542 16.998C33.9508 16.9978 33.9422 16.9973 33.9299 16.997C33.9054 16.9963 33.8638 16.9962 33.8065 16.9993C33.6922 17.0056 33.5155 17.0249 33.2896 17.0797C32.8394 17.1888 32.1849 17.4405 31.4297 18.0213Z" fill="#6A6A6A"/>
</svg>
