<svg width="68" height="56" viewBox="0 0 68 56" fill="none" xmlns="http://www.w3.org/2000/svg">
<rect x="11.3911" y="32.4441" width="3.3913" height="15.5555" fill="#444444"/>
<rect x="11.3911" y="21.333" width="3.3913" height="11.1111" fill="#6A6A6A"/>
<rect x="18.1738" y="35.6851" width="3.3913" height="12.3148" fill="#444444"/>
<rect x="18.1738" y="26.8887" width="3.3913" height="8.79626" fill="#6A6A6A"/>
<rect x="24.9565" y="38.6016" width="3.3913" height="9.39811" fill="#444444"/>
<rect x="24.9565" y="31.8884" width="3.3913" height="6.71294" fill="#6A6A6A"/>
<rect x="31.7388" y="40.8701" width="3.3913" height="7.1296" fill="#444444"/>
<rect x="31.7388" y="35.7776" width="3.3913" height="5.09257" fill="#6A6A6A"/>
<rect x="38.5215" y="38.6016" width="3.3913" height="9.39811" fill="#444444"/>
<rect x="38.5215" y="31.8884" width="3.3913" height="6.71294" fill="#6A6A6A"/>
<rect x="45.3042" y="39.8979" width="3.3913" height="8.10182" fill="#444444"/>
<rect x="45.3042" y="34.1111" width="3.3913" height="5.78701" fill="#6A6A6A"/>
<rect x="52.0869" y="40.2222" width="3.3913" height="7.77775" fill="#444444"/>
<rect x="52.0869" y="34.6667" width="3.3913" height="5.55553" fill="#6A6A6A"/>
<path d="M8 8V47.9998H60" stroke="#444444"/>
</svg>
