<svg width="68" height="56" viewBox="0 0 68 56" fill="none" xmlns="http://www.w3.org/2000/svg">
<rect x="11.3911" y="31.0303" width="3.3913" height="16.9696" fill="#444444"/>
<rect x="11.3911" y="8" width="3.3913" height="23.6362" fill="#6A6A6A"/>
<rect x="18.1738" y="24.6665" width="3.3913" height="23.3332" fill="#444444"/>
<rect x="18.1738" y="8" width="3.3913" height="16.6666" fill="#6A6A6A"/>
<rect x="24.9565" y="34.6667" width="3.3913" height="13.3333" fill="#444444"/>
<rect x="24.9565" y="8" width="3.3913" height="26.6665" fill="#6A6A6A"/>
<rect x="31.7388" y="21.3333" width="3.3913" height="26.6665" fill="#444444"/>
<rect x="31.7388" y="8" width="3.3913" height="14.5454" fill="#6A6A6A"/>
<rect x="38.5215" y="21.3333" width="3.3913" height="26.6665" fill="#444444"/>
<rect x="38.5215" y="8" width="3.3913" height="13.3333" fill="#6A6A6A"/>
<rect x="45.3042" y="24.6665" width="3.3913" height="23.3332" fill="#444444"/>
<rect x="45.3042" y="8" width="3.3913" height="16.6666" fill="#6A6A6A"/>
<rect x="52.0869" y="28" width="3.3913" height="19.9999" fill="#444444"/>
<rect x="52.0869" y="8" width="3.3913" height="19.9999" fill="#6A6A6A"/>
<path d="M8 8V47.9998H60" stroke="#444444"/>
</svg>
