<svg width="68" height="56" viewBox="0 0 68 56" fill="none" xmlns="http://www.w3.org/2000/svg">
<rect x="32.0688" y="9.66675" width="3.33333" height="24.0688" transform="rotate(90 32.0688 9.66675)" fill="#444444"/>
<rect x="49.2607" y="9.66675" width="3.33333" height="17.192" transform="rotate(90 49.2607 9.66675)" fill="#6A6A6A"/>
<rect x="27.0547" y="16.3333" width="3.33333" height="19.0545" transform="rotate(90 27.0547 16.3333)" fill="#444444"/>
<rect x="40.665" y="16.3333" width="3.33333" height="13.6104" transform="rotate(90 40.665 16.3333)" fill="#6A6A6A"/>
<rect x="27.0547" y="42.9998" width="3.33333" height="19.0545" transform="rotate(90 27.0547 42.9998)" fill="#444444"/>
<rect x="40.665" y="42.9998" width="3.33333" height="13.6104" transform="rotate(90 40.665 42.9998)" fill="#6A6A6A"/>
<rect x="22.542" y="22.9998" width="3.33333" height="14.5416" transform="rotate(90 22.542 22.9998)" fill="#444444"/>
<rect x="32.9287" y="22.9998" width="3.33333" height="10.3868" transform="rotate(90 32.9287 22.9998)" fill="#6A6A6A"/>
<rect x="19.0322" y="29.6665" width="3.33333" height="11.0316" transform="rotate(90 19.0322 29.6665)" fill="#444444"/>
<rect x="26.9116" y="29.6665" width="3.33333" height="7.87968" transform="rotate(90 26.9116 29.6665)" fill="#6A6A6A"/>
<rect x="22.542" y="36.3333" width="3.33333" height="14.5416" transform="rotate(90 22.542 36.3333)" fill="#444444"/>
<rect x="32.9287" y="36.3333" width="3.33333" height="10.3868" transform="rotate(90 32.9287 36.3333)" fill="#6A6A6A"/>
<path d="M8 8V48H60" stroke="#444444"/>
</svg>
