<svg width="68" height="56" viewBox="0 0 68 56" fill="none" xmlns="http://www.w3.org/2000/svg">
<rect x="29.5811" y="9.6665" width="3.33333" height="21.581" transform="rotate(90 29.5811 9.6665)" fill="#444444"/>
<rect x="60" y="9.6665" width="3.33333" height="31.087" transform="rotate(90 60 9.6665)" fill="#6A6A6A"/>
<rect x="37.6738" y="16.3333" width="3.33333" height="29.6739" transform="rotate(90 37.6738 16.3333)" fill="#444444"/>
<rect x="60" y="16.3333" width="3.33333" height="22.6087" transform="rotate(90 60 16.3333)" fill="#6A6A6A"/>
<rect x="37.6738" y="42.9998" width="3.33333" height="29.6739" transform="rotate(90 37.6738 42.9998)" fill="#444444"/>
<rect x="60" y="42.9998" width="3.33333" height="22.6087" transform="rotate(90 60 42.9998)" fill="#6A6A6A"/>
<rect x="24.9565" y="23" width="3.33333" height="16.9565" transform="rotate(90 24.9565 23)" fill="#444444"/>
<rect x="60" y="23" width="3.33333" height="35.0435" transform="rotate(90 60 23)" fill="#6A6A6A"/>
<rect x="41.9136" y="29.6665" width="3.33333" height="33.913" transform="rotate(90 41.9136 29.6665)" fill="#444444"/>
<rect x="60" y="29.6665" width="3.33333" height="19.7826" transform="rotate(90 60 29.6665)" fill="#6A6A6A"/>
<rect x="41.9136" y="36.3333" width="3.33333" height="33.913" transform="rotate(90 41.9136 36.3333)" fill="#444444"/>
<rect x="60" y="36.3333" width="3.33333" height="18.087" transform="rotate(90 60 36.3333)" fill="#6A6A6A"/>
<path d="M8 8V48H60" stroke="#444444"/>
</svg>
