<svg version="1.1" id="Layer_1" xmlns="http://www.w3.org/2000/svg" xmlns:xlink="http://www.w3.org/1999/xlink" x="0px" y="0px"
	 width="100%" viewBox="0 0 50 50" enable-background="new 0 0 50 50" xml:space="preserve">
<path fill="#FFFFFF" opacity="1.000000" stroke="none" 
	d="
M25.000000,51.000000 
	C18.645601,51.000000 12.291203,51.000000 5.759250,50.682495 
	C4.054464,49.576656 2.527232,48.788326 1.000000,48.000000 
	C1.000000,46.933331 1.000000,45.866661 1.369451,44.701942 
	C2.492610,40.526947 3.370245,36.468239 3.973429,32.369148 
	C5.119618,24.579918 6.108776,16.767584 7.133705,9.182747 
	C9.386847,9.182747 11.003503,9.182747 12.986233,9.182747 
	C12.986233,11.436641 12.986233,13.517048 12.986233,16.143036 
	C16.214825,16.143036 19.087381,16.143036 22.310141,16.143036 
	C22.310141,19.116898 22.310141,21.527206 22.310141,23.663586 
	C25.101864,23.663586 27.511908,23.663586 30.283060,23.663586 
	C30.283060,20.912931 30.283060,18.503864 30.283060,15.741833 
	C33.413227,15.741833 36.162369,15.741833 38.878262,15.741833 
	C38.994270,13.276566 39.092457,11.189977 39.198395,8.938612 
	C41.369171,9.043445 43.109886,9.127508 44.476807,9.193521 
	C46.208038,22.733465 47.881187,35.819168 49.487858,48.384945 
	C44.443707,47.907734 39.582966,46.781471 34.871487,47.228477 
	C31.542280,47.544338 27.247650,47.116467 25.000000,51.000000 
z"/>
<path fill="#000000" opacity="0.000000" stroke="none" 
	d="
M25.468666,51.000000 
	C27.247650,47.116467 31.542280,47.544338 34.871487,47.228477 
	C39.582966,46.781471 44.443707,47.907734 49.487858,48.384945 
	C47.881187,35.819168 46.208038,22.733465 44.476807,9.193521 
	C43.109886,9.127508 41.369171,9.043445 39.198395,8.938612 
	C39.092457,11.189977 38.994270,13.276566 38.878262,15.741833 
	C36.162369,15.741833 33.413227,15.741833 30.283060,15.741833 
	C30.283060,18.503864 30.283060,20.912931 30.283060,23.663586 
	C27.511908,23.663586 25.101864,23.663586 22.310141,23.663586 
	C22.310141,21.527206 22.310141,19.116898 22.310141,16.143036 
	C19.087381,16.143036 16.214825,16.143036 12.986233,16.143036 
	C12.986233,13.517048 12.986233,11.436641 12.986233,9.182747 
	C11.003503,9.182747 9.386847,9.182747 7.133705,9.182747 
	C6.108776,16.767584 5.119618,24.579918 3.973429,32.369148 
	C3.370245,36.468239 2.492610,40.526947 1.369451,44.301945 
	C1.000000,29.763906 1.000000,15.527812 1.000000,1.000000 
	C8.018128,1.000000 15.040282,1.000000 22.531218,1.454961 
	C23.000000,4.174545 23.000000,6.439169 23.000000,9.066864 
	C19.795324,9.066864 17.049809,9.066864 14.205305,9.066864 
	C14.205305,11.176445 14.205305,12.910929 14.205305,15.018006 
	C17.144978,15.018006 19.888403,15.018006 22.993954,15.018006 
	C22.993954,17.793259 22.993954,20.203041 22.993954,22.648651 
	C25.226839,22.648651 27.073599,22.648651 29.292559,22.648651 
	C29.292559,19.888765 29.292559,17.486229 29.292559,14.739731 
	C32.424805,14.739731 35.173008,14.739731 38.070324,14.739731 
	C37.961746,12.621906 37.872555,10.882238 37.765610,8.796280 
	C34.630501,8.796280 31.885925,8.796280 29.000000,8.796280 
	C29.000000,5.949946 29.000000,3.474973 29.000000,1.000000 
	C36.300442,1.000000 43.600880,1.000000 50.950661,1.000000 
	C50.950661,17.558903 50.950661,34.117973 50.950661,51.000000 
	C42.648552,51.000000 34.292942,51.000000 25.468666,51.000000 
z"/>
<path fill="#FFFFFF" opacity="1.000000" stroke="none" 
	d="
M28.571537,1.000000 
	C29.000000,3.474973 29.000000,5.949946 29.000000,8.796280 
	C31.885925,8.796280 34.630501,8.796280 37.765610,8.796280 
	C37.872555,10.882238 37.961746,12.621906 38.070324,14.739731 
	C35.173008,14.739731 32.424805,14.739731 29.292559,14.739731 
	C29.292559,17.486229 29.292559,19.888765 29.292559,22.648651 
	C27.073599,22.648651 25.226839,22.648651 22.993954,22.648651 
	C22.993954,20.203041 22.993954,17.793259 22.993954,15.018006 
	C19.888403,15.018006 17.144978,15.018006 14.205305,15.018006 
	C14.205305,12.910929 14.205305,11.176445 14.205305,9.066864 
	C17.049809,9.066864 19.795324,9.066864 23.000000,9.066864 
	C23.000000,6.439169 23.000000,4.174545 23.000000,1.454961 
	C24.714357,1.000000 26.428717,1.000000 28.571537,1.000000 
z"/>
<path fill="#000000" opacity="1.000000" stroke="none" 
	d="
M1.000000,48.500000 
	C2.527232,48.788326 4.054464,49.576656 5.290848,50.682495 
	C3.748004,50.170658 0.685187,52.962959 1.000000,48.500000 
z"/>
</svg>