<svg width="16" height="16" viewBox="0 0 16 16" fill="none" xmlns="http://www.w3.org/2000/svg">
<path d="M7.8254 1L11.6508 4.27891L11 5.03817L8.3252 2.71264V8.65845H7.3252V2.71296L4.65079 5.03817L4 4.27891L7.8254 1Z" fill="black"/>
<path fill-rule="evenodd" clip-rule="evenodd" d="M10.3252 12.1584C10.3252 13.5392 9.20591 14.6584 7.8252 14.6584C6.44448 14.6584 5.3252 13.5392 5.3252 12.1584C5.3252 10.7777 6.44448 9.65845 7.8252 9.65845C9.20591 9.65845 10.3252 10.7777 10.3252 12.1584ZM9.3252 12.1584C9.3252 12.9869 8.65362 13.6584 7.8252 13.6584C6.99677 13.6584 6.3252 12.9869 6.3252 12.1584C6.3252 11.33 6.99677 10.6584 7.8252 10.6584C8.65362 10.6584 9.3252 11.33 9.3252 12.1584Z" fill="black"/>
</svg>
