<svg width="16" height="16" viewBox="0 0 16 16" fill="none" xmlns="http://www.w3.org/2000/svg">
<path fill-rule="evenodd" clip-rule="evenodd" d="M5.32568 12.1584C5.32568 10.7777 6.44497 9.65845 7.82568 9.65845C9.2064 9.65845 10.3257 10.7777 10.3257 12.1584C10.3257 13.5392 9.2064 14.6584 7.82568 14.6584C6.44497 14.6584 5.32568 13.5392 5.32568 12.1584ZM6.32568 12.1584C6.32568 11.33 6.99726 10.6584 7.82568 10.6584C8.65411 10.6584 9.32568 11.33 9.32568 12.1584C9.32568 12.9869 8.65411 13.6584 7.82568 13.6584C6.99726 13.6584 6.32568 12.9869 6.32568 12.1584Z" fill="black"/>
<path d="M7.82548 8.65845L4.00009 5.37954L4.65088 4.62028L7.32568 6.9458L7.32568 1L8.32568 1L8.32568 6.94549L11.0001 4.62028L11.6509 5.37954L7.82548 8.65845Z" fill="black"/>
</svg>
