<svg width="104" height="70" viewBox="0 0 104 70" fill="none" xmlns="http://www.w3.org/2000/svg">
<path fill-rule="evenodd" clip-rule="evenodd" d="M88 22C88 20.8954 88.8954 20 90 20H94C95.1046 20 96 20.8954 96 22C96 23.1046 95.1046 24 94 24H90C88.8954 24 88 23.1046 88 22ZM8 21H22V23H8V21ZM94 46C92.8954 46 92 46.8954 92 48C92 49.1046 92.8954 50 94 50C95.1046 50 96 49.1046 96 48C96 46.8954 95.1046 46 94 46ZM45 46C43.8954 46 43 46.8954 43 48C43 49.1046 43.8954 50 45 50C46.1046 50 47 49.1046 47 48C47 46.8954 46.1046 46 45 46ZM49 48C49 46.8954 49.8954 46 51 46C52.1046 46 53 46.8954 53 48C53 49.1046 52.1046 50 51 50C49.8954 50 49 49.1046 49 48ZM55 48C55 46.8954 55.8954 46 57 46C58.1046 46 59 46.8954 59 48C59 49.1046 58.1046 50 57 50C55.8954 50 55 49.1046 55 48ZM10 46C8.89543 46 8 46.8954 8 48C8 49.1046 8.89543 50 10 50C11.1046 50 12 49.1046 12 48C12 46.8954 11.1046 46 10 46ZM9 30H10V34H9V30ZM23 32H24V34H23V32ZM38 30H37V34H38V30ZM51 32H52V34H51V32ZM66 30H65V34H66V30ZM79 32H80V34H79V32ZM94 30H93V34H94V30ZM10.5 36H93.5C94.8807 36 96 37.1193 96 38.5C96 39.8807 94.8807 41 93.5 41H10.5C9.11929 41 8 39.8807 8 38.5C8 37.1193 9.11929 36 10.5 36ZM10.5 37C9.67157 37 9 37.6716 9 38.5C9 39.3284 9.67157 40 10.5 40H22.4983C21.6699 40 20.9983 39.3284 20.9983 38.5C20.9983 37.6716 21.6699 37 22.4983 37H10.5ZM93.5 40H31.4969C32.3253 40 32.9969 39.3284 32.9969 38.5C32.9969 37.6716 32.3253 37 31.4969 37H93.5C94.3284 37 95 37.6716 95 38.5C95 39.3284 94.3284 40 93.5 40Z" fill="#6A6A6A"/>
</svg>
