<svg width="104" height="70" viewBox="0 0 104 70" fill="none" xmlns="http://www.w3.org/2000/svg">
<path fill-rule="evenodd" clip-rule="evenodd" d="M82 20C80.8954 20 80 20.8954 80 22C80 23.1046 80.8954 24 82 24H87C88.1046 24 89 23.1046 89 22C89 20.8954 88.1046 20 87 20H82ZM18 27H86C87.6569 27 89 28.3431 89 30V46C89 47.6569 87.6569 49 86 49H83V46H82V49H73V41H72V49H63V46H62V49H53V41H52V49H43V48H42V49H33V41H32V49H23V46H22V49H18C16.3431 49 15 47.6569 15 46V30C15 28.3431 16.3431 27 18 27ZM14 30C14 27.7909 15.7909 26 18 26H86C88.2091 26 90 27.7909 90 30V46C90 48.2091 88.2091 50 86 50H18C15.7909 50 14 48.2091 14 46V30ZM34 32C34 30.3431 35.3431 29 37 29H42C43.6569 29 45 30.3431 45 32V44C45 45.6569 43.6569 47 42 47H37C35.3431 47 34 45.6569 34 44V32ZM8 34C8 32.8954 8.89543 32 10 32C11.1046 32 12 32.8954 12 34C12 35.1046 11.1046 36 10 36C8.89543 36 8 35.1046 8 34ZM8 42C8 40.8954 8.89543 40 10 40C11.1046 40 12 40.8954 12 42C12 43.1046 11.1046 44 10 44C8.89543 44 8 43.1046 8 42ZM94 32C92.8954 32 92 32.8954 92 34C92 35.1046 92.8954 36 94 36C95.1046 36 96 35.1046 96 34C96 32.8954 95.1046 32 94 32ZM94 40C92.8954 40 92 40.8954 92 42C92 43.1046 92.8954 44 94 44C95.1046 44 96 43.1046 96 42C96 40.8954 95.1046 40 94 40ZM14 22C14 20.8954 14.8954 20 16 20C17.1046 20 18 20.8954 18 22C18 23.1046 17.1046 24 16 24C14.8954 24 14 23.1046 14 22ZM60 21H46V23H60V21Z" fill="#6A6A6A"/>
</svg>
