<svg width="16" height="17" viewBox="0 0 16 17" fill="none" xmlns="http://www.w3.org/2000/svg">
<g clip-path="url(#clip0_34_599)">
<path d="M12.153 6.054L11.446 5.347L13.646 3.147L14.354 3.854L12.153 6.054ZM2.646 14.146L3.353 14.853L5.553 12.653L4.847 11.946L2.646 14.146ZM11.446 12.653L13.646 14.853L14.353 14.147L12.153 11.947L11.446 12.653ZM5.554 5.347L3.354 3.147L2.647 3.853L4.847 6.053L5.554 5.347ZM9 1.5H8V4.5H9V1.5ZM8 16.5H9V13.5H8V16.5ZM16 9.5V8.5H13V9.5H16ZM1 9.5H4V8.5H1V9.5ZM5 9C5 8.30777 5.20527 7.63108 5.58986 7.0555C5.97444 6.47993 6.52107 6.03133 7.16061 5.76642C7.80015 5.50151 8.50388 5.4322 9.18282 5.56725C9.86175 5.7023 10.4854 6.03564 10.9749 6.52513C11.4644 7.01461 11.7977 7.63825 11.9327 8.31718C12.0678 8.99612 11.9985 9.69985 11.7336 10.3394C11.4687 10.9789 11.0201 11.5256 10.4445 11.9101C9.86892 12.2947 9.19223 12.5 8.5 12.5C7.57174 12.5 6.6815 12.1313 6.02513 11.4749C5.36875 10.8185 5 9.92826 5 9ZM6 9C6 9.49445 6.14662 9.9778 6.42133 10.3889C6.69603 10.8 7.08648 11.1205 7.54329 11.3097C8.00011 11.4989 8.50277 11.5484 8.98773 11.452C9.47268 11.3555 9.91814 11.1174 10.2678 10.7678C10.6174 10.4181 10.8555 9.97268 10.952 9.48773C11.0484 9.00277 10.9989 8.50011 10.8097 8.04329C10.6205 7.58648 10.3 7.19603 9.88893 6.92133C9.4778 6.64662 8.99445 6.5 8.5 6.5C7.8372 6.50079 7.20178 6.76444 6.73311 7.23311C6.26444 7.70178 6.00079 8.3372 6 9Z" fill="black"/>
</g>
<defs>
<clipPath id="clip0_34_599">
<rect width="16" height="16" fill="white" transform="translate(0 0.5)"/>
</clipPath>
</defs>
</svg>
