<svg width="16" height="16" viewBox="0 0 16 16" fill="none" xmlns="http://www.w3.org/2000/svg">
<g clip-path="url(#clip0_4650_6585)">
<path d="M8 4C8.55229 4 9 3.55228 9 3C9 2.44772 8.55229 2 8 2C7.44772 2 7 2.44772 7 3C7 3.55228 7.44772 4 8 4Z" fill="black"/>
<path fill-rule="evenodd" clip-rule="evenodd" d="M11.002 7.00206L8.00202 10.0021L5.00202 7.00206V3.00106C4.98715 2.60314 5.05458 2.20644 5.20009 1.83579C5.34561 1.46514 5.56607 1.12852 5.84768 0.846999C6.12929 0.565482 6.46599 0.34513 6.83669 0.19974C7.20739 0.054349 7.60411 -0.0129503 8.00202 0.00205496C8.39993 -0.0129503 8.79665 0.054349 9.16735 0.19974C9.53805 0.34513 9.87475 0.565482 10.1564 0.846999C10.438 1.12852 10.6584 1.46514 10.8039 1.83579C10.9495 2.20644 11.0169 2.60314 11.002 3.00106V7.00206ZM8.00202 1.00277L7.96434 1.00134C7.70397 0.991526 7.44438 1.03556 7.20181 1.1307C6.95925 1.22583 6.73894 1.37002 6.55467 1.55422C6.3704 1.73843 6.22614 1.9587 6.13093 2.20123C6.03571 2.44376 5.99159 2.70333 6.00132 2.9637L6.00202 2.98237V6.58784L8.00202 8.58784L10.002 6.58784V2.98237L10.0027 2.9637C10.0124 2.70333 9.96832 2.44376 9.87311 2.20123C9.77789 1.95869 9.63364 1.73843 9.44937 1.55422C9.2651 1.37002 9.04479 1.22583 8.80222 1.1307C8.55966 1.03556 8.30007 0.991526 8.0397 1.00134L8.00202 1.00277Z" fill="black"/>
<path d="M4.07187 1.90776C3.41417 1.82591 2.76488 1.68121 2.133 1.47511L0 13.0771C1.19948 13.5808 2.49252 13.8232 3.793 13.7881C4.88016 13.7928 5.96166 13.6313 7 13.3091V14.9871H2V15.9871H13V14.9871H8V12.9871C9.34236 12.468 10.7678 12.197 12.207 12.1871C13.5527 12.1566 14.8758 12.5368 16 13.2771L13.867 1.67411C13.153 1.36519 12.4002 1.16003 11.6313 1.06348C11.6679 1.13587 11.702 1.20948 11.7334 1.28421C11.848 1.5568 11.9263 1.84072 11.967 2.12959C12.3089 2.19516 12.6461 2.28549 12.976 2.40011L14.696 11.5631C13.8902 11.3122 13.0509 11.1854 12.207 11.1871C10.6592 11.1949 9.12568 11.4836 7.681 12.0391L7.077 12.2431L6.714 12.3511C5.76837 12.645 4.78324 12.7921 3.793 12.7871C2.89098 12.7928 1.9927 12.6706 1.125 12.4241L2.935 2.72711C3.28808 2.80396 3.64439 2.86388 4.00269 2.90675V2.73402C3.99157 2.45631 4.01497 2.17907 4.07187 1.90776Z" fill="black"/>
</g>
<defs>
<clipPath id="clip0_4650_6585">
<rect width="16" height="16" fill="white"/>
</clipPath>
</defs>
</svg>
