<svg width="16" height="17" viewBox="0 0 16 17" fill="none" xmlns="http://www.w3.org/2000/svg">
<g clip-path="url(#clip0_34_602)">
<path d="M8 6.50001H9V7.50001H8V6.50001ZM8 9.50001H9V8.50001H8V9.50001ZM8 11.5H9V10.5H8V11.5ZM8 13.5H9V12.5H8V13.5ZM16 15.5V16.5H0V15.5H6V8.50001H5V7.50001H6V5.07201L11 1.50201V15.5H16ZM10 15.5V3.44401L7 5.58701V15.5H10ZM4 10.895V10.053C3.35761 10.0874 2.71879 9.93727 2.1589 9.62047C1.599 9.30367 1.14138 8.83336 0.84 8.26501C1.28754 7.66469 1.92227 7.23051 2.644 7.03101C2.43897 7.35183 2.32714 7.72332 2.321 8.10401C2.32113 8.3078 2.36372 8.50931 2.44605 8.69572C2.52838 8.88213 2.64864 9.04935 2.79917 9.18671C2.9497 9.32407 3.12719 9.42856 3.32034 9.49352C3.51349 9.55848 3.71806 9.58249 3.921 9.56401C3.948 9.56401 3.974 9.55901 4.001 9.55801V6.10801C3.961 6.10801 3.921 6.10001 3.881 6.10001C3.15542 6.12113 2.44203 6.29191 1.78555 6.60166C1.12906 6.9114 0.543648 7.35342 0.066 7.90001C0.0298021 7.953 0.0078453 8.0144 0.00224109 8.07833C-0.00336313 8.14225 0.00757376 8.20654 0.034 8.26501C0.311127 9.08028 0.850731 9.78067 1.56836 10.2566C2.28599 10.7324 3.14115 10.957 4 10.895ZM13 7.50001H12V8.50001H13V7.50001ZM13.354 5.21201L12.647 5.91901L14.227 7.50001H14V8.50001H14.27L12.647 10.123L13.354 10.83L16 8.18401V7.85901L13.354 5.21201Z" fill="black"/>
</g>
<defs>
<clipPath id="clip0_34_602">
<rect width="16" height="16" fill="white" transform="translate(0 0.5)"/>
</clipPath>
</defs>
</svg>
