<svg width="16" height="16" viewBox="0 0 16 16" fill="none" xmlns="http://www.w3.org/2000/svg">
<path fill-rule="evenodd" clip-rule="evenodd" d="M7 13V15H2V16H13V15H8V13H16L14 1H2L0 13H7ZM2.84714 2L1.18045 12H4.8772C4.81284 11.8252 4.77972 11.6396 4.78009 11.4512C4.78061 11.1797 4.85083 10.9131 4.98401 10.6768C4.70404 10.5947 4.45767 10.4248 4.2807 10.1934C4.20163 10.0898 4.13828 9.97559 4.09189 9.85547C4.03442 9.70703 4.00299 9.54785 4 9.38672C4 9.22168 4.02985 9.08398 4.07047 8.96289C4.10187 8.86914 4.13974 8.78516 4.17523 8.70605C4.22958 8.58594 4.27838 8.47754 4.29001 8.36523C4.319 8.08398 4.20599 8.04492 4.20599 7.79102C4.19986 7.3623 4.36383 6.94922 4.66205 6.64062C4.96027 6.33301 5.36838 6.15527 5.797 6.14844C6.00089 6.14453 6.20306 6.18555 6.39026 6.26562C6.57745 6.34668 6.74539 6.4668 6.883 6.61719C6.96225 6.30957 7.14066 6.03613 7.39062 5.83984C7.64056 5.64355 7.94821 5.53516 8.26599 5.53125C8.36261 5.53125 8.45862 5.54102 8.55267 5.55957C8.6088 5.57129 8.66422 5.58594 8.71863 5.60352C8.79462 5.62891 8.86865 5.66016 8.94 5.69727C9.02036 5.56055 9.11642 5.43457 9.22589 5.32227C9.26672 5.28027 9.30942 5.24023 9.35385 5.20215C9.39914 5.16309 9.44626 5.12598 9.49503 5.09082L9.58899 5.02734C9.57605 4.8877 9.55399 4.74902 9.52301 4.61328C9.49146 4.41895 9.50381 4.21973 9.5592 4.03125C9.61459 3.84277 9.71155 3.66797 9.84299 3.52246L9.91061 3.44531C9.97397 3.37695 10.0428 3.31445 10.1163 3.25781C10.1983 3.19434 10.2863 3.13867 10.379 3.0918C10.3795 3.02441 10.3849 2.95703 10.3949 2.89062C10.4073 2.80957 10.4267 2.72852 10.453 2.65039C10.5393 2.4043 10.6841 2.18359 10.875 2.00684L10.8722 2H2.84714ZM6.30728 12H9.78561L9.84793 11.9648C10.0714 11.8398 10.295 11.7139 10.295 11.4238C10.295 11.25 10.111 11.1846 10.111 11.0137C10.111 10.8008 10.2378 10.6729 10.3644 10.5459C10.4277 10.4824 10.4909 10.4189 10.5383 10.3447C10.5855 10.2705 10.617 10.1855 10.617 10.0801V9.57812C10.617 9.55176 10.6216 9.52832 10.6301 9.50586C10.6357 9.49121 10.643 9.47656 10.6517 9.46289C10.7274 9.34668 10.9124 9.28516 11.062 9.28516C11.1715 9.28516 11.2665 9.3291 11.3615 9.37305C11.4565 9.41699 11.5515 9.46191 11.661 9.46191C11.9026 9.46191 12.0329 9.29199 12.1631 9.12305C12.2932 8.9541 12.4231 8.78516 12.664 8.78516C12.7734 8.78516 12.849 8.83691 12.9086 8.91406C12.9655 8.98828 13.0079 9.08691 13.0514 9.18848C13.1118 9.3291 13.1743 9.47461 13.281 9.56738C13.3748 9.66309 13.4804 9.74414 13.5948 9.81055C13.775 9.91406 13.9767 9.97949 14.187 10H14.4862L13.1529 2H11.9778C11.9891 2.04102 11.996 2.08496 11.996 2.13281C11.996 2.21777 11.9742 2.28906 11.9388 2.35156C11.9206 2.38379 11.8987 2.41406 11.8745 2.44336C11.8492 2.47363 11.8213 2.50195 11.792 2.5293C11.7584 2.56055 11.723 2.59082 11.6876 2.62109C11.6178 2.68066 11.5481 2.74023 11.4926 2.80859C11.4532 2.85645 11.4211 2.90918 11.401 2.96875L11.3927 2.99707L11.3847 3.03516C11.3806 3.06055 11.3787 3.08594 11.379 3.11133C11.379 3.14062 11.3824 3.17285 11.3875 3.20801L11.4036 3.30078L11.4086 3.32715C11.4248 3.41309 11.4421 3.50293 11.4442 3.58789C11.4454 3.63281 11.4423 3.67578 11.4326 3.71582C11.398 3.85742 11.2791 3.95605 10.967 3.93359C10.9208 3.93066 10.8641 3.95117 10.8063 3.98633C10.6469 4.08496 10.4795 4.29688 10.503 4.4209L10.514 4.47461C10.5955 4.87207 10.7333 5.54395 10.143 5.86133C9.92221 5.98145 9.80219 6.19434 9.68881 6.39551C9.54388 6.65332 9.40979 6.89062 9.09 6.89062C8.91586 6.89062 8.79657 6.80078 8.67737 6.71094C8.55835 6.62109 8.43939 6.53125 8.26599 6.53125C8.24139 6.5332 8.21713 6.53711 8.19339 6.54199C8.1546 6.55078 8.11725 6.56445 8.08215 6.58301C8.03226 6.6084 7.98697 6.64355 7.94876 6.68652C7.86722 6.77734 7.82428 6.89648 7.82901 7.01855C7.82901 7.38574 7.521 7.99609 7.03101 7.99609C6.90952 8.00879 6.78693 7.98633 6.67764 7.93164C6.56836 7.87695 6.4769 7.79297 6.414 7.68848L6.40704 7.67676C6.32907 7.53613 6.25366 7.40039 6.15536 7.30176C6.0629 7.20898 5.95016 7.14844 5.79599 7.14844C5.63266 7.15527 5.47894 7.22754 5.36841 7.34766C5.25787 7.46875 5.19949 7.62793 5.20599 7.79102C5.20599 7.86621 5.21527 7.93164 5.22821 7.99316C5.23676 8.03418 5.24689 8.07324 5.25702 8.1123C5.28253 8.21094 5.30801 8.30859 5.30801 8.43359C5.30801 8.62695 5.2309 8.76855 5.15384 8.91016C5.0769 9.05176 5 9.19336 5 9.38574C5.01163 9.49121 5.06378 9.58789 5.14539 9.6543C5.22699 9.72168 5.33163 9.75488 5.43701 9.74609C5.52484 9.74609 5.59653 9.73438 5.66006 9.71777C5.71753 9.70215 5.76828 9.68262 5.81824 9.66309C5.93573 9.61719 6.04883 9.57324 6.23401 9.5918C6.3421 9.60254 6.41888 9.66895 6.47137 9.75391C6.50958 9.81543 6.53488 9.8877 6.54999 9.95508C6.55688 9.98535 6.56165 10.0156 6.56454 10.043L6.56799 10.1055C6.56799 10.3799 6.37213 10.5752 6.17627 10.7705C6.03503 10.9121 5.8938 11.0537 5.82605 11.2246C5.76511 11.3779 5.76361 11.5557 5.875 11.7783C5.93436 11.8965 6.1088 11.9512 6.30728 12ZM14.8195 12H11.1747C11.2262 11.8799 11.2616 11.7529 11.2801 11.623C11.2895 11.5566 11.2945 11.4902 11.295 11.4238C11.2949 11.3027 11.2771 11.1816 11.242 11.0664C11.3936 10.8896 11.5049 10.6826 11.568 10.459L11.661 10.4619C11.9608 10.4639 12.2535 10.3711 12.497 10.1963C12.5366 10.2402 12.5786 10.2812 12.623 10.3203C13.0427 10.7314 13.5997 10.9736 14.187 11H14.617V10.7852L14.8195 12Z" fill="#040303"/>
</svg>
