<svg width="16" height="17" viewBox="0 0 16 17" fill="none" xmlns="http://www.w3.org/2000/svg">
<path fill-rule="evenodd" clip-rule="evenodd" d="M15 8.5C15 12.366 11.866 15.5 8 15.5C4.13403 15.5 1 12.366 1 8.5C1 4.634 4.13403 1.5 8 1.5C11.866 1.5 15 4.634 15 8.5ZM16 8.5C16 12.9183 12.4183 16.5 8 16.5C3.58173 16.5 0 12.9183 0 8.5C0 4.08173 3.58173 0.5 8 0.5C12.4183 0.5 16 4.08173 16 8.5ZM10 4.5H8V5.5H10V4.5ZM12 11.5V10.5H8V11.5H12ZM8 12.5H10V13.5H8V12.5ZM12 6.5H8V7.5H12V6.5ZM8 8.5H13V9.5H8V8.5Z" fill="black"/>
</svg>
