<svg width="16" height="17" viewBox="0 0 16 17" fill="none" xmlns="http://www.w3.org/2000/svg">
<g clip-path="url(#clip0_34_605)">
<path d="M4.48197 3.02L3.85597 0.834998L4.81597 0.559998L5.44297 2.743C5.11192 2.79192 4.78879 2.88438 4.48197 3.018V3.02ZM2.34697 7.546C2.30618 7.38382 2.27611 7.21913 2.25697 7.053L0.0609741 7.683L0.335974 8.643L2.53197 8.013C2.46011 7.86157 2.39831 7.70556 2.34697 7.546ZM2.67697 4.656C2.75831 4.51017 2.84917 4.36987 2.94897 4.236L1.15897 3.244L0.674974 4.119L2.47697 5.118C2.53343 4.9601 2.60024 4.8061 2.67697 4.657V4.656ZM7.84297 3.176C7.98675 3.26182 8.12472 3.35703 8.25597 3.461L9.25497 1.658L8.37997 1.175L7.38797 2.964C7.54419 3.02485 7.69619 3.09601 7.84297 3.177V3.176ZM16 10C16 10.9283 15.6312 11.8185 14.9748 12.4749C14.3185 13.1312 13.4282 13.5 12.5 13.5H3.49997C2.89453 13.5016 2.30922 13.2827 1.85339 12.8842C1.39756 12.4857 1.10239 11.9349 1.02301 11.3347C0.943637 10.7345 1.08549 10.1259 1.42207 9.62264C1.75865 9.11938 2.26694 8.75586 2.85197 8.6C2.91697 8.582 2.97897 8.558 3.04597 8.546C3.11073 8.20843 3.2449 7.888 3.43997 7.605C3.17337 7.03968 3.10617 6.4007 3.24933 5.79229C3.3925 5.18387 3.73757 4.64191 4.22829 4.25479C4.71901 3.86767 5.32641 3.65823 5.95144 3.66063C6.57647 3.66302 7.18224 3.87712 7.66997 4.268C8.21639 3.86797 8.85606 3.61436 9.52814 3.5313C10.2002 3.44823 10.8824 3.53847 11.5098 3.79342C12.1371 4.04838 12.6889 4.45958 13.1125 4.98793C13.5361 5.51628 13.8175 6.1442 13.93 6.812C14.5458 7.08699 15.069 7.53431 15.4363 8.09999C15.8036 8.66566 15.9993 9.32553 16 10ZM15 10C14.9984 9.51846 14.8579 9.04761 14.5954 8.64391C14.3328 8.24021 13.9595 7.92081 13.52 7.724L13.037 7.506L12.945 6.984C12.8279 6.30408 12.4793 5.68557 11.9582 5.23342C11.4371 4.78126 10.7756 4.52329 10.086 4.50328C9.39638 4.48326 8.72106 4.70243 8.17461 5.1236C7.62817 5.54477 7.24424 6.14201 7.08797 6.814L6.85497 7.806L5.86797 7.554C5.6698 7.4984 5.46213 7.48526 5.25853 7.51546C5.05493 7.54566 4.86001 7.6185 4.68651 7.72923C4.513 7.83996 4.36484 7.98607 4.2517 8.15801C4.13856 8.32995 4.06301 8.52384 4.02997 8.727L3.90597 9.405L3.22797 9.529C2.86065 9.59696 2.53197 9.79971 2.30641 10.0975C2.08085 10.3953 1.97469 10.7666 2.00875 11.1386C2.0428 11.5106 2.21462 11.8564 2.4905 12.1083C2.76638 12.3602 3.12641 12.4999 3.49997 12.5H12.5C13.1628 12.4992 13.7982 12.2356 14.2669 11.7669C14.7355 11.2982 14.9992 10.6628 15 10ZM4.24097 6.84C4.52013 6.67365 4.82999 6.56532 5.15199 6.52151C5.47399 6.47769 5.80151 6.49929 6.11497 6.585C6.2582 5.98951 6.53636 5.43491 6.92797 4.964C6.90797 4.952 6.89297 4.937 6.87297 4.926C6.6663 4.81124 6.43904 4.73833 6.20417 4.71145C5.96931 4.68457 5.73145 4.70425 5.50419 4.76935C5.27693 4.83446 5.06474 4.94371 4.87973 5.09087C4.69472 5.23803 4.54053 5.42021 4.42597 5.627C4.22234 5.99694 4.15677 6.4272 4.24097 6.841V6.84Z" fill="black"/>
</g>
<defs>
<clipPath id="clip0_34_605">
<rect width="16" height="16" fill="white" transform="translate(0 0.5)"/>
</clipPath>
</defs>
</svg>
