<svg width="16" height="16" viewBox="0 0 16 16" fill="none" xmlns="http://www.w3.org/2000/svg">
<path fill-rule="evenodd" clip-rule="evenodd" d="M1 1V13.5C1 14.3284 1.67157 15 2.5 15H15V14H14V11H11V8H7V12H4V14H2.5C2.22386 14 2 13.7761 2 13.5V8.5C3.41666 8.5 4.7411 7.79738 5.53549 6.62441L7.60721 3.56539C8.17949 2.72038 9.41028 2.68119 10.0351 3.48809L11.3801 5.22486C12.2473 6.34459 13.5838 7 15 7V6C13.8931 6 12.8485 5.48774 12.1708 4.61258L10.8258 2.87581C9.78434 1.53098 7.73303 1.59628 6.77923 3.00464L4.70751 6.06366C4.09916 6.96193 3.08489 7.5 2 7.5V1H1ZM13 14H11V12H13V14ZM10 9V14H8V9H10ZM5 14H7V13H5V14Z" fill="#C5C5C5"/>
</svg>
