<svg width="16" height="17" viewBox="0 0 16 17" fill="none" xmlns="http://www.w3.org/2000/svg">
<path fill-rule="evenodd" clip-rule="evenodd" d="M3.4 1.8H1.8V15.4H3.4V1.8ZM1.8 1C1.35817 1 1 1.35817 1 1.8V15.4C1 15.8418 1.35817 16.2 1.8 16.2H3.4C3.84183 16.2 4.2 15.8418 4.2 15.4V1.8C4.2 1.35817 3.84183 1 3.4 1H1.8ZM9 5.8H7.4V15.4H9V5.8ZM7.4 5C6.95817 5 6.6 5.35817 6.6 5.8V15.4C6.6 15.8418 6.95817 16.2 7.4 16.2H9C9.44183 16.2 9.8 15.8418 9.8 15.4V5.8C9.8 5.35817 9.44183 5 9 5H7.4ZM13 9H14.6V15.4H13V9ZM12.2 9C12.2 8.55817 12.5582 8.2 13 8.2H14.6C15.0418 8.2 15.4 8.55817 15.4 9V15.4C15.4 15.8418 15.0418 16.2 14.6 16.2H13C12.5582 16.2 12.2 15.8418 12.2 15.4V9Z" fill="white"/>
</svg>
