<svg width="20" height="20" viewBox="0 0 20 20" fill="none" xmlns="http://www.w3.org/2000/svg">
<path fill-rule="evenodd" clip-rule="evenodd" d="M4 2H2V19H4V2ZM2 1C1.44769 1 1 1.44775 1 2V19C1 19.5522 1.44769 20 2 20H4C4.55231 20 5 19.5522 5 19V2C5 1.44775 4.55231 1 4 1H2ZM11 7H9V19H11V7ZM9 6C8.44769 6 8 6.44775 8 7V19C8 19.5522 8.44769 20 9 20H11C11.5523 20 12 19.5522 12 19V7C12 6.44775 11.5523 6 11 6H9ZM16 11H18V19H16V11ZM15 11C15 10.4478 15.4477 10 16 10H18C18.5523 10 19 10.4478 19 11V19C19 19.5522 18.5523 20 18 20H16C15.4477 20 15 19.5522 15 19V11Z" fill="black"/>
</svg>
