<svg width="48" height="48" viewBox="0 0 48 48" fill="none" xmlns="http://www.w3.org/2000/svg">
<path fill-rule="evenodd" clip-rule="evenodd" d="M35.4773 22.0451C34.9464 21.9029 34.6329 21.359 34.7363 20.8192C35.3904 17.4053 34.8676 13.7493 32.9932 10.5028C28.8511 3.32844 19.6772 0.870309 12.5028 5.01244C5.32845 9.15458 2.87032 18.3284 7.01246 25.5028C8.92065 28.8079 11.8967 31.1121 15.2532 32.2312C15.7794 32.4066 16.1008 32.9536 15.9573 33.4894C15.815 34.0204 15.2694 34.3398 14.7465 34.17C10.8908 32.9177 7.467 30.2901 5.28041 26.5028C0.585989 18.3719 3.37187 7.97481 11.5028 3.28039C19.6338 -1.41403 30.0309 1.37185 34.7253 9.50282C36.8735 13.2237 37.4553 17.4192 36.6752 21.3255C36.5666 21.8694 36.013 22.1887 35.4773 22.0451ZM29.6778 20.4913C29.1485 20.3495 28.8369 19.808 28.9142 19.2656C29.1881 17.342 28.8438 15.3161 27.797 13.503C25.3117 9.19833 19.8074 7.72345 15.5028 10.2087C11.1982 12.694 9.72328 18.1983 12.2086 22.503C13.2877 24.372 14.936 25.7076 16.8081 26.4172C17.328 26.6142 17.6531 27.1604 17.5092 27.6975C17.3673 28.227 16.8232 28.5476 16.3068 28.3637C13.9327 27.518 11.8354 25.8566 10.4765 23.503C7.43895 18.2417 9.24158 11.5142 14.5028 8.47668C19.764 5.43912 26.4915 7.24174 29.5291 12.503C30.8484 14.788 31.2546 17.3497 30.861 19.7655C30.7716 20.3141 30.2147 20.6352 29.6778 20.4913ZM43.7799 35.5833L31.268 37.2305L23.5856 47.2425C23.0216 47.9776 21.8476 47.6166 21.7939 46.6917L20.2411 19.9184C20.1935 19.0976 21.1017 18.5733 21.7888 19.0249L44.1987 33.7563C44.9729 34.2652 44.6985 35.4624 43.7799 35.5833ZM29.6813 36.013L23.635 43.8928L22.353 21.7892L40.8543 33.9512L31.007 35.2477C30.4811 35.3169 30.0042 35.5922 29.6813 36.013Z" fill="black"/>
</svg>
