<svg width="12" height="12" viewBox="0 0 12 12" fill="none" xmlns="http://www.w3.org/2000/svg">
<path fill-rule="evenodd" clip-rule="evenodd" d="M11 9C11 10.6567 8.76141 12 6 12C3.23859 12 1 10.6567 1 9V3C1 1.34326 3.23859 0 6 0C8.76141 0 11 1.34326 11 3V9ZM9.02106 4.26392C9.76562 3.81714 10 3.33911 10 3C10 2.66089 9.76562 2.18286 9.02106 1.73608C8.29633 1.30127 7.23065 1 6 1C4.76935 1 3.70367 1.30127 2.97894 1.73608C2.23438 2.18286 2 2.66089 2 3C2 3.33911 2.23438 3.81714 2.97894 4.26392C3.70367 4.69873 4.76935 5 6 5C7.23065 5 8.29633 4.69873 9.02106 4.26392ZM10 7.80029V9C10 9.33911 9.76562 9.81714 9.02106 10.2639C8.29633 10.6987 7.23065 11 6 11C4.76935 11 3.70367 10.6987 2.97894 10.2639C2.23438 9.81714 2 9.33911 2 9V7.80029C2.91223 8.52881 4.36438 9 6 9C7.63562 9 9.08777 8.52881 10 7.80029ZM2 6V4.80029C2.91223 5.52881 4.36438 6 6 6C7.63562 6 9.08777 5.52881 10 4.80029V6C10 6.33911 9.76562 6.81714 9.02106 7.26392C8.29633 7.69873 7.23065 8 6 8C4.76935 8 3.70367 7.69873 2.97894 7.26392C2.23438 6.81714 2 6.33911 2 6Z" fill="black"/>
</svg>
