<svg width="16" height="16" viewBox="0 0 16 16" fill="none" xmlns="http://www.w3.org/2000/svg">
<path d="M7.47287 11.484C7.47287 11.769 7.70887 12 8 12C8.29113 12 8.52713 11.769 8.52713 11.484V1.97555L12.1001 5.47324C12.306 5.67476 12.6397 5.67476 12.8456 5.47324C13.0515 5.27172 13.0515 4.94499 12.8456 4.74347L8 0L3.15439 4.74347C2.94854 4.94499 2.94854 5.27172 3.15439 5.47324C3.36025 5.67476 3.69401 5.67476 3.89987 5.47324L7.47287 1.97555V11.484Z" fill="#E3E3E3"/>
<path d="M1 8V15H15V8H16V16H0V8H1Z" fill="#E3E3E3"/>
</svg>
