<svg width="12" height="12" viewBox="0 0 12 12" fill="none" xmlns="http://www.w3.org/2000/svg">
<path d="M2.64645 8.85355C2.84171 9.04882 3.15829 9.04882 3.35355 8.85355C3.54882 8.65829 3.54882 8.34171 3.35355 8.14645L1.70711 6.5H10.2929L8.64645 8.14645C8.45118 8.34171 8.45118 8.65829 8.64645 8.85355C8.84171 9.04882 9.15829 9.04882 9.35355 8.85355L11.8536 6.35355C12.0488 6.15829 12.0488 5.84171 11.8536 5.64645L9.35355 3.14645C9.15829 2.95118 8.84171 2.95118 8.64645 3.14645C8.45118 3.34171 8.45118 3.65829 8.64645 3.85355L10.2929 5.5H1.70711L3.35355 3.85355C3.54882 3.65829 3.54882 3.34171 3.35355 3.14645C3.15829 2.95118 2.84171 2.95118 2.64645 3.14645L0.146447 5.64645C0.0526786 5.74021 0 5.86739 0 6C0 6.13261 0.0526786 6.25979 0.146447 6.35355L2.64645 8.85355Z" fill="black"/>
</svg>
