<svg width="12" height="12" viewBox="0 0 12 12" fill="none" xmlns="http://www.w3.org/2000/svg">
<path d="M7 3.5C7 4.05228 6.55228 4.5 6 4.5C5.44772 4.5 5 4.05228 5 3.5C5 2.94772 5.44772 2.5 6 2.5C6.55228 2.5 7 2.94772 7 3.5Z" fill="black"/>
<path d="M5 5.5C4.72386 5.5 4.5 5.72386 4.5 6C4.5 6.27614 4.72386 6.5 5 6.5H5.5V8.5H5C4.72386 8.5 4.5 8.72386 4.5 9C4.5 9.27614 4.72386 9.5 5 9.5H7C7.27614 9.5 7.5 9.27614 7.5 9C7.5 8.72386 7.27614 8.5 7 8.5H6.5V5.5H5Z" fill="black"/>
<path fill-rule="evenodd" clip-rule="evenodd" d="M12 6C12 9.31371 9.31371 12 6 12C2.68629 12 0 9.31371 0 6C0 2.68629 2.68629 0 6 0C9.31371 0 12 2.68629 12 6ZM11 6C11 8.76142 8.76142 11 6 11C3.23858 11 1 8.76142 1 6C1 3.23858 3.23858 1 6 1C8.76142 1 11 3.23858 11 6Z" fill="black"/>
</svg>
