<svg width="16" height="16" viewBox="0 0 16 16" fill="none" xmlns="http://www.w3.org/2000/svg">
<path fill-rule="evenodd" clip-rule="evenodd" d="M15.8806 2.82541C16.0603 2.61574 16.036 2.30009 15.8264 2.12038C15.6167 1.94067 15.3011 1.96495 15.1214 2.17461L12.7981 4.88503L11.5335 3.62038C11.3382 3.42512 11.0216 3.42512 10.8264 3.62038C10.6311 3.81564 10.6311 4.13223 10.8264 4.32749L12.091 5.59214C12.5029 6.00404 13.1783 5.9781 13.5574 5.53582L15.8806 2.82541ZM15.8806 10.8254C16.0603 10.6158 16.036 10.3001 15.8264 10.1204C15.6167 9.94071 15.3011 9.96499 15.1214 10.1747L12.7981 12.8851L11.5335 11.6204C11.3382 11.4252 11.0216 11.4252 10.8264 11.6204C10.6311 11.8157 10.6311 12.1323 10.8264 12.3275L12.091 13.5922C12.5029 14.0041 13.1783 13.9781 13.5574 13.5359L15.8806 10.8254ZM9 4.12036C9 4.3965 8.77614 4.62036 8.5 4.62036H0.5C0.223858 4.62036 0 4.3965 0 4.12036C0 3.84422 0.223858 3.62036 0.5 3.62036H8.5C8.77614 3.62036 9 3.84422 9 4.12036ZM8.5 12.6204C8.77614 12.6204 9 12.3965 9 12.1204C9 11.8443 8.77614 11.6204 8.5 11.6204H0.5C0.223858 11.6204 0 11.8443 0 12.1204C0 12.3965 0.223858 12.6204 0.5 12.6204H8.5Z" fill="black"/>
</svg>
