<svg width="16" height="16" viewBox="0 0 16 16" fill="none" xmlns="http://www.w3.org/2000/svg">
<rect opacity="0.01" width="16" height="16" fill="#E3E3E3"/>
<path fill-rule="evenodd" clip-rule="evenodd" d="M0.5 1C0.223858 1 0 1.22386 0 1.5C0 1.77614 0.223858 2 0.5 2H15.5C15.7761 2 16 1.77614 16 1.5C16 1.22386 15.7761 1 15.5 1H0.5ZM0 7.5C0 7.22386 0.223858 7 0.5 7H15.5C15.7761 7 16 7.22386 16 7.5C16 7.77614 15.7761 8 15.5 8H0.5C0.223858 8 0 7.77614 0 7.5ZM0 13.5C0 13.2239 0.223858 13 0.5 13H15.5C15.7761 13 16 13.2239 16 13.5C16 13.7761 15.7761 14 15.5 14H0.5C0.223858 14 0 13.7761 0 13.5Z" fill="black"/>
</svg>
