<svg width="16" height="16" viewBox="0 0 16 16" fill="none" xmlns="http://www.w3.org/2000/svg">
<path fill-rule="evenodd" clip-rule="evenodd" d="M15.8804 2.82541C16.0601 2.61574 16.0358 2.30009 15.8261 2.12038C15.6165 1.94067 15.3008 1.96495 15.1211 2.17461L12.7979 4.88503L11.5332 3.62038C11.338 3.42512 11.0214 3.42512 10.8261 3.62038C10.6309 3.81564 10.6309 4.13223 10.8261 4.32749L12.0908 5.59214C12.5027 6.00404 13.1781 5.9781 13.5571 5.53582L15.8804 2.82541ZM15.8804 10.8254C16.0601 10.6157 16.0358 10.3001 15.8261 10.1204C15.6165 9.94067 15.3008 9.96495 15.1211 10.1746L12.7979 12.885L11.5332 11.6204C11.338 11.4251 11.0214 11.4251 10.8261 11.6204C10.6309 11.8156 10.6309 12.1322 10.8261 12.3275L12.0908 13.5921C12.5027 14.004 13.1781 13.9781 13.5571 13.5358L15.8804 10.8254ZM9 4.5C9 4.77614 8.77614 5 8.5 5H0.5C0.223858 5 0 4.77614 0 4.5C0 4.22386 0.223858 4 0.5 4H8.5C8.77614 4 9 4.22386 9 4.5ZM8.5 13C8.77614 13 9 12.7761 9 12.5C9 12.2239 8.77614 12 8.5 12H0.5C0.223858 12 0 12.2239 0 12.5C0 12.7761 0.223858 13 0.5 13H8.5Z" fill="black"/>
</svg>