<svg width="16" height="16" viewBox="0 0 16 16" fill="none" xmlns="http://www.w3.org/2000/svg">
<path fill-rule="evenodd" clip-rule="evenodd" d="M16 4.12036C16 4.3965 15.7761 4.62036 15.5 4.62036H7.5C7.22386 4.62036 7 4.3965 7 4.12036C7 3.84422 7.22386 3.62036 7.5 3.62036H15.5C15.7761 3.62036 16 3.84422 16 4.12036Z" fill="#C5C5C5"/>
<path fill-rule="evenodd" clip-rule="evenodd" d="M16 12.1204C16 12.3965 15.7761 12.6204 15.5 12.6204H7.5C7.22386 12.6204 7 12.3965 7 12.1204C7 11.8442 7.22386 11.6204 7.5 11.6204H15.5C15.7761 11.6204 16 11.8442 16 12.1204Z" fill="#C5C5C5"/>
<path fill-rule="evenodd" clip-rule="evenodd" d="M5.14645 2.12038C5.35611 2.30009 5.38039 2.61574 5.20068 2.82541L2.87746 5.53582C2.49837 5.9781 1.82299 6.00404 1.4111 5.59214L0.146447 4.32749C-0.0488155 4.13223 -0.0488156 3.81564 0.146447 3.62038C0.341709 3.42512 0.658291 3.42512 0.853553 3.62038L2.11821 4.88503L4.44142 2.17461C4.62113 1.96495 4.93678 1.94067 5.14645 2.12038Z" fill="#C5C5C5"/>
<path fill-rule="evenodd" clip-rule="evenodd" d="M5.14645 10.1204C5.35611 10.3001 5.38039 10.6157 5.20068 10.8254L2.87746 13.5358C2.49837 13.9781 1.82299 14.004 1.4111 13.5921L0.146447 12.3275C-0.0488155 12.1322 -0.0488156 11.8156 0.146447 11.6204C0.341709 11.4251 0.658291 11.4251 0.853553 11.6204L2.11821 12.885L4.44142 10.1746C4.62113 9.96495 4.93678 9.94067 5.14645 10.1204Z" fill="#C5C5C5"/>
</svg>
