<svg width="16" height="13" viewBox="0 0 16 13" fill="none" xmlns="http://www.w3.org/2000/svg">
<path d="M0.5 0C0.223858 0 0 0.223858 0 0.5C0 0.776142 0.223858 1 0.5 1H4.5C4.77614 1 5 0.776142 5 0.5C5 0.223858 4.77614 0 4.5 0H0.5Z" fill="black"/>
<path d="M0 4.5C0 4.22386 0.223858 4 0.5 4H7.5C7.77614 4 8 4.22386 8 4.5C8 4.77614 7.77614 5 7.5 5H0.5C0.223858 5 0 4.77614 0 4.5Z" fill="black"/>
<path d="M0.5 8C0.223858 8 0 8.22386 0 8.5C0 8.77614 0.223858 9 0.5 9H11.5C11.7761 9 12 8.77614 12 8.5C12 8.22386 11.7761 8 11.5 8H0.5Z" fill="black"/>
<path d="M0.5 12C0.223858 12 0 12.2239 0 12.5C0 12.7761 0.223858 13 0.5 13H15.5C15.7761 13 16 12.7761 16 12.5C16 12.2239 15.7761 12 15.5 12H0.5Z" fill="black"/>
</svg>
