<svg width="16" height="13" viewBox="0 0 16 13" fill="none" xmlns="http://www.w3.org/2000/svg">
<path d="M0.500001 13C0.223858 13 5.71866e-07 12.7761 5.96007e-07 12.5C6.20148e-07 12.2239 0.223859 12 0.500001 12H4.5C4.77614 12 5 12.2239 5 12.5C5 12.7761 4.77614 13 4.5 13H0.500001Z" fill="black"/>
<path d="M1.03312e-06 8.5C1.00898e-06 8.77614 0.223859 9 0.500001 9L7.5 9C7.77614 9 8 8.77614 8 8.5C8 8.22386 7.77614 8 7.5 8L0.500001 8C0.223859 8 1.05726e-06 8.22386 1.03312e-06 8.5Z" fill="black"/>
<path d="M0.5 5C0.223858 5 1.44609e-06 4.77614 1.47023e-06 4.5C1.49438e-06 4.22386 0.223858 4 0.500001 4L11.5 4C11.7761 4 12 4.22386 12 4.5C12 4.77614 11.7761 5 11.5 5L0.5 5Z" fill="black"/>
<path d="M0.5 1C0.223858 1 -2.41411e-08 0.776144 0 0.500001C2.41411e-08 0.223859 0.223858 1.52558e-06 0.5 1.54972e-06L15.5 0C15.7761 2.41411e-08 16 0.223858 16 0.5C16 0.776142 15.7761 1 15.5 1L0.5 1Z" fill="black"/>
</svg>
