<svg width="16" height="17" viewBox="0 0 16 17" fill="none" xmlns="http://www.w3.org/2000/svg">
<path d="M7.35355 11.5607L12.7071 6.20711L12 5.5L7.35355 10.1464L4.70711 7.5L4 8.20711L7.35355 11.5607Z" fill="#03B161"/>
<path fill-rule="evenodd" clip-rule="evenodd" d="M0 8.5C0 12.9183 3.58172 16.5 8 16.5C12.4183 16.5 16 12.9183 16 8.5C16 4.08172 12.4183 0.5 8 0.5C3.58172 0.5 0 4.08172 0 8.5ZM15 8.5C15 12.366 11.866 15.5 8 15.5C4.13401 15.5 1 12.366 1 8.5C1 4.63401 4.13401 1.5 8 1.5C11.866 1.5 15 4.63401 15 8.5Z" fill="#03B161"/>
</svg>
