<svg width="16" height="12" viewBox="0 0 16 12" fill="none" xmlns="http://www.w3.org/2000/svg">
<path fill-rule="evenodd" clip-rule="evenodd" d="M1.53895 11.5592H0L4.29506 0H5.5542L9.80729 11.5592H8.24036L7.23305 8.71837H2.53227L1.53895 11.5592ZM3.02193 7.29796H6.72939L4.88266 1.87755L3.02193 7.29796Z" fill="#C5C5C5"/>
<path fill-rule="evenodd" clip-rule="evenodd" d="M14.6429 6.79184C14.6429 6.21496 14.4937 5.78776 14.1952 5.5102C13.8968 5.23265 13.5004 5.09388 13.006 5.09388C12.633 5.09388 12.2809 5.17823 11.9498 5.34694C11.6187 5.51565 11.3412 5.73061 11.1173 5.99184L10.4178 5.01224C10.7443 4.65306 11.143 4.37007 11.614 4.16327C12.085 3.95646 12.591 3.85306 13.132 3.85306C13.6076 3.85306 14.0204 3.93197 14.3701 4.0898C14.7199 4.24762 15.0067 4.46258 15.2305 4.73469C15.4544 5.0068 15.6223 5.32789 15.7342 5.69796C15.8461 6.06803 15.9021 6.4653 15.9021 6.8898V10.2694C15.9021 10.5306 15.9091 10.8054 15.9231 11.0939C15.937 11.3823 15.9627 11.619 16 11.8041H14.8108C14.7362 11.434 14.6989 11.0639 14.6989 10.6939H14.6569C14.4144 11.1075 14.109 11.4286 13.7405 11.6571C13.3721 11.8857 12.9361 12 12.4324 12C12.1713 12 11.8985 11.9592 11.614 11.8776C11.3295 11.7959 11.0707 11.6626 10.8375 11.4776C10.6044 11.2925 10.4108 11.0476 10.2569 10.7429C10.103 10.4381 10.0261 10.0626 10.0261 9.61633C10.0261 9.02857 10.1613 8.56327 10.4318 8.22041C10.7023 7.87755 11.0567 7.61633 11.4951 7.43673C11.9335 7.25714 12.4278 7.14014 12.9781 7.08571C13.5284 7.03129 14.0833 7.00408 14.6429 7.00408V6.79184ZM14.3211 8.11429C13.9947 8.11429 13.6566 8.13061 13.3068 8.16327C12.9571 8.19592 12.64 8.26122 12.3555 8.35918C12.071 8.45714 11.8355 8.60408 11.649 8.8C11.4624 8.99592 11.3692 9.25714 11.3692 9.58367C11.3692 9.81225 11.4088 10.0027 11.4881 10.1551C11.5674 10.3075 11.6723 10.4327 11.8029 10.5306C11.9335 10.6286 12.078 10.6966 12.2366 10.7347C12.3951 10.7728 12.5584 10.7918 12.7262 10.7918C13.3418 10.7918 13.8152 10.5769 14.1463 10.1469C14.4774 9.717 14.6429 9.17551 14.6429 8.52245V8.11429H14.3211Z" fill="#C5C5C5"/>
</svg>
