<svg width="24" height="24" viewBox="0 0 24 24" fill="none" xmlns="http://www.w3.org/2000/svg">
<path d="M10.6493 9.79272C10.5693 9.01135 11.1969 8.33333 12 8.33333C12.8031 8.33333 13.4307 9.01135 13.3507 9.79272L12.8246 14.937C12.7823 15.3512 12.4258 15.6667 12 15.6667C11.5742 15.6667 11.2177 15.3512 11.1754 14.937L10.6493 9.79272Z" fill="#FFC300"/>
<path d="M12 20.0667C12.8284 20.0667 13.5 19.41 13.5 18.6C13.5 17.79 12.8284 17.1333 12 17.1333C11.1716 17.1333 10.5 17.79 10.5 18.6C10.5 19.41 11.1716 20.0667 12 20.0667Z" fill="#FFC300"/>
<path fill-rule="evenodd" clip-rule="evenodd" d="M0 23L12 1L24 23H0ZM2.5 21.5333L12 4.11667L21.5 21.5333H2.5Z" fill="#FFC300"/>
</svg>
