<svg width="16" height="17" viewBox="0 0 16 17" fill="none" xmlns="http://www.w3.org/2000/svg">
<path d="M7 4C7.27614 4 7.5 4.22386 7.5 4.5V7H10C10.2761 7 10.5 7.22386 10.5 7.5C10.5 7.77614 10.2761 8 10 8H7.5V10.5C7.5 10.7761 7.27614 11 7 11C6.72386 11 6.5 10.7761 6.5 10.5V8H4C3.72386 8 3.5 7.77614 3.5 7.5C3.5 7.22386 3.72386 7 4 7H6.5V4.5C6.5 4.22386 6.72386 4 7 4Z" fill="black"/>
<path fill-rule="evenodd" clip-rule="evenodd" d="M0 7.5C0 11.366 3.13401 14.5 7 14.5C8.69137 14.5 10.2426 13.9001 11.4557 12.899L14.8603 16.3045C15.121 16.5652 15.5437 16.5652 15.8045 16.3045C16.0652 16.0437 16.0652 15.621 15.8045 15.3603L12.399 11.9557L12.6212 11.6723C13.4874 10.5072 14 9.06345 14 7.5C14 3.63401 10.866 0.5 7 0.5C3.13401 0.5 0 3.63401 0 7.5ZM1 7.5C1 4.18629 3.68629 1.5 7 1.5C10.3137 1.5 13 4.18629 13 7.5C13 10.8137 10.3137 13.5 7 13.5C3.68629 13.5 1 10.8137 1 7.5Z" fill="black"/>
</svg>
