<svg width="40" height="40" viewBox="0 0 40 40" fill="none" xmlns="http://www.w3.org/2000/svg">
<path d="M20 37.3333C15.4029 37.3333 10.9941 35.5071 7.74348 32.2565C4.49285 29.0059 2.66667 24.5971 2.66667 20H0C0 25.3043 2.10714 30.3914 5.85786 34.1421C9.60859 37.8929 14.6957 40 20 40V37.3333ZM37.3333 20C37.3333 22.2762 36.885 24.5302 36.0139 26.6332C35.1428 28.7362 33.8661 30.647 32.2565 32.2565C30.647 33.8661 28.7362 35.1428 26.6332 36.0139C24.5302 36.885 22.2762 37.3333 20 37.3333V40C25.3043 40 30.3914 37.8929 34.1421 34.1421C37.8929 30.3914 40 25.3043 40 20H37.3333ZM20 2.66667C22.2762 2.66667 24.5302 3.11501 26.6332 3.98609C28.7362 4.85717 30.647 6.13393 32.2565 7.74348C33.8661 9.35303 35.1428 11.2638 36.0139 13.3668C36.885 15.4698 37.3333 17.7238 37.3333 20H40C40 14.6957 37.8929 9.60859 34.1421 5.85786C30.3914 2.10714 25.3043 0 20 0V2.66667ZM20 0C14.6957 0 9.60859 2.10714 5.85786 5.85786C2.10714 9.60859 0 14.6957 0 20H2.66667C2.66667 15.4029 4.49285 10.9941 7.74348 7.74348C10.9941 4.49285 15.4029 2.66667 20 2.66667V0ZM27.192 17.2267L36.5253 13.2267L35.4747 10.7733L26.1413 14.7733L27.192 17.2267ZM18.6667 0V12H21.3333V0H18.6667ZM24.3893 26.2773L32.3893 34.2773L34.2773 32.3893L26.2773 24.3893L24.3893 26.2773ZM20 26.6667C18.2319 26.6667 16.5362 25.9643 15.286 24.714C14.0357 23.4638 13.3333 21.7681 13.3333 20H10.6667C10.6667 22.4754 11.65 24.8493 13.4003 26.5997C15.1507 28.35 17.5246 29.3333 20 29.3333V26.6667ZM26.6667 20C26.6667 21.7681 25.9643 23.4638 24.714 24.714C23.4638 25.9643 21.7681 26.6667 20 26.6667V29.3333C22.4754 29.3333 24.8493 28.35 26.5997 26.5997C28.35 24.8493 29.3333 22.4754 29.3333 20H26.6667ZM20 13.3333C21.7681 13.3333 23.4638 14.0357 24.714 15.286C25.9643 16.5362 26.6667 18.2319 26.6667 20H29.3333C29.3333 17.5246 28.35 15.1507 26.5997 13.4003C24.8493 11.65 22.4754 10.6667 20 10.6667V13.3333ZM20 10.6667C17.5246 10.6667 15.1507 11.65 13.4003 13.4003C11.65 15.1507 10.6667 17.5246 10.6667 20H13.3333C13.3333 18.2319 14.0357 16.5362 15.286 15.286C16.5362 14.0357 18.2319 13.3333 20 13.3333V10.6667Z" fill="black"/>
</svg>
