<svg width="16" height="16" viewBox="0 0 16 16" fill="none" xmlns="http://www.w3.org/2000/svg">
<path fill-rule="evenodd" clip-rule="evenodd" d="M8.49083 0.516066C6.75938 0.40258 5.04214 0.892962 3.63172 1.90366C2.75503 2.53189 2.03059 3.33699 1.5 4.25887V2.5H0.5V6.5H4.5V5.5H2.00029C2.46295 4.38962 3.22725 3.42374 4.2142 2.7165C5.43656 1.84057 6.92483 1.41557 8.42542 1.51392C9.92601 1.61228 11.3461 2.2279 12.4437 3.25589C12.6842 3.48116 12.9059 3.72316 13.1077 3.97944L13.8934 3.36089C13.6606 3.06517 13.4047 2.78593 13.1272 2.52603C11.8608 1.33988 10.2223 0.629551 8.49083 0.516066ZM1.50511 11.75C2.37269 13.2527 3.73448 14.4081 5.35843 15.0193C5.6186 15.1172 5.88294 15.2002 6.15018 15.2682L6.39688 14.2991C6.16528 14.2402 5.93618 14.1683 5.71068 14.0834C4.30325 13.5537 3.12304 12.5523 2.37114 11.25L1.50511 11.75ZM11 14C13.2091 14 15 12.2091 15 10C15 7.79086 13.2091 6 11 6C8.79086 6 7 7.79086 7 10C7 12.2091 8.79086 14 11 14ZM11 15C13.7614 15 16 12.7614 16 10C16 7.23858 13.7614 5 11 5C8.23858 5 6 7.23858 6 10C6 12.7614 8.23858 15 11 15ZM10.5 10.2071L12.6464 12.3536L13.3535 11.6464L11.5 9.79289V7H10.5V10.2071Z" fill="black"/>
</svg>
