<svg width="16" height="16" viewBox="0 0 16 16" fill="none" xmlns="http://www.w3.org/2000/svg">
<path d="M0 15V1H1L1 15H0Z" fill="black"/>
<path fill-rule="evenodd" clip-rule="evenodd" d="M7.5 2.5C6.39543 2.5 5.5 3.39543 5.5 4.5C5.5 5.60457 6.39543 6.5 7.5 6.5C8.43192 6.5 9.21497 5.86261 9.43699 5L15 5V4L9.43699 4C9.21497 3.13739 8.43192 2.5 7.5 2.5ZM6.5 4.5C6.5 3.94772 6.94772 3.5 7.5 3.5C8.05228 3.5 8.5 3.94772 8.5 4.5C8.5 5.05228 8.05228 5.5 7.5 5.5C6.94772 5.5 6.5 5.05228 6.5 4.5Z" fill="black"/>
<path fill-rule="evenodd" clip-rule="evenodd" d="M2.5 10.5C2.5 9.39543 3.39543 8.5 4.5 8.5C5.43192 8.5 6.21497 9.13739 6.43699 10L15 10V11L6.43699 11C6.21497 11.8626 5.43192 12.5 4.5 12.5C3.39543 12.5 2.5 11.6046 2.5 10.5ZM4.5 9.5C3.94772 9.5 3.5 9.94772 3.5 10.5C3.5 11.0523 3.94772 11.5 4.5 11.5C5.05228 11.5 5.5 11.0523 5.5 10.5C5.5 9.94772 5.05228 9.5 4.5 9.5Z" fill="black"/>
</svg>
