<svg width="16" height="16" viewBox="0 0 16 16" fill="none" xmlns="http://www.w3.org/2000/svg">
<path d="M16 15V1H15L15 15H16Z" fill="black"/>
<path fill-rule="evenodd" clip-rule="evenodd" d="M8.5 2.5C9.60457 2.5 10.5 3.39543 10.5 4.5C10.5 5.60457 9.60457 6.5 8.5 6.5C7.56808 6.5 6.78503 5.86261 6.56301 5L1 5V4L6.56301 4C6.78503 3.13739 7.56808 2.5 8.5 2.5ZM9.5 4.5C9.5 3.94772 9.05228 3.5 8.5 3.5C7.94772 3.5 7.5 3.94772 7.5 4.5C7.5 5.05228 7.94772 5.5 8.5 5.5C9.05228 5.5 9.5 5.05228 9.5 4.5Z" fill="black"/>
<path fill-rule="evenodd" clip-rule="evenodd" d="M13.5 10.5C13.5 9.39543 12.6046 8.5 11.5 8.5C10.5681 8.5 9.78503 9.13739 9.56301 10L1 10V11L9.56301 11C9.78503 11.8626 10.5681 12.5 11.5 12.5C12.6046 12.5 13.5 11.6046 13.5 10.5ZM11.5 9.5C12.0523 9.5 12.5 9.94772 12.5 10.5C12.5 11.0523 12.0523 11.5 11.5 11.5C10.9477 11.5 10.5 11.0523 10.5 10.5C10.5 9.94772 10.9477 9.5 11.5 9.5Z" fill="black"/>
</svg>
