<svg width="16" height="16" viewBox="0 0 16 16" fill="none" xmlns="http://www.w3.org/2000/svg">
<path d="M2.56038 12.801C3.24163 13.673 4.11261 14.3783 5.10719 14.8634C6.10177 15.3485 7.1938 15.6007 8.30038 15.6007C9.40696 15.6007 10.499 15.3485 11.4936 14.8634C12.4882 14.3783 13.3591 13.673 14.0404 12.801H14.0454V12.795C15.053 11.5137 15.6008 9.93097 15.6008 8.30097C15.6008 6.67096 15.053 5.08824 14.0454 3.80697V3.80097H14.0414C13.3602 2.92858 12.4891 2.22292 11.4943 1.73759C10.4995 1.25225 9.40723 1 8.30038 1C7.19353 1 6.10123 1.25225 5.10646 1.73759C4.11169 2.22292 3.24061 2.92858 2.55938 3.80097H2.55538V3.80697C1.54778 5.08824 1 6.67096 1 8.30097C1 9.93097 1.54778 11.5137 2.55538 12.795V12.801H2.56038ZM4.51038 4.80097C4.21333 5.77465 4.04687 6.78347 4.01538 7.80097H2.02538C2.10847 6.72821 2.46665 5.69497 3.06538 4.80097H4.51038ZM13.5354 4.80097C14.1341 5.69497 14.4923 6.72821 14.5754 7.80097H12.5854C12.5539 6.78347 12.3874 5.77465 12.0904 4.80097H13.5354ZM12.0904 11.801C12.3874 10.8273 12.5539 9.81847 12.5854 8.80097H14.5754C14.4923 9.87374 14.1341 10.907 13.5354 11.801H12.0904ZM7.80038 12.801V14.517C7.00847 14.1951 6.371 13.5806 6.02038 12.801H7.80038ZM5.57538 11.801C5.2407 10.8343 5.05163 9.82325 5.01438 8.80097H7.80038V11.801H5.57538ZM8.80038 14.517V12.801H10.5804C10.2298 13.5806 9.59229 14.1951 8.80038 14.517ZM8.80038 11.801V8.80097H11.5864C11.5491 9.82325 11.3601 10.8343 11.0254 11.801H8.80038ZM11.5864 7.80097H8.80038V4.80097H11.0254C11.3601 5.76763 11.5491 6.77869 11.5864 7.80097ZM8.80038 3.80097V2.08497C9.59229 2.40681 10.2298 3.02137 10.5804 3.80097H8.80038ZM7.80038 2.08497V3.80097H6.02038C6.371 3.02137 7.00847 2.40681 7.80038 2.08497ZM7.80038 4.80097V7.80097H5.01438C5.05163 6.77869 5.2407 5.76763 5.57538 4.80097H7.80038ZM4.01538 8.80097C4.04687 9.81847 4.21333 10.8273 4.51038 11.801H3.06538C2.46661 10.907 2.10842 9.87374 2.02538 8.80097H4.01538ZM4.89638 12.801C5.07864 13.2093 5.30036 13.5988 5.55838 13.964C4.94683 13.6679 4.38698 13.2752 3.90038 12.801H4.89638ZM11.0424 13.964C11.3004 13.5988 11.5221 13.2093 11.7044 12.801H12.7004C12.2138 13.2752 11.6539 13.6679 11.0424 13.964ZM11.7044 3.80097C11.5221 3.39266 11.3004 3.00315 11.0424 2.63797C11.6539 2.93403 12.2138 3.32674 12.7004 3.80097H11.7044ZM5.55838 2.63797C5.30036 3.00315 5.07864 3.39266 4.89638 3.80097H3.90038C4.38758 3.32656 4.94811 2.93385 5.56038 2.63797H5.55838Z" fill="#C5C5C5"/>
</svg>
