<svg width="16" height="16" viewBox="0 0 16 16" fill="none" xmlns="http://www.w3.org/2000/svg">
<path d="M1.37261 8L3.44367 5.92894L4.27209 6.75736L2.20103 8.82842C0.828548 10.2009 0.828446 12.4264 2.20103 13.799C3.57361 15.1716 5.79909 15.1715 7.17158 13.799L9.24264 11.7279L10.0711 12.5563L8 14.6274C6.16982 16.4576 3.20271 16.4575 1.37261 14.6274C-0.457497 12.7973 -0.457573 9.83018 1.37261 8Z" fill="black"/>
<path d="M13.799 7.17158L11.7279 9.24264L12.5563 10.0711L14.6274 8C16.4576 6.16982 16.4575 3.20271 14.6274 1.37261C12.7973 -0.457497 9.83018 -0.457573 8 1.37261L5.92894 3.44367L6.75736 4.27209L8.82842 2.20103C10.2009 0.828548 12.4264 0.828446 13.799 2.20103C15.1716 3.57361 15.1715 5.79909 13.799 7.17158Z" fill="black"/>
<path d="M5.51473 9.65685C5.28598 9.88559 5.28595 10.2565 5.51473 10.4853C5.7435 10.714 6.1144 10.714 6.34315 10.4853L10.4853 6.34315C10.714 6.1144 10.714 5.7435 10.4853 5.51473C10.2565 5.28595 9.88559 5.28598 9.65685 5.51473L5.51473 9.65685Z" fill="black"/>
</svg>