<svg width="12" height="12" viewBox="0 0 12 12" fill="none" xmlns="http://www.w3.org/2000/svg">
<path fill-rule="evenodd" clip-rule="evenodd" d="M10.1667 0H1.83333C1.3731 0 1 0.383756 1 0.857143V11.1429C1 11.6162 1.3731 12 1.83333 12H10.1667C10.6269 12 11 11.6162 11 11.1429V0.857143C11 0.383756 10.6269 0 10.1667 0ZM2 11V1H10V11H2ZM3.6 3H8.4C8.73137 3 9 3.22386 9 3.5C9 3.77614 8.73137 4 8.4 4H3.6C3.26863 4 3 3.77614 3 3.5C3 3.22386 3.26863 3 3.6 3ZM8.4 6H3.6C3.26863 6 3 6.22386 3 6.5C3 6.77614 3.26863 7 3.6 7H8.4C8.73137 7 9 6.77614 9 6.5C9 6.22386 8.73137 6 8.4 6Z" fill="black"/>
</svg>
