<svg width="20" height="20" viewBox="0 0 20 20" fill="none" xmlns="http://www.w3.org/2000/svg">
<path fill-rule="evenodd" clip-rule="evenodd" d="M1.41406 9.99985L9.99985 1.41406L18.5856 9.99985L9.99985 18.5856L1.41406 9.99985ZM0.706955 10.707C0.316431 10.3164 0.316432 9.68327 0.706956 9.29274L9.29274 0.706955C9.68327 0.316431 10.3164 0.316432 10.707 0.706956L19.2927 9.29274C19.6833 9.68327 19.6833 10.3164 19.2927 10.707L10.707 19.2927C10.3164 19.6833 9.68327 19.6833 9.29274 19.2927L0.706955 10.707ZM14.8968 8.66585L11.5828 12.0179C11.4751 11.6342 11.3422 11.258 11.1848 10.8919L14.1028 8.05985L14.8968 8.66585ZM7.70985 7.99985H9.99985V6.99985H5.99985V10.9999H6.99985V8.70585L8.32985 10.0309C9.48285 11.2999 9.99985 11.9869 9.99985 14.4999V14.9999H10.9998V14.4999C11.1595 12.2733 10.4627 11.0698 9.05185 9.33985L7.70985 7.99985Z" fill="black"/>
</svg>
