<svg width="20" height="20" viewBox="0 0 20 20" fill="none" xmlns="http://www.w3.org/2000/svg">
<path d="M11.5 4C11.7761 4 12 4.22386 12 4.5C12 4.77614 11.7761 5 11.5 5H3.5C3.22386 5 3 4.77614 3 4.5C3 4.22386 3.22386 4 3.5 4H11.5Z" fill="black"/>
<path d="M11.5 7C11.7761 7 12 7.22386 12 7.5C12 7.77614 11.7761 8 11.5 8H6.5C6.22386 8 6 7.77614 6 7.5C6 7.22386 6.22386 7 6.5 7H11.5Z" fill="black"/>
<path d="M12 10.5C12 10.2239 11.7761 10 11.5 10H3.5C3.22386 10 3 10.2239 3 10.5C3 10.7761 3.22386 11 3.5 11H11.5C11.7761 11 12 10.7761 12 10.5Z" fill="black"/>
<path d="M16.5 10C16.7761 10 17 10.2239 17 10.5C17 10.7761 16.7761 11 16.5 11H14.5C14.2239 11 14 10.7761 14 10.5C14 10.2239 14.2239 10 14.5 10H16.5Z" fill="black"/>
<path d="M16 7.5C16 7.22386 15.7761 7 15.5 7H14.5C14.2239 7 14 7.22386 14 7.5C14 7.77614 14.2239 8 14.5 8H15.5C15.7761 8 16 7.77614 16 7.5Z" fill="black"/>
<path d="M16.5 4C16.7761 4 17 4.22386 17 4.5C17 4.77614 16.7761 5 16.5 5H14.5C14.2239 5 14 4.77614 14 4.5C14 4.22386 14.2239 4 14.5 4H16.5Z" fill="black"/>
<path d="M4 15.5L6 14V17L4 15.5Z" fill="black"/>
<path d="M16 15.5L14 14V17L16 15.5Z" fill="black"/>
<path fill-rule="evenodd" clip-rule="evenodd" d="M20 2C20 0.89543 19.1046 0 18 0H2C0.89543 0 0 0.89543 0 2V18C0 19.1046 0.89543 20 2 20H18C19.1046 20 20 19.1046 20 18V2ZM2 1H18C18.5523 1 19 1.44772 19 2V18C19 18.5523 18.5523 19 18 19H2C1.44772 19 1 18.5523 1 18V2C1 1.44772 1.44772 1 2 1Z" fill="black"/>
</svg>
