<svg width="20" height="20" viewBox="0 0 20 20" fill="none" xmlns="http://www.w3.org/2000/svg">
<path d="M13.5 3C13.7761 3 14 2.77614 14 2.5C14 2.22386 13.7761 2 13.5 2C13.2239 2 13 2.22386 13 2.5C13 2.77614 13.2239 3 13.5 3Z" fill="black"/>
<path d="M15.5 3C15.7761 3 16 2.77614 16 2.5C16 2.22386 15.7761 2 15.5 2C15.2239 2 15 2.22386 15 2.5C15 2.77614 15.2239 3 15.5 3Z" fill="black"/>
<path d="M18 2.5C18 2.77614 17.7761 3 17.5 3C17.2239 3 17 2.77614 17 2.5C17 2.22386 17.2239 2 17.5 2C17.7761 2 18 2.22386 18 2.5Z" fill="black"/>
<path d="M17 10.5C17 10.2239 16.7761 10 16.5 10H3.5C3.22386 10 3 10.2239 3 10.5C3 10.7761 3.22386 11 3.5 11H16.5C16.7761 11 17 10.7761 17 10.5Z" fill="black"/>
<path d="M17 14.5C17 14.2239 16.7761 14 16.5 14H9.5C9.22386 14 9 14.2239 9 14.5C9 14.7761 9.22386 15 9.5 15H16.5C16.7761 15 17 14.7761 17 14.5Z" fill="black"/>
<path fill-rule="evenodd" clip-rule="evenodd" d="M18 0C19.1046 0 20 0.89543 20 2V18C20 19.1046 19.1046 20 18 20H2C0.89543 20 0 19.1046 0 18V2C0 0.89543 0.89543 0 2 0H18ZM18 1H2C1.48716 1 1.06449 1.38604 1.00673 1.88338L1 2V4H19V2C19 1.48716 18.614 1.06449 18.1166 1.00673L18 1ZM19 5H1V18C1 18.5128 1.38604 18.9355 1.88338 18.9933L2 19H18C18.5128 19 18.9355 18.614 18.9933 18.1166L19 18V5Z" fill="black"/>
</svg>
