<svg width="400" height="400" viewBox="0 0 400 400" fill="none" xmlns="http://www.w3.org/2000/svg">
<rect x="24" y="107" width="8" height="16" transform="rotate(-90 24 107)" fill="black"/>
<rect x="24" y="56" width="8" height="16" transform="rotate(-90 24 56)" fill="black"/>
<rect x="24" y="158" width="8" height="16" transform="rotate(-90 24 158)" fill="black"/>
<rect x="24" y="209" width="8" height="16" transform="rotate(-90 24 209)" fill="black"/>
<rect x="24" y="261" width="8" height="16" transform="rotate(-90 24 261)" fill="black"/>
<rect x="24" y="311" width="8" height="16" transform="rotate(-90 24 311)" fill="black"/>
<rect x="24" y="362" width="8" height="16" transform="rotate(-90 24 362)" fill="black"/>
<rect x="128" y="376" width="8" height="24" transform="rotate(-90 128 376)" fill="black"/>
<rect x="72" y="376" width="8" height="24" transform="rotate(-90 72 376)" fill="black"/>
<rect x="189" y="376" width="8" height="24" transform="rotate(-90 189 376)" fill="black"/>
<rect x="250" y="376" width="8" height="24" transform="rotate(-90 250 376)" fill="black"/>
<rect x="311" y="376" width="8" height="24" transform="rotate(-90 311 376)" fill="black"/>
<rect x="58" y="77" width="12" height="281" fill="black"/>
<rect x="73" y="144.527" width="12" height="213.473" fill="black"/>
<rect x="88" y="198.984" width="12" height="159.016" fill="black"/>
<rect x="119" y="244" width="12" height="114" fill="black"/>
<rect x="134" y="271.395" width="12" height="86.6046" fill="black"/>
<rect x="149" y="293.488" width="12" height="64.5116" fill="black"/>
<rect x="180" y="208" width="12" height="150" fill="black"/>
<rect x="195" y="244.046" width="12" height="113.953" fill="black"/>
<rect x="210" y="273.116" width="12" height="84.8837" fill="black"/>
<rect x="241" y="158" width="12" height="200" fill="black"/>
<rect x="256" y="206.062" width="12" height="151.938" fill="black"/>
<rect x="271" y="244.822" width="12" height="113.178" fill="black"/>
<rect x="302" y="229" width="12" height="129" fill="black"/>
<rect x="317" y="260" width="12" height="98" fill="black"/>
<rect x="332" y="285" width="12" height="73" fill="black"/>
<path fill-rule="evenodd" clip-rule="evenodd" d="M48.9991 24H48L48 52H44V53H48L48 103H44V104H48V154H44V155H48V205H44V206H48V256H44V257H48V307H44V308H48V358H44V359H48V363H49V359H109V363H110V359H170V363H171V359H231V363H232V359H292V363H293V359H353V363H354V359H376V358.002H48.9991V24Z" fill="black"/>
</svg>
