<svg width="400" height="400" viewBox="0 0 400 400" fill="none" xmlns="http://www.w3.org/2000/svg">
<g clip-path="url(#clip0_1625_665)">
<rect x="24" y="83" width="8" height="16" transform="rotate(-90 24 83)" fill="black"/>
<rect x="24" y="144" width="8" height="16" transform="rotate(-90 24 144)" fill="black"/>
<rect x="24" y="204" width="8" height="16" transform="rotate(-90 24 204)" fill="black"/>
<rect x="24" y="266" width="8" height="16" transform="rotate(-90 24 266)" fill="black"/>
<rect x="24" y="327" width="8" height="16" transform="rotate(-90 24 327)" fill="black"/>
<rect x="135" y="376" width="8" height="24" transform="rotate(-90 135 376)" fill="black"/>
<rect x="85" y="376" width="8" height="24" transform="rotate(-90 85 376)" fill="black"/>
<rect x="33" y="376" width="8" height="24" transform="rotate(-90 33 376)" fill="black"/>
<rect x="185" y="376" width="8" height="24" transform="rotate(-90 185 376)" fill="black"/>
<rect x="237" y="376" width="8" height="24" transform="rotate(-90 237 376)" fill="black"/>
<rect x="289" y="376" width="8" height="24" transform="rotate(-90 289 376)" fill="black"/>
<rect x="341" y="376" width="8" height="24" transform="rotate(-90 341 376)" fill="black"/>
<path fill-rule="evenodd" clip-rule="evenodd" d="M376 354.001L376 355L351.5 355L351.5 359L350.5 359L350.5 355L300.5 355L300.5 359L299.5 359L299.5 355L249.5 355L249.5 359L248.5 359L248.5 355L198.5 355L198.5 359L197.5 359L197.5 355L147.5 355L147.5 359L146.5 359L146.5 355L96.5 355L96.5 359L95.5 359L95.5 355L45.5 355L45.5 359L44.5 359L44.5 355L40.5 355L40.5 354L44.5 354L44.5 294L40.5 294L40.5 293L44.5 293L44.5 233L40.5 233L40.5 232L44.5 232L44.5 172L40.5 172L40.5 171L44.5 171L44.5 111L40.5 111L40.5 110L44.5 110L44.5 50L40.5 50L40.5 49L44.5 49L44.5 27L45.4983 27L45.4984 354.001L376 354.001Z" fill="black"/>
<path d="M197 88H225V102.518C223.811 100.694 222.627 99.2208 221.404 98.0487C217.929 94.7183 214.353 94 210.5 94C206.084 94 202.128 94.9679 198.323 98.4625C197.878 98.8718 197.437 99.3133 197 99.7885V88Z" fill="black"/>
<path d="M217.252 102.38C219.402 104.44 221.821 108.295 225 115.621V355H197V110.243C198.978 106.718 200.724 104.404 202.382 102.881C204.804 100.657 207.165 100 210.5 100C213.397 100 215.258 100.469 217.252 102.38Z" fill="black"/>
<path d="M139 185H162.469C160.15 191.846 157.666 199.204 154.997 207.11C154.233 209.375 153.453 211.684 152.658 214.04C148.433 226.552 143.839 237.955 139 248.34V185Z" fill="black"/>
<path d="M158.342 215.96C152.497 233.27 145.945 248.524 139 261.945V355H167V190.329C164.971 196.326 162.815 202.71 160.521 209.505L160.52 209.508L158.342 215.96Z" fill="black"/>
<path d="M254 200.519C249.216 185.619 245.11 172.884 241.537 162H226V355H254V200.519Z" fill="black"/>
<path d="M247.852 162C249.751 167.797 251.793 174.093 254 180.929V162H247.852Z" fill="black"/>
<path d="M255 229H263.497C268.268 241.412 274.899 255.515 283 269.651V355H255V229Z" fill="black"/>
<path d="M269.937 229C273.413 237.784 277.815 247.388 283 257.208V229H269.937Z" fill="black"/>
<path d="M284 279H288.576C292.312 285.02 296.301 290.979 300.513 296.746C304.165 301.747 308 306.626 312 311.29V355H284V279Z" fill="black"/>
<path d="M305.359 293.208C307.52 296.167 309.735 299.067 312 301.891V279H295.665C298.738 283.815 301.975 288.574 305.359 293.208Z" fill="black"/>
<path d="M138 309H110V355H138V309Z" fill="black"/>
<path d="M109 338H81V355H109V338Z" fill="black"/>
<path d="M196 214H168V355H196V214Z" fill="black"/>
<path d="M313 343H341V355H313V343Z" fill="black"/>
<path d="M158.214 208.523L158.22 208.505C174.551 160.131 183.888 132.473 190.939 116.83C194.624 108.653 197.657 103.827 200.691 101.04C203.689 98.2866 206.715 97.5 210.5 97.5C213.795 97.5 216.371 98.073 218.982 100.576C221.637 103.12 224.356 107.685 227.791 115.787C234.612 131.871 244.15 161.612 261.689 216.302L261.69 216.304L262.038 217.388C268.991 239.069 284.514 270.433 304.743 297.82C324.958 325.187 349.955 348.696 375.891 354.488L376.109 353.512C350.545 347.804 325.734 324.555 305.548 297.226C285.377 269.919 269.907 238.651 262.99 217.083L262.605 215.883C245.098 161.295 235.55 131.523 228.712 115.397C225.271 107.282 222.488 102.551 219.674 99.8536C216.816 97.1145 213.955 96.5 210.5 96.5C206.535 96.5 203.243 97.3384 200.015 100.304C196.823 103.236 193.722 108.222 190.027 116.42C182.956 132.108 173.605 159.806 157.301 208.104C156.557 210.306 155.799 212.551 155.026 214.84C123.765 307.422 67.2978 345.071 44.8237 353.532L45.1761 354.468C67.9458 345.895 124.622 308.01 155.974 215.16C156.735 212.905 157.482 210.693 158.214 208.523Z" fill="black"/>
</g>
<defs>
<clipPath id="clip0_1625_665">
<rect width="352" height="349" fill="white" transform="translate(24 27)"/>
</clipPath>
</defs>
</svg>
