<svg width="400" height="400" viewBox="0 0 400 400" fill="none" xmlns="http://www.w3.org/2000/svg">
<rect x="24" y="83" width="8" height="16" transform="rotate(-90 24 83)" fill="#A8A8A8"/>
<rect x="24" y="144" width="8" height="16" transform="rotate(-90 24 144)" fill="#A8A8A8"/>
<rect x="24" y="204" width="8" height="16" transform="rotate(-90 24 204)" fill="#A8A8A8"/>
<rect x="24" y="266" width="8" height="16" transform="rotate(-90 24 266)" fill="#A8A8A8"/>
<rect x="24" y="327" width="8" height="16" transform="rotate(-90 24 327)" fill="#A8A8A8"/>
<rect x="135" y="376" width="8" height="24" transform="rotate(-90 135 376)" fill="#A8A8A8"/>
<rect x="85" y="376" width="8" height="24" transform="rotate(-90 85 376)" fill="#A8A8A8"/>
<rect x="33" y="376" width="8" height="24" transform="rotate(-90 33 376)" fill="#A8A8A8"/>
<rect x="185" y="376" width="8" height="24" transform="rotate(-90 185 376)" fill="#A8A8A8"/>
<rect x="237" y="376" width="8" height="24" transform="rotate(-90 237 376)" fill="#A8A8A8"/>
<rect x="289" y="376" width="8" height="24" transform="rotate(-90 289 376)" fill="#A8A8A8"/>
<rect x="341" y="376" width="8" height="24" transform="rotate(-90 341 376)" fill="#A8A8A8"/>
<path fill-rule="evenodd" clip-rule="evenodd" d="M376 354.501L376 355.5L351.5 355.5L351.5 359.5L350.5 359.5L350.5 355.5L300.5 355.5L300.5 359.5L299.5 359.5L299.5 355.5L249.5 355.5L249.5 359.5L248.5 359.5L248.5 355.5L198.5 355.5L198.5 359.5L197.5 359.5L197.5 355.5L147.5 355.5L147.5 359.5L146.5 359.5L146.5 355.5L96.5 355.5L96.5 359.5L95.5 359.5L95.5 355.5L45.5 355.5L45.5 359.5L44.5 359.5L44.5 355.5L40.5 355.5L40.5 354.5L44.5 354.5L44.5 294.5L40.5 294.5L40.5 293.5L44.5 293.5L44.5 233.5L40.5 233.5L40.5 232.5L44.5 232.5L44.5 172.5L40.5 172.5L40.5 171.5L44.5 171.5L44.5 111.5L40.5 111.5L40.5 110.5L44.5 110.5L44.5 50.5L40.5 50.5L40.5 49.5L44.5 49.5L44.5 27.5L45.4983 27.5L45.4984 354.501L376 354.501Z" fill="#A8A8A8"/>
<path fill-rule="evenodd" clip-rule="evenodd" d="M118.545 220.032L116.332 218.797C104.118 211.982 88.9769 213.343 78.1734 222.225L45 249.5V279.714C48.9837 275.096 53.6557 270.516 58.8051 266.724C69.4389 258.894 82.645 254.078 96.0429 260.228C125.607 273.798 150.024 265.991 164.294 252.672C171.797 245.669 182.815 235.901 195.362 230.339C208.021 224.728 222.533 223.293 236.475 233.481C249.409 242.933 264.404 252.247 278.588 256.873C292.799 261.509 305.534 261.255 314.801 252.666C325.72 242.546 339.772 234.373 351 228.924V179L325.234 164.483C310.876 156.393 292.784 159.765 282.304 172.484L272.513 184.367C260.35 199.129 237.869 199.512 225.21 185.173C211.336 169.457 186.203 171.696 175.325 189.616L164.174 207.983C154.682 223.62 134.52 228.944 118.545 220.032ZM45 330.81V287.649C49.4602 281.797 55.2347 275.563 61.7699 270.75C71.7444 263.406 82.955 259.722 93.9571 264.772C125.393 279.202 151.976 271.008 167.706 256.328C175.203 249.331 185.685 240.099 197.388 234.91C208.979 229.772 221.467 228.707 233.525 237.518C246.591 247.067 262.096 256.753 277.037 261.627C291.951 266.491 306.966 266.745 318.199 256.333C327.99 247.259 340.52 239.754 351 234.499V292.688C330.043 293.714 290.549 299.22 256.41 315.75C244.783 321.38 235.622 323.362 228.154 323.157C220.724 322.953 214.777 320.58 209.558 317.159C204.483 313.833 200.141 309.555 195.743 305.223L195.199 304.687C190.7 300.258 186.057 295.753 180.705 292.81C177.792 291.207 174.941 290.645 172.126 290.984C169.361 291.317 166.826 292.495 164.466 294.042C162.112 295.584 159.803 297.581 157.501 299.686C156.66 300.455 155.826 301.233 154.986 302.016L154.984 302.018C153.47 303.43 151.934 304.863 150.287 306.31C145.226 310.757 139.621 314.875 132.708 317.01C125.854 319.126 117.496 319.357 106.822 315.639C88.3155 309.193 72.8007 312.082 60.9729 318.394C54.5002 321.849 49.1481 326.317 45 330.81ZM45 338.614V354.5H351V297.693C330.484 298.725 291.842 304.149 258.59 320.25C246.467 326.12 236.503 328.388 228.017 328.155C219.495 327.922 212.66 325.171 206.817 321.341C201.315 317.735 196.652 313.139 192.34 308.889L192.159 308.711C192.003 308.557 191.847 308.404 191.691 308.25C187.113 303.742 182.943 299.747 178.295 297.191C176.208 296.043 174.402 295.746 172.724 295.948C170.994 296.156 169.197 296.919 167.206 298.224C165.209 299.533 163.147 301.298 160.876 303.375C160.108 304.077 159.308 304.823 158.482 305.593L158.48 305.595C156.926 307.044 155.282 308.577 153.588 310.065C148.337 314.68 142.098 319.343 134.183 321.787C126.209 324.249 116.754 324.393 105.178 320.361C88.0845 314.407 74.016 317.101 63.3271 322.806C55.2335 327.125 49.0467 333.192 45 338.614Z" fill="#A8A8A8"/>
</svg>
