<svg width="20" height="20" viewBox="0 0 20 20" fill="none" xmlns="http://www.w3.org/2000/svg">
<path fill-rule="evenodd" clip-rule="evenodd" d="M19.5 20C19.7761 20 20 19.7761 20 19.5C20 19.2239 19.7761 19 19.5 19H0.999999L1 1.5C1 1.22386 0.776142 1 0.5 1C0.223858 1 0 1.22386 0 1.5V19C0 19.5523 0.447714 20 0.999999 20H19.5ZM14 4C14 4.55229 13.5523 5 13 5C12.4477 5 12 4.55229 12 4C12 3.44772 12.4477 3 13 3C13.5523 3 14 3.44772 14 4ZM13.419 5.95605C13.2839 5.98485 13.1437 6 13 6C12.8411 6 12.6865 5.98146 12.5382 5.94643L9.36665 11.5398C9.75643 11.9047 10 12.4239 10 13C10 14.1046 9.10457 15 8 15C6.89543 15 6 14.1046 6 13C6 12.6083 6.11259 12.2429 6.30718 11.9345L4.66815 9.88567C4.45922 9.95971 4.23431 10 4 10C2.89543 10 2 9.10457 2 8C2 6.89543 2.89543 6 4 6C5.10457 6 6 6.89543 6 8C6 8.50763 5.81088 8.97109 5.49925 9.32376L7.03741 11.2465C7.32298 11.0894 7.65105 11 8 11C8.16869 11 8.33251 11.0209 8.489 11.0602L11.6537 5.47902C11.2521 5.11322 11 4.58604 11 4C11 2.89543 11.8954 2 13 2C14.1046 2 15 2.89543 15 4C15 4.60198 14.734 5.14184 14.3132 5.5085L16.581 10.044C16.7161 10.0152 16.8563 10 17 10C18.1046 10 19 10.8954 19 12C19 13.1046 18.1046 14 17 14C15.8954 14 15 13.1046 15 12C15 11.398 15.2659 10.8582 15.6867 10.4916L13.419 5.95605ZM5 8C5 8.55229 4.55228 9 4 9C3.44772 9 3 8.55229 3 8C3 7.44772 3.44772 7 4 7C4.55228 7 5 7.44772 5 8ZM8 14C8.55228 14 9 13.5523 9 13C9 12.4477 8.55228 12 8 12C7.44772 12 7 12.4477 7 13C7 13.5523 7.44772 14 8 14ZM17 13C17.5523 13 18 12.5523 18 12C18 11.4477 17.5523 11 17 11C16.4477 11 16 11.4477 16 12C16 12.5523 16.4477 13 17 13Z" fill="black"/>
</svg>