<svg width="68" height="56" viewBox="0 0 68 56" fill="none" xmlns="http://www.w3.org/2000/svg">
<path fill-rule="evenodd" clip-rule="evenodd" d="M7.5 8H8.5V47.4999H60V48.4999H7.5V8Z" fill="#444444"/>
<path fill-rule="evenodd" clip-rule="evenodd" d="M47.0227 32.0472C45.6516 33.7163 44.1121 35.1178 42.4229 35.9061C40.3828 36.8581 38.6931 37.0118 37.1736 36.5694C35.7059 36.1421 34.5294 35.1904 33.4634 34.2498C33.2701 34.0792 33.0783 33.9073 32.8866 33.7355C30.9114 31.9653 28.9467 30.2044 25.4413 29.9982C24.0642 29.9172 22.5784 30.4892 21.0212 31.6363C19.4701 32.7789 17.9365 34.4286 16.4971 36.3288C13.6195 40.1275 11.3112 44.3859 10 47.4999H8.5V45.9999C9.85548 42.7807 11.8972 39.089 14.9029 35.1211C16.4052 33.1379 18.0716 31.3251 19.835 30.026C21.5924 28.7315 23.5358 27.8827 25.5587 28.0017C29.7904 28.2506 32.2484 30.4659 34.2118 32.2355C34.4079 32.4123 34.5991 32.5846 34.7866 32.7501C35.8456 33.6845 36.7316 34.3577 37.7327 34.6492C38.6819 34.9256 39.8672 34.8917 41.5771 34.0938C42.8879 33.482 44.2025 32.3295 45.4773 30.7777C46.745 29.2345 47.9285 27.3516 48.9925 25.3547C51.1212 21.3592 52.7225 16.9995 53.5406 14.2178L55.4594 14.7821C54.6109 17.667 52.9622 22.1573 50.7576 26.2952C49.6548 28.3649 48.4009 30.3695 47.0227 32.0472Z" fill="#6A6A6A"/>
<path d="M47.0227 32.0451C45.6516 33.7142 44.1121 35.1158 42.4229 35.904C40.3828 36.8561 38.6931 37.0097 37.1736 36.5674C35.7059 36.1401 34.5294 35.1883 33.4634 34.2477C33.2701 34.0772 33.0784 33.9053 32.8867 33.7335L32.8866 33.7334C30.9114 31.9632 28.9467 30.2023 25.4413 29.9961C24.0642 29.9151 22.5784 30.4871 21.0212 31.6342C19.4701 32.7769 17.9365 34.4265 16.4971 36.3267C13.6195 40.1254 11.3112 44.3838 10 47.4979H55.4594V14.78C54.6109 17.665 52.9622 22.1552 50.7576 26.2931C49.6548 28.3628 48.4009 30.3675 47.0227 32.0451Z" fill="#363636"/>
</svg>
