<svg width="20" height="20" viewBox="0 0 20 20" fill="none" xmlns="http://www.w3.org/2000/svg">
<path d="M9.00003 6.80902L12.2764 8.44721L12.7236 7.55279L10 6.19098V3H9.00003V6.80902Z" fill="black"/>
<path fill-rule="evenodd" clip-rule="evenodd" d="M10.2925 11.9434C12.9546 11.5591 15 9.26855 15 6.5C15 3.4624 12.5376 1 9.5 1C6.46246 1 4 3.4624 4 6.5C4 9.26855 6.04547 11.5591 8.70752 11.9434L9.5 13L10.2925 11.9434ZM14 6.5C14 8.98535 11.9853 11 9.5 11C7.01471 11 5 8.98535 5 6.5C5 4.01465 7.01471 2 9.5 2C11.9853 2 14 4.01465 14 6.5Z" fill="black"/>
<path fill-rule="evenodd" clip-rule="evenodd" d="M12 16.5C12 17.8809 10.8807 19 9.5 19C8.11926 19 7 17.8809 7 16.5C7 15.1191 8.11926 14 9.5 14C10.8807 14 12 15.1191 12 16.5ZM11 16.5C11 17.3286 10.3284 18 9.5 18C8.67157 18 8 17.3286 8 16.5C8 15.6714 8.67157 15 9.5 15C10.3284 15 11 15.6714 11 16.5Z" fill="black"/>
<path d="M6 16H0V17H6V16Z" fill="black"/>
<path d="M13 16H19V17H13V16Z" fill="black"/>
</svg>
