<svg width="16" height="16" viewBox="0 0 16 16" fill="none" xmlns="http://www.w3.org/2000/svg">
<path fill-rule="evenodd" clip-rule="evenodd" d="M12.4359 0L8.90039 3.53553L12.4359 7.07107L15.9715 3.53553L12.4359 0ZM12.4359 5.65685L10.3146 3.53553L12.4359 1.41421L14.5572 3.53553L12.4359 5.65685Z" fill="black"/>
<path d="M6 1.99978H1V0.999779H6V1.99978Z" fill="black"/>
<path d="M6 5.99978H1V4.99978H6V5.99978Z" fill="black"/>
<path fill-rule="evenodd" clip-rule="evenodd" d="M8.90039 12.3999L12.4359 8.86437L15.9715 12.3999L12.4359 15.9354L8.90039 12.3999ZM10.3146 12.3999L12.4359 14.5212L14.5572 12.3999L12.4359 10.2786L10.3146 12.3999Z" fill="black"/>
<path fill-rule="evenodd" clip-rule="evenodd" d="M3.53553 8.86437L0 12.3999L3.53553 15.9354L7.07107 12.3999L3.53553 8.86437ZM3.53553 14.5212L1.41421 12.3999L3.53553 10.2786L5.65685 12.3999L3.53553 14.5212Z" fill="black"/>
</svg>
