<svg width="16" height="16" viewBox="0 0 16 16" fill="none" xmlns="http://www.w3.org/2000/svg">
<path d="M12.153 5.554L11.446 4.847L13.646 2.647L14.354 3.354L12.153 5.554ZM2.646 13.646L3.353 14.353L5.553 12.153L4.847 11.446L2.646 13.646ZM11.446 12.153L13.646 14.353L14.353 13.647L12.153 11.447L11.446 12.153ZM5.554 4.847L3.354 2.647L2.647 3.353L4.847 5.553L5.554 4.847ZM9 1H8V4H9V1ZM8 16H9V13H8V16ZM16 9V8H13V9H16ZM1 9H4V8H1V9ZM5 8.5C5 7.80777 5.20527 7.13108 5.58986 6.5555C5.97444 5.97993 6.52107 5.53133 7.16061 5.26642C7.80015 5.00152 8.50388 4.9322 9.18282 5.06725C9.86175 5.2023 10.4854 5.53564 10.9749 6.02513C11.4644 6.51461 11.7977 7.13825 11.9327 7.81718C12.0678 8.49612 11.9985 9.19985 11.7336 9.83939C11.4687 10.4789 11.0201 11.0256 10.4445 11.4101C9.86892 11.7947 9.19223 12 8.5 12C7.57174 12 6.6815 11.6313 6.02513 10.9749C5.36875 10.3185 5 9.42826 5 8.5ZM6 8.5C6 8.99445 6.14662 9.4778 6.42133 9.88893C6.69603 10.3 7.08648 10.6205 7.54329 10.8097C8.00011 10.9989 8.50277 11.0484 8.98773 10.952C9.47268 10.8555 9.91814 10.6174 10.2678 10.2678C10.6174 9.91814 10.8555 9.47268 10.952 8.98773C11.0484 8.50277 10.9989 8.00011 10.8097 7.54329C10.6205 7.08648 10.3 6.69603 9.88893 6.42133C9.4778 6.14662 8.99445 6 8.5 6C7.8372 6.00079 7.20178 6.26444 6.73311 6.73311C6.26444 7.20178 6.00079 7.8372 6 8.5V8.5Z" fill="black"/>
</svg>
