<svg width="12" height="12" viewBox="0 0 12 12" fill="none" xmlns="http://www.w3.org/2000/svg">
<path fill-rule="evenodd" clip-rule="evenodd" d="M0.00672817 0.883379C0.0644932 0.38604 0.487164 0 1 0H11L11.1166 0.00672773C11.614 0.0644928 12 0.487164 12 1V8L11.9933 8.11662C11.9355 8.61396 11.5128 9 11 9H4L0 12V1L0.00672817 0.883379ZM11 1H1V10L3.66667 8H11V1ZM3 3.5C3 3.22386 3.22386 3 3.5 3H8.5C8.77614 3 9 3.22386 9 3.5C9 3.77614 8.77614 4 8.5 4H3.5C3.22386 4 3 3.77614 3 3.5ZM3.5 5C3.22386 5 3 5.22386 3 5.5C3 5.77614 3.22386 6 3.5 6H8.5C8.77614 6 9 5.77614 9 5.5C9 5.22386 8.77614 5 8.5 5H3.5Z" fill="black"/>
</svg>
