<svg width="16" height="16" viewBox="0 0 16 16" fill="none" xmlns="http://www.w3.org/2000/svg">
<path d="M14 2C15.1046 2 16 2.89543 16 4V12C16 13.1046 15.1046 14 14 14H2C0.895431 14 0 13.1046 0 12V4L0.000152588 3.98563C0.000367588 3.9779 0.000737256 3.97016 0.00131226 3.96243L0 4C0 2.89543 0.895431 2 2 2H14ZM14.9999 4.93399L8.27734 9.41602C8.10939 9.52798 7.89061 9.52798 7.72266 9.41602L0.999939 4.935L1 12C1 12.5523 1.44771 13 2 13H14C14.5523 13 15 12.5523 15 12L14.9999 4.93399ZM14 3H2C1.53319 3 1.14107 3.31987 1.03088 3.75238L8 8.39801L14.9691 3.75238C14.8589 3.31987 14.4668 3 14 3Z" fill="black"/>
</svg>
