<svg width="12" height="12" viewBox="0 0 12 12" fill="none" xmlns="http://www.w3.org/2000/svg">
<path d="M11.5688 4.80751L10.5 6.68251V9.47251C10.4961 9.64693 10.424 9.81288 10.2993 9.93484C10.1745 10.0568 10.007 10.1251 9.83252 10.125H9.37502V2.90626C9.37405 2.83197 9.3441 2.761 9.29157 2.70846C9.23903 2.65593 9.16806 2.62598 9.09377 2.62501H4.50002V0.491262C4.49951 0.472593 4.504 0.454127 4.51301 0.437768C4.52202 0.421409 4.53523 0.40775 4.55127 0.398197C4.56732 0.388645 4.58563 0.383545 4.6043 0.383425C4.62298 0.383305 4.64135 0.388168 4.65752 0.397512L6.56627 1.50001H9.83252C10.0096 1.50001 10.1793 1.57034 10.3045 1.69552C10.4297 1.8207 10.5 1.99048 10.5 2.16751V3.82501L11.4525 4.37626C11.4889 4.3965 11.5209 4.42383 11.5465 4.45665C11.5722 4.48946 11.591 4.52709 11.6018 4.56731C11.6127 4.60752 11.6153 4.6495 11.6097 4.69076C11.604 4.73202 11.5901 4.77172 11.5688 4.80751V4.80751ZM4.50002 6.75001H7.50002V4.50001H4.50002V6.75001ZM7.35752 8.62501H2.90627C2.83198 8.62404 2.761 8.5941 2.70847 8.54156C2.65593 8.48903 2.62599 8.41805 2.62502 8.34376V1.50001H2.16752C1.99049 1.50001 1.82071 1.57034 1.69552 1.69552C1.57034 1.8207 1.50002 1.99048 1.50002 2.16751V4.87501L0.416269 6.75001C0.375276 6.82279 0.36449 6.90875 0.386231 6.9894C0.407971 7.07005 0.460501 7.13895 0.532519 7.18126L1.50002 7.72126V9.45001C1.49903 9.5383 1.51556 9.6259 1.54866 9.70776C1.58176 9.78961 1.63077 9.86408 1.69285 9.92686C1.75494 9.98964 1.82886 10.0395 1.91033 10.0735C1.99181 10.1075 2.07923 10.125 2.16752 10.125H5.40002L7.34252 11.25C7.35841 11.2592 7.37643 11.264 7.39479 11.2641C7.41314 11.2641 7.43118 11.2594 7.44712 11.2502C7.46305 11.2411 7.47632 11.228 7.4856 11.2122C7.49489 11.1964 7.49986 11.1784 7.50002 11.16V8.76376C7.49904 8.72662 7.4836 8.69133 7.45698 8.66541C7.43036 8.6395 7.39467 8.625 7.35752 8.62501V8.62501Z" fill="white"/>
</svg>
