<svg width="16" height="16" viewBox="0 0 16 16" fill="none" xmlns="http://www.w3.org/2000/svg">
<g clip-path="url(#clip0_106_480)">
<path d="M3.5 13H12.5C13.3009 13.0009 14.0779 12.7268 14.701 12.2235C15.324 11.7202 15.7554 11.0182 15.9228 10.235C16.0903 9.45171 15.9838 8.63471 15.621 7.92062C15.2583 7.20653 14.6613 6.63865 13.93 6.31198C13.7731 5.40537 13.3076 4.58089 12.6124 3.9782C11.9171 3.37552 11.035 3.03169 10.1153 3.00498C9.19556 2.97826 8.29491 3.2703 7.56588 3.83162C6.83685 4.39293 6.32428 5.18901 6.115 6.08498C5.78402 5.99536 5.43797 5.97586 5.09902 6.02774C4.76007 6.07962 4.4357 6.20174 4.14668 6.38626C3.85766 6.57078 3.61038 6.81363 3.42066 7.09927C3.23095 7.3849 3.103 7.70702 3.045 8.04498C2.43153 8.15751 1.88235 8.49547 1.50543 8.99241C1.12852 9.48934 0.95114 10.1093 1.00817 10.7304C1.06521 11.3515 1.35252 11.9288 1.81364 12.3488C2.27475 12.7688 2.87629 13.001 3.5 13ZM5.5 6.99998C5.62444 7.00254 5.74807 7.02068 5.868 7.05398L6.855 7.30598L7.088 6.31398C7.24427 5.64199 7.62819 5.04475 8.17464 4.62358C8.72109 4.20241 9.39641 3.98324 10.086 4.00326C10.7757 4.02327 11.4371 4.28124 11.9582 4.7334C12.4793 5.18555 12.828 5.80406 12.945 6.48398L13.037 7.00598L13.521 7.22398C14.0437 7.45684 14.4706 7.86227 14.7301 8.37234C14.9895 8.88242 15.0658 9.46616 14.9462 10.0258C14.8265 10.5854 14.5182 11.0869 14.0729 11.4463C13.6276 11.8057 13.0723 12.0012 12.5 12H3.5C3.12728 11.9988 2.7684 11.8587 2.49345 11.607C2.21851 11.3554 2.04725 11.0103 2.01313 10.6391C1.97902 10.2679 2.08449 9.8974 2.30895 9.59985C2.53342 9.30229 2.86075 9.09911 3.227 9.02998L3.905 8.90398L4.029 8.22698C4.09193 7.88268 4.27359 7.57135 4.54236 7.34717C4.81113 7.12298 5.15 7.00012 5.5 6.99998ZM10 11H5V9.99998H10V11ZM9 14H15V15H9V14ZM0 15H4V16H0V15ZM5 15H7V16H5V15ZM12 11H11V9.99998H12V11Z" fill="black"/>
</g>
<defs>
<clipPath id="clip0_106_480">
<rect width="16" height="16" fill="white"/>
</clipPath>
</defs>
</svg>
