<svg width="16" height="16" viewBox="0 0 16 16" fill="none" xmlns="http://www.w3.org/2000/svg">
<g clip-path="url(#clip0_106_474)">
<path d="M8 5.99995H9V6.99995H8V5.99995ZM8 8.99995H9V7.99995H8V8.99995ZM8 11H9V9.99995H8V11ZM8 13H9V12H8V13ZM16 15V16H0V15H6V7.99995H5V6.99995H6V4.57195L11 1.00195V15H16ZM10 15V2.94395L7 5.08695V15H10ZM4 10.395V9.55295C3.35761 9.58729 2.71879 9.43721 2.1589 9.12041C1.599 8.80361 1.14138 8.3333 0.84 7.76495C1.28754 7.16462 1.92227 6.73045 2.644 6.53095C2.43897 6.85177 2.32714 7.22326 2.321 7.60395C2.32113 7.80773 2.36372 8.00925 2.44605 8.19566C2.52838 8.38207 2.64864 8.54929 2.79917 8.68665C2.9497 8.82401 3.12719 8.9285 3.32034 8.99346C3.51349 9.05842 3.71806 9.08243 3.921 9.06395C3.948 9.06395 3.974 9.05895 4.001 9.05795V5.60795C3.961 5.60795 3.921 5.59995 3.881 5.59995C3.15542 5.62107 2.44203 5.79185 1.78555 6.1016C1.12906 6.41134 0.543648 6.85336 0.066 7.39995C0.0298021 7.45294 0.0078453 7.51434 0.00224109 7.57827C-0.00336313 7.64219 0.00757376 7.70648 0.034 7.76495C0.311127 8.58022 0.850731 9.28061 1.56836 9.75649C2.28599 10.2324 3.14115 10.4569 4 10.395ZM13 6.99995H12V7.99995H13V6.99995ZM13.354 4.71195L12.647 5.41895L14.227 6.99995H14V7.99995H14.27L12.647 9.62295L13.354 10.33L16 7.68395V7.35895L13.354 4.71195Z" fill="black"/>
</g>
<defs>
<clipPath id="clip0_106_474">
<rect width="16" height="16" fill="white"/>
</clipPath>
</defs>
</svg>
