<svg width="16" height="16" viewBox="0 0 16 16" fill="none" xmlns="http://www.w3.org/2000/svg">
<path d="M4.48155 2.52006L3.85555 0.335059L4.81555 0.0600586L5.44255 2.24306C5.11149 2.29198 4.78836 2.38444 4.48155 2.51806V2.52006ZM2.34655 7.04606C2.30575 6.88388 2.27569 6.71919 2.25655 6.55306L0.0605469 7.18306L0.335547 8.14306L2.53155 7.51306C2.45968 7.36163 2.39788 7.20562 2.34655 7.04606ZM2.67655 4.15606C2.75788 4.01023 2.84875 3.86993 2.94855 3.73606L1.15855 2.74406L0.674547 3.61906L2.47655 4.61806C2.533 4.46016 2.59982 4.30616 2.67655 4.15706V4.15606ZM7.84255 2.67606C7.98633 2.76188 8.12429 2.85709 8.25555 2.96106L9.25455 1.15806L8.37955 0.675059L7.38755 2.46406C7.54376 2.52491 7.69576 2.59607 7.84255 2.67706V2.67606ZM15.9995 9.50006C15.9995 10.4283 15.6308 11.3186 14.9744 11.9749C14.318 12.6313 13.4278 13.0001 12.4995 13.0001H3.49955C2.8941 13.0016 2.3088 12.7827 1.85297 12.3843C1.39714 11.9858 1.10196 11.435 1.02259 10.8348C0.943209 10.2346 1.08506 9.62597 1.42164 9.12271C1.75822 8.61944 2.26651 8.25592 2.85155 8.10006C2.91655 8.08206 2.97855 8.05806 3.04555 8.04606C3.11031 7.70849 3.24447 7.38806 3.43955 7.10506C3.17294 6.53974 3.10574 5.90076 3.24891 5.29235C3.39207 4.68393 3.73715 4.14197 4.22786 3.75485C4.71858 3.36773 5.32598 3.15829 5.95101 3.16069C6.57604 3.16309 7.18182 3.37718 7.66955 3.76806C8.21597 3.36803 8.85563 3.11442 9.52772 3.03136C10.1998 2.94829 10.882 3.03853 11.5093 3.29349C12.1367 3.54844 12.6884 3.95965 13.112 4.48799C13.5357 5.01634 13.8171 5.64426 13.9295 6.31206C14.5454 6.58705 15.0685 7.03437 15.4358 7.60005C15.8031 8.16573 15.9989 8.8256 15.9995 9.50006ZM14.9995 9.50006C14.9979 9.01852 14.8574 8.54767 14.5949 8.14397C14.3324 7.74027 13.959 7.42087 13.5195 7.22406L13.0365 7.00606L12.9445 6.48406C12.8275 5.80414 12.4789 5.18564 11.9578 4.73348C11.4367 4.28132 10.7752 4.02335 10.0856 4.00334C9.39595 3.98332 8.72063 4.20249 8.17419 4.62366C7.62774 5.04483 7.24382 5.64207 7.08755 6.31406L6.85455 7.30606L5.86755 7.05406C5.66938 6.99846 5.4617 6.98532 5.2581 7.01552C5.05451 7.04572 4.85958 7.11856 4.68608 7.22929C4.51258 7.34002 4.36441 7.48613 4.25127 7.65807C4.13814 7.83001 4.06258 8.0239 4.02955 8.22706L3.90555 8.90506L3.22755 9.02906C2.86022 9.09702 2.53154 9.29977 2.30598 9.59755C2.08042 9.89532 1.97426 10.2666 2.00832 10.6386C2.04238 11.0106 2.2142 11.3565 2.49008 11.6084C2.76596 11.8602 3.12599 11.9999 3.49955 12.0001H12.4995C13.1623 11.9993 13.7978 11.7356 14.2664 11.2669C14.7351 10.7983 14.9988 10.1629 14.9995 9.50006ZM4.24055 6.34006C4.51971 6.17371 4.82956 6.06538 5.15156 6.02157C5.47356 5.97775 5.80109 5.99935 6.11455 6.08506C6.25777 5.48957 6.53593 4.93497 6.92755 4.46406C6.90755 4.45206 6.89255 4.43706 6.87255 4.42606C6.66587 4.3113 6.43861 4.23839 6.20374 4.21151C5.96888 4.18464 5.73102 4.20431 5.50376 4.26941C5.27651 4.33452 5.06431 4.44377 4.8793 4.59093C4.69429 4.73809 4.5401 4.92027 4.42555 5.12706C4.22191 5.497 4.15634 5.92726 4.24055 6.34106V6.34006Z" fill="black"/>
</svg>
