<svg width="16" height="16" viewBox="0 0 16 16" fill="none" xmlns="http://www.w3.org/2000/svg">
<path d="M10 4H8V5H10V4Z" fill="black"/>
<path d="M12 11V10H8V11H12Z" fill="black"/>
<path d="M8 12H10V13H8V12Z" fill="black"/>
<path d="M12 6H8V7H12V6Z" fill="black"/>
<path d="M8 8H13V9H8V8Z" fill="black"/>
<path fill-rule="evenodd" clip-rule="evenodd" d="M16 8C16 12.4183 12.4183 16 8 16C3.58172 16 0 12.4183 0 8C0 3.58172 3.58172 0 8 0C12.4183 0 16 3.58172 16 8ZM15 8C15 11.866 11.866 15 8 15C4.13401 15 1 11.866 1 8C1 4.13401 4.13401 1 8 1C11.866 1 15 4.13401 15 8Z" fill="black"/>
</svg>
