<svg width="16" height="16" viewBox="0 0 16 16" fill="none" xmlns="http://www.w3.org/2000/svg">
<path fill-rule="evenodd" clip-rule="evenodd" d="M8 3C9.17453 3 10.2702 3.33748 11.1954 3.92076L12.0942 3.32157C10.9429 2.49003 9.5287 2 8 2C4.13401 2 1 5.13401 1 9C1 10.635 1.56057 12.1391 2.5 13.3306H13.5C14.4394 12.1391 15 10.635 15 9C15 7.51209 14.5358 6.1326 13.7443 4.99848L13.1406 5.904C13.6861 6.80786 14 7.86728 14 9C14 10.2334 13.6288 11.3779 12.9916 12.3306H3.0084C2.37118 11.3779 2 10.2334 2 9C2 5.68629 4.68629 3 8 3ZM7.81685 9.89922C7.65635 9.83269 7.51054 9.73517 7.38775 9.61225C7.26483 9.48946 7.16731 9.34365 7.10078 9.18315C7.03425 9.02266 7 8.85062 7 8.67687C7 8.50313 7.03425 8.33109 7.10078 8.1706C7.16731 8.0101 7.26483 7.86429 7.38775 7.7415L13 4L9.2585 9.61225C9.13571 9.73517 8.9899 9.83269 8.8294 9.89922C8.66891 9.96575 8.49687 10 8.32312 10C8.14938 10 7.97734 9.96575 7.81685 9.89922Z" fill="black"/>
</svg>
