<svg width="16" height="16" viewBox="0 0 16 16" fill="none" xmlns="http://www.w3.org/2000/svg">
<path fill-rule="evenodd" clip-rule="evenodd" d="M2.4 0.8V4H1.6C0.716344 4 0 4.71634 0 5.6V8.8C0 9.52231 0.478628 10.1328 1.13603 10.3317C1.38479 10.4069 1.6 10.1893 1.6 9.92941C1.6 9.74748 1.44643 9.60622 1.27974 9.53332C0.997336 9.40981 0.8 9.12795 0.8 8.8V5.6C0.8 5.15817 1.15817 4.8 1.6 4.8H14.4C14.8418 4.8 15.2 5.15817 15.2 5.6V8.8C15.2 9.12795 15.0027 9.40981 14.7203 9.53332C14.5536 9.60622 14.4 9.74748 14.4 9.92941C14.4 10.1893 14.6152 10.4069 14.864 10.3317C15.5214 10.1328 16 9.52231 16 8.8V5.6C16 4.71634 15.2837 4 14.4 4H13.6V0.8C13.6 0.358172 13.2418 0 12.8 0H3.2C2.75817 0 2.4 0.358172 2.4 0.8ZM12.8 0.8H3.2V4H12.8V0.8Z" fill="#C5C5C5"/>
<path d="M5.2 10.4C4.97909 10.4 4.8 10.5791 4.8 10.8C4.8 11.0209 4.97909 11.2 5.2 11.2H10.8C11.0209 11.2 11.2 11.0209 11.2 10.8C11.2 10.5791 11.0209 10.4 10.8 10.4H5.2Z" fill="#C5C5C5"/>
<path d="M5.2 12.8C4.97909 12.8 4.8 12.9791 4.8 13.2C4.8 13.4209 4.97909 13.6 5.2 13.6H8.4C8.62091 13.6 8.8 13.4209 8.8 13.2C8.8 12.9791 8.62091 12.8 8.4 12.8H5.2Z" fill="#C5C5C5"/>
<path fill-rule="evenodd" clip-rule="evenodd" d="M2.4 15.2V8.8H2C1.77909 8.8 1.6 8.62091 1.6 8.4C1.6 8.17909 1.77909 8 2 8H14C14.2209 8 14.4 8.17909 14.4 8.4C14.4 8.62091 14.2209 8.8 14 8.8H13.6V15.2C13.6 15.6418 13.2418 16 12.8 16H3.2C2.75817 16 2.4 15.6418 2.4 15.2ZM12.8 8.8V15.2H3.2V8.8H12.8Z" fill="#C5C5C5"/>
<path d="M12 6C12 5.77909 12.1791 5.6 12.4 5.6H13.2C13.4209 5.6 13.6 5.77909 13.6 6C13.6 6.22091 13.4209 6.4 13.2 6.4H12.4C12.1791 6.4 12 6.22091 12 6Z" fill="#C5C5C5"/>
</svg>
