<svg width="16" height="16" viewBox="0 0 16 16" fill="none" xmlns="http://www.w3.org/2000/svg">
<path fill-rule="evenodd" clip-rule="evenodd" d="M4.18182 9.72738C5.23618 9.72738 6.09091 8.87265 6.09091 7.81829C6.09091 6.76393 5.23618 5.9092 4.18182 5.9092C3.12746 5.9092 2.27273 6.76393 2.27273 7.81829C2.27273 8.87265 3.12746 9.72738 4.18182 9.72738ZM7.29999 7.18193C7.00518 5.72959 5.72116 4.63647 4.18182 4.63647C2.42455 4.63647 1 6.06102 1 7.81829C1 9.57556 2.42455 11.0001 4.18182 11.0001C5.72116 11.0001 7.00518 9.90699 7.29999 8.45466H8.70001C8.99482 9.90699 10.2788 11.0001 11.8182 11.0001C13.5755 11.0001 15 9.57556 15 7.81829C15 6.06102 13.5755 4.63647 11.8182 4.63647C10.2788 4.63647 8.99482 5.72959 8.70001 7.18193H7.29999Z" fill="black"/>
</svg>
