<?xml version="1.0" encoding="UTF-8"?>
<svg width="16" height="16" viewBox="0 0 16 16" fill="none" xmlns="http://www.w3.org/2000/svg">
    <path d="M14.4172 0H0V12.8883H5.60671V12.0827H0.800958V0.805516H13.6163V6.04137H14.4172V0Z" fill="white"/>
    <path fill-rule="evenodd" clip-rule="evenodd" d="M10.4125 14.9021C11.5078 14.9021 12.5098 14.5001 13.2804 13.8346L15.4336 16L16 15.4305L13.8386 13.2568C14.4509 12.4959 14.8177 11.5268 14.8177 10.4717C14.8177 8.02488 12.8454 6.04137 10.4125 6.04137C7.97952 6.04137 6.00719 8.02488 6.00719 10.4717C6.00719 12.9185 7.97952 14.9021 10.4125 14.9021ZM10.4125 14.0965C12.4031 14.0965 14.0168 12.4737 14.0168 10.4717C14.0168 8.46972 12.4031 6.84689 10.4125 6.84689C8.42184 6.84689 6.80814 8.46972 6.80814 10.4717C6.80814 12.4737 8.42184 14.0965 10.4125 14.0965Z" fill="white"/>
    <path d="M2.40287 2.41655H12.0144V3.22207H2.40287V2.41655Z" fill="white"/>
    <path d="M7.20862 4.8331H2.40287V5.63861H7.20862V4.8331Z" fill="white"/>
    <path d="M2.40287 7.24965H4.80575V8.05516H2.40287V7.24965Z" fill="white"/>
    <path d="M4.80575 9.6662H2.40287V10.4717H4.80575V9.6662Z" fill="white"/>
</svg>
