<svg width="16" height="16" viewBox="0 0 16 16" fill="none" xmlns="http://www.w3.org/2000/svg">
<path fill-rule="evenodd" clip-rule="evenodd" d="M1 3C1 1.89543 1.89543 1 3 1H11.0858C11.351 1 11.6054 1.10536 11.7929 1.29289L14.7071 4.20711C14.8946 4.39464 15 4.649 15 4.91421V6.89577L14.3877 6.28347C14.0208 5.91653 13.4381 5.90421 13.0864 6.25596L10.18 9.16229C9.70873 8.46125 8.90823 8 8 8C6.55025 8 5.375 9.17525 5.375 10.625C5.375 11.5332 5.83625 12.3337 6.53727 12.805L6.44518 12.8971L6.06746 15H3C1.89543 15 1 14.1046 1 13V3ZM2.75 3.75C2.75 3.19772 3.19772 2.75 3.75 2.75H9.625C10.1773 2.75 10.625 3.19772 10.625 3.75V5.25C10.625 5.80228 10.1773 6.25 9.625 6.25H3.75C3.19772 6.25 2.75 5.80228 2.75 5.25V3.75ZM13.6691 8.20477C13.9505 7.92337 14.4166 7.93322 14.7102 8.22678L15.7732 9.28983C16.0668 9.58338 16.0766 10.0495 15.7952 10.3309L10.4823 15.6438L8.53756 15.9931C8.29937 16.0359 8.0634 15.8758 8.01051 15.6356C7.99786 15.5782 7.99662 15.5193 8.00684 15.4624L8.35615 13.5177L13.6691 8.20477Z" fill="black"/>
</svg>
