<svg width="16" height="16" viewBox="0 0 16 16" fill="none" xmlns="http://www.w3.org/2000/svg">
<path d="M2.55556 4.75L2.85267 14.5C2.85267 14.8978 3.01656 15.2794 3.30828 15.5607C3.6 15.842 3.99566 16 4.40822 16H11.5918C12.0043 16 12.4 15.842 12.6917 15.5607C12.9834 15.2794 13.1473 14.8978 13.1473 14.5L13.4444 4.75H2.55556ZM6.88889 12.9722C6.88889 13.4018 6.54067 13.75 6.11111 13.75V13.75C5.68156 13.75 5.33333 13.4018 5.33333 12.9722V7.77778C5.33333 7.34822 5.68156 7 6.11111 7V7C6.54067 7 6.88889 7.34822 6.88889 7.77778V12.9722ZM10.5556 12.9722C10.5556 13.4018 10.2073 13.75 9.77778 13.75V13.75C9.34822 13.75 9 13.4018 9 12.9722V7.77778C9 7.34822 9.34822 7 9.77778 7V7C10.2073 7 10.5556 7.34822 10.5556 7.77778V12.9722ZM12.0581 2.5C11.7625 2.5 11.482 2.3692 11.292 2.14273L10.6331 1.35727C10.4431 1.1308 10.1626 1 9.86698 1H6.13302C5.8374 1 5.55693 1.1308 5.36693 1.35727L4.70796 2.14273C4.51796 2.3692 4.23749 2.5 3.94187 2.5H2C1.44772 2.5 1 2.94772 1 3.5V4H15V3.5C15 2.94772 14.5523 2.5 14 2.5H12.0581Z" fill="black"/>
</svg>