<svg width="16" height="16" viewBox="0 0 16 16" fill="none" xmlns="http://www.w3.org/2000/svg">
<path fill-rule="evenodd" clip-rule="evenodd" d="M5.736 1C6.16 1 6.568 1.18375 6.872 1.51625L8 2.75H14.4C15.28 2.75 16 3.5375 16 4.5V13.25C16 14.2125 15.28 15 14.4 15H1.6C0.72 15 0 14.2125 0 13.25L0.00799999 2.75C0.00799999 1.7875 0.72 1 1.6 1H5.736ZM5.87972 5.92161C6.44212 5.33242 7.20464 5.00098 8 5C8.79536 5.00098 9.55788 5.33242 10.1203 5.92161C10.6827 6.51079 10.9991 7.30962 11 8.14286C11.0009 8.82347 10.7887 9.4856 10.3959 10.0277L10.3956 10.0286C10.3956 10.0286 10.3135 10.1411 10.3015 10.1563L8 13L5.69955 10.1577C5.68618 10.1414 5.60437 10.0286 5.60437 10.0286C5.21136 9.48622 4.99905 8.82378 5 8.14286C5.00094 7.30962 5.31731 6.51079 5.87972 5.92161ZM7.39392 9.09311C7.57332 9.21869 7.78424 9.28571 8 9.28571C8.28922 9.28534 8.56648 9.16481 8.77099 8.95056C8.9755 8.73632 9.09055 8.44585 9.09091 8.14286C9.09091 7.91682 9.02693 7.69586 8.90706 7.50792C8.78719 7.31998 8.61681 7.17349 8.41747 7.08699C8.21813 7.00049 7.99879 6.97786 7.78717 7.02196C7.57556 7.06606 7.38118 7.1749 7.22861 7.33474C7.07605 7.49457 6.97215 7.6982 6.93005 7.9199C6.88796 8.14159 6.90956 8.37138 6.99213 8.58021C7.0747 8.78904 7.21453 8.96753 7.39392 9.09311Z" fill="black"/>
</svg>
