<svg width="16" height="16" viewBox="0 0 16 16" fill="none" xmlns="http://www.w3.org/2000/svg">
<path d="M10 5C11.1046 5 12 4.10457 12 3C12 1.89543 11.1046 1 10 1C8.89543 1 8 1.89543 8 3C8 4.10457 8.89543 5 10 5Z" fill="black"/>
<path d="M2 15C3.10457 15 4 14.1046 4 13C4 11.8954 3.10457 11 2 11C0.895431 11 0 11.8954 0 13C0 14.1046 0.895431 15 2 15Z" fill="black"/>
<path d="M16 13C16 14.1046 15.1046 15 14 15C12.8954 15 12 14.1046 12 13C12 11.8954 12.8954 11 14 11C15.1046 11 16 11.8954 16 13Z" fill="black"/>
<path d="M3.2002 9.63818L7.00637 4.99997L8.55244 6.2687L4.74627 10.9069L3.2002 9.63818Z" fill="black"/>
<path d="M13.5939 9.2224L12.2002 6L10.3645 6.79392L11.7582 10.0163L13.5939 9.2224Z" fill="black"/>
<path d="M10.5 12H5.5V14H10.5V12Z" fill="black"/>
</svg>
