<svg width="16" height="16" viewBox="0 0 16 16" fill="none" xmlns="http://www.w3.org/2000/svg">
<path d="M12.6867 9.07447L12.7601 8.94101C12.7734 8.91674 12.7787 8.88978 12.7774 8.86281L12.7654 8.72126C12.7627 8.68755 12.7227 8.67003 12.6974 8.69295L12.492 8.86821C12.4865 8.87266 12.4801 8.87588 12.4733 8.87764L12.3812 8.89517C12.3572 8.89921 12.3426 8.92348 12.3479 8.9464L12.3666 9.02324C12.3723 9.04631 12.3839 9.06744 12.4003 9.08448C12.4167 9.10153 12.4373 9.11389 12.4599 9.12031L12.5306 9.14053C12.592 9.15806 12.656 9.1311 12.6867 9.07447Z" fill="#050505"/>
<path d="M13.7992 9.3886C13.8192 9.3886 13.8392 9.38455 13.8579 9.37511L13.9992 9.30636C14.0006 9.30636 14.0006 9.30636 14.0019 9.30771L14.106 9.43713C14.1113 9.44387 14.1193 9.44791 14.1286 9.44791H14.198C14.222 9.44791 14.2353 9.42095 14.2207 9.40208L14.1126 9.26052L14.0659 9.22142L13.6845 9.02999H13.6831L13.5924 9.06639H13.523C13.5224 9.06639 13.5221 9.06639 13.5219 9.06622C13.5218 9.06615 13.5219 9.06637 13.5219 9.06622C13.5219 9.06602 13.5217 9.06542 13.5217 9.06504L13.4964 8.98145C13.4946 8.97604 13.4912 8.97132 13.4867 8.96793C13.4821 8.96455 13.4767 8.96268 13.471 8.96258H13.3777C13.3706 8.96258 13.3638 8.96542 13.3588 8.97047C13.3538 8.97553 13.351 8.98239 13.351 8.98954V9.07178H13.411V9.09605C13.411 9.1257 13.4337 9.15132 13.463 9.15536L13.5991 9.17154C13.5991 9.17154 13.6004 9.17154 13.6004 9.17289L13.6738 9.26456C13.6965 9.29288 13.6925 9.36163 13.6684 9.38994L13.6671 9.39129H13.7992V9.3886Z" fill="#050505"/>
<path d="M13.8779 6.77451L13.8298 6.81765C13.7765 6.86619 13.7445 6.93225 13.7365 7.00505C13.7298 7.07246 13.7005 7.13447 13.6538 7.18301C13.5857 7.25176 13.5004 7.29895 13.4083 7.31917L13.3897 7.32321L13.3136 7.38523C13.3136 7.38523 13.2923 7.49443 13.3136 7.52005C13.323 7.53218 13.363 7.52948 13.375 7.52005C13.391 7.50791 13.3923 7.4405 13.3923 7.4405L13.6338 7.35287C13.6338 7.35287 13.6938 7.43242 13.7231 7.43646C13.7365 7.43781 13.7658 7.42298 13.7738 7.41084C13.8058 7.36636 13.8418 7.20323 13.8418 7.20323C13.8539 7.16683 13.8619 7.12773 13.8659 7.08998L13.8792 6.94708L13.9872 6.94034L14.0299 6.85271L13.9179 6.84192L13.8779 6.77451Z" fill="#050505"/>
<path d="M9.42667 10.1193C9.42667 10.1193 9.46269 10.1908 9.54939 10.1908C9.63609 10.1908 9.67211 10.1193 9.67211 10.1193V9.7863C9.67211 9.68924 9.56673 9.62992 9.48536 9.68115C9.44935 9.70407 9.42667 9.74316 9.42667 9.7863V10.1193Z" fill="#050505"/>
<path d="M6.69753 4.31547L6.84159 4.23054L6.84426 4.22514C6.8492 4.21531 6.85154 4.20436 6.85107 4.19335C6.85059 4.18234 6.84731 4.17164 6.84154 4.16228C6.83577 4.15293 6.82771 4.14524 6.81814 4.13995C6.80857 4.13467 6.79781 4.13197 6.7869 4.13212H6.45877L6.42409 4.09437C6.38407 4.04853 6.32671 4.02157 6.26669 4.02022L5.77848 4C5.76248 4.0027 5.74647 4.00573 5.73046 4.00876C5.71446 4.0118 5.69845 4.01483 5.68244 4.01753L5.39299 4.14021C5.36898 4.15099 5.34364 4.15639 5.31696 4.15773L4.85276 4.18065C4.81808 4.182 4.78474 4.19279 4.75406 4.20897L4.49395 4.35726C4.48967 4.35972 4.48606 4.36322 4.48347 4.36745C4.48088 4.37168 4.47938 4.3765 4.47911 4.38147C4.47885 4.38643 4.47982 4.39139 4.48195 4.39588C4.48408 4.40036 4.48728 4.40424 4.49128 4.40714C4.51129 4.42197 4.50462 4.45433 4.48061 4.45972L4.27786 4.51095C4.25785 4.51635 4.24985 4.53926 4.25918 4.55544L4.32721 4.66734C4.33121 4.67408 4.33922 4.67947 4.34722 4.68082L4.71137 4.74418C4.7674 4.75362 4.81675 4.78463 4.85143 4.83047L5.1022 5.16346L5.17557 5.26457C5.20224 5.30097 5.19824 5.35086 5.1689 5.38321L5.11287 5.44253C5.0862 5.47084 5.08086 5.51264 5.0982 5.54769L5.28094 5.91708C5.29695 5.95079 5.32763 5.97505 5.36231 5.98584C5.47569 6.01954 5.59574 5.95753 5.63576 5.84428L5.68378 5.70677C5.69045 5.68655 5.70512 5.66902 5.72379 5.65689L5.92788 5.48163C5.95322 5.46006 5.98257 5.44523 6.01325 5.43579L6.33338 5.34816C6.40141 5.32929 6.4561 5.28075 6.48144 5.21469L6.63217 4.83721C6.65485 4.78193 6.65352 4.71992 6.63084 4.66464L6.60149 4.59454C6.56014 4.49343 6.60016 4.37344 6.69753 4.31547Z" fill="#050505"/>
<path d="M4.02975 4.64307L4.09111 4.53387C4.11246 4.49612 4.1418 4.46646 4.17915 4.44624L4.68336 4.16448L4.626 4.09842L4.05376 4.06336C4.03776 4.06202 4.02042 4.06336 4.00441 4.06606L3.44684 4.15639C3.4135 4.16178 3.38148 4.17391 3.35347 4.19414C3.24143 4.27098 3.22142 4.43006 3.30945 4.53387L3.43484 4.68082C3.47752 4.73205 3.54155 4.76036 3.60691 4.76036H3.83101C3.91371 4.76036 3.98974 4.71587 4.02975 4.64307Z" fill="#050505"/>
<path d="M4.66602 5.67172L4.71804 5.61105C4.73138 5.59487 4.72871 5.57061 4.71137 5.55982L4.54864 5.44388L3.9804 5.01921C3.95639 5.00168 3.92838 4.99225 3.89903 4.99225H3.67494C3.63892 4.99225 3.60558 5.00573 3.58023 5.03134L3.46152 5.14728C3.45504 5.15322 3.45113 5.1615 3.45063 5.17033C3.45013 5.17915 3.45308 5.18782 3.45885 5.19447L3.52554 5.2794C3.53221 5.28884 3.54422 5.29423 3.55622 5.29289L3.62025 5.28749C3.64026 5.28615 3.65627 5.30097 3.6576 5.31985L3.66027 5.3576C3.66027 5.36299 3.66027 5.36838 3.6576 5.37378L3.62825 5.44658C3.62292 5.45871 3.62559 5.47354 3.63359 5.48298L3.70429 5.56656C3.71095 5.57465 3.72163 5.58004 3.7323 5.5787L3.80033 5.576C3.819 5.57465 3.83367 5.55982 3.83367 5.54095V5.394C3.83367 5.37512 3.84835 5.36029 3.86569 5.35895L3.96039 5.3522C3.9684 5.3522 3.97773 5.35355 3.9844 5.35895L4.15781 5.49241C4.17115 5.5032 4.17515 5.52073 4.16848 5.53555L4.11112 5.6515C4.10579 5.66228 4.09511 5.67037 4.08178 5.67037L4.02709 5.67442C4.01108 5.67576 3.99908 5.68655 3.99507 5.70138C3.99107 5.72295 4.00574 5.74317 4.02709 5.74452L4.14447 5.75396C4.16848 5.7553 4.19249 5.76474 4.2125 5.77822L4.41925 5.92382C4.43259 5.93326 4.44993 5.93191 4.46194 5.92113L4.5273 5.86585C4.53263 5.86181 4.53663 5.85507 4.53797 5.84833L4.55931 5.76474C4.56198 5.7553 4.56064 5.74452 4.55531 5.73643L4.48461 5.62588L4.50729 5.62184C4.51529 5.62049 4.52463 5.62184 4.5313 5.62588L4.622 5.67981C4.63534 5.6879 4.65402 5.6852 4.66602 5.67172Z" fill="#050505"/>
<path d="M2.07961 5.1365H2.1503L2.25435 5.28345C2.26769 5.30097 2.28369 5.3158 2.3037 5.32659L2.43976 5.39535C2.45843 5.40478 2.47977 5.41018 2.50112 5.41018H2.92263V5.26862L2.76656 5.21334L2.58649 5.11628C2.56248 5.11628 2.5398 5.10954 2.51979 5.09875L2.23167 4.93293C2.21138 4.92118 2.18836 4.91513 2.16498 4.9154H1.99157C1.93288 4.9154 1.88086 4.95315 1.86218 5.00977L1.84751 5.05696C1.8315 5.10549 1.84484 5.16077 1.88086 5.19717L1.94222 5.25918H2.07961V5.1365Z" fill="#050505"/>
<path d="M2.67852 5.02191L2.78924 4.96393C2.80791 4.9545 2.82925 4.9491 2.85193 4.9491H2.91195C2.96398 4.9491 3.012 4.97876 3.03467 5.0273L3.07869 5.11897V5.21334H2.87861V5.09336L2.79457 5.05022L2.69453 5.05291L2.67852 5.02191Z" fill="#050505"/>
<path d="M3.06135 4.9491L3.16139 5.11358L3.24009 5.16077H3.35614L3.47219 5.03674L3.38415 4.92079L3.15872 4.9491H3.06135Z" fill="#050505"/>
<path d="M2.41441 4.69835L2.57181 4.75497C2.58248 4.75901 2.59182 4.76306 2.60116 4.7698L2.71054 4.8426C2.72921 4.85473 2.74922 4.86282 2.7719 4.86417L2.97065 4.88439L2.94664 4.76036L2.7092 4.62824C2.68919 4.61746 2.66652 4.61072 2.64384 4.61072H2.52246L2.41441 4.69835Z" fill="#050505"/>
<path d="M7.46052 5.71216L7.51788 5.80384C7.52321 5.81193 7.52321 5.82406 7.51654 5.83215L7.47252 5.89282C7.46852 5.89956 7.46586 5.90765 7.46852 5.91439L7.48586 5.97505C7.4872 5.98045 7.48986 5.98449 7.49387 5.98719L7.5859 6.05864C7.6486 6.10717 7.6566 6.2002 7.60325 6.25952L7.60191 6.26086C7.57657 6.28918 7.53922 6.3067 7.50054 6.3067H7.39116C7.37515 6.3067 7.36315 6.29187 7.36715 6.27569L7.39516 6.16515C7.39649 6.1584 7.40183 6.15166 7.4085 6.14897L7.45785 6.1247C7.46719 6.12066 7.47252 6.10987 7.47119 6.09909L7.46852 6.06943C7.46778 6.06419 7.46547 6.05931 7.46189 6.05545C7.45831 6.05159 7.45364 6.04894 7.44851 6.04786L7.37782 6.03303C7.37252 6.03193 7.36701 6.03266 7.36217 6.0351C7.35734 6.03755 7.35345 6.04156 7.35114 6.04651L7.33513 6.08156C7.33513 6.08223 7.3348 6.08291 7.33447 6.08358C7.33413 6.08426 7.3338 6.08493 7.3338 6.0856L7.29912 6.20424C7.29645 6.21503 7.28578 6.22177 7.27511 6.22177L7.1644 6.21907C7.15803 6.21907 7.15192 6.21651 7.14742 6.21196C7.14292 6.20741 7.14039 6.20124 7.14039 6.1948V6.06808C7.14039 6.0546 7.15106 6.04381 7.1644 6.04381L7.22175 6.04246C7.22976 6.04246 7.23643 6.03842 7.24176 6.03168L7.29512 5.95348C7.29778 5.94944 7.29912 5.94405 7.29912 5.93865V5.82002C7.29912 5.81193 7.30312 5.80519 7.30846 5.80114L7.4245 5.70677C7.43518 5.69733 7.45252 5.70003 7.46052 5.71216Z" fill="#050505"/>
<path fill-rule="evenodd" clip-rule="evenodd" d="M15.0732 5.09971H14.6997C14.6811 5.09971 14.6651 5.08758 14.6597 5.07005L14.3022 5.00129C14.2716 5.00129 14.2409 4.99186 14.2142 4.97433L14.1328 4.91906C14.1062 4.90153 14.0755 4.89209 14.0448 4.89209C14.0448 4.89209 13.2125 4.46203 12.1227 4.50382C11.7132 4.52 11.353 4.72627 11.353 4.72627C11.3423 4.73031 11.3343 4.7411 11.333 4.75188L11.329 4.78559C11.3263 4.80177 11.313 4.8139 11.2957 4.8139L11.1316 4.80985C11.1129 4.80985 11.0982 4.82468 11.0982 4.84221L10.6394 4.85839C10.5994 4.85839 10.562 4.87861 10.5393 4.91097L10.498 4.97163C10.4673 5.01612 10.0565 5.03095 10.0565 5.03095C10.0458 5.02625 10.0367 5.01853 10.0304 5.00872C10.024 4.9989 10.0205 4.98743 10.0205 4.97568V4.92714C10.0205 4.90962 10.0271 4.89479 10.0405 4.88266L10.2592 4.68313C10.2832 4.66156 10.3139 4.64673 10.3459 4.64268L10.482 4.62516C10.4899 4.62402 10.4976 4.62128 10.5044 4.61711C10.5113 4.61295 10.5173 4.60743 10.522 4.60089L10.538 4.57662C10.5607 4.54427 10.546 4.49978 10.51 4.4863L10.5007 4.48225C10.4928 4.47955 10.4845 4.47852 10.4762 4.47921C10.468 4.47991 10.4599 4.48232 10.4526 4.4863L10.3486 4.54696C10.3393 4.55236 10.3299 4.55505 10.3193 4.55505H10.2179C10.1752 4.55505 10.1352 4.57258 10.1045 4.60359L9.86039 4.85569C9.83905 4.87726 9.82438 4.90557 9.81771 4.93523L9.79503 5.04578L9.81104 5.09297L9.715 5.22778L9.6283 5.31541H9.54693V5.22778H9.44956L9.42154 5.33833C9.40821 5.38956 9.37219 5.43001 9.32417 5.44888L9.2428 5.47989C9.19078 5.50011 9.13076 5.49068 9.08674 5.45428L8.98136 5.36799L9.26548 5.38282L9.29749 5.32081C9.29749 5.32081 9.00004 5.18195 8.82796 5.08353C8.68791 5.00399 8.50383 5.0714 8.4398 5.09971C8.42379 5.10645 8.41046 5.11589 8.39845 5.12667L7.77819 5.69155C7.7115 5.75222 7.7075 5.85872 7.77152 5.92343L7.83021 5.9841L7.91291 5.91535C7.93559 5.89647 7.9676 5.89782 7.98895 5.91804L8.14368 6.06364H8.18369L8.33042 5.88838C8.34776 5.86681 8.3491 5.83715 8.33176 5.81558L8.31308 5.78997C8.30598 5.78061 8.3018 5.76933 8.30109 5.75756C8.30038 5.74579 8.30316 5.73407 8.30908 5.72391L8.51317 5.38956C8.52384 5.37204 8.54651 5.3653 8.56519 5.37339L8.6012 5.39091C8.62255 5.40035 8.63055 5.42596 8.61988 5.44753L8.47982 5.71582C8.46248 5.74817 8.45981 5.78592 8.47048 5.81963L8.49316 5.89108C8.50383 5.94231 8.49449 5.99624 8.46381 6.03668L8.37577 6.15667C8.34509 6.19846 8.29441 6.22273 8.24239 6.22138L7.98761 6.21194C7.97592 6.2113 7.96489 6.20623 7.95673 6.19773C7.94857 6.18923 7.94388 6.17794 7.94359 6.1661V6.12431C7.94359 6.0987 7.92359 6.07847 7.89824 6.07847C7.87557 6.07847 7.85556 6.096 7.85289 6.12027L7.84622 6.19442C7.84355 6.21733 7.82488 6.23621 7.80087 6.23621H7.77686C7.76485 6.23621 7.75418 6.24025 7.74618 6.24834L7.33267 6.63392L7.3927 6.72155V6.81457C7.3927 6.84558 7.36735 6.87119 7.33667 6.87119H7.20462C7.13392 6.87119 7.0779 6.93186 7.0819 7.00331L7.08323 7.02084C7.08724 7.0842 7.13793 7.13408 7.20195 7.13678L7.34334 7.14082C7.3967 7.14217 7.44605 7.11791 7.47807 7.07342L7.57944 6.92916C7.60879 6.88737 7.65681 6.86175 7.70883 6.86175H7.8062C7.83822 6.86175 7.87023 6.87119 7.89691 6.89007L8.05297 7.00062C8.08365 7.02219 8.08632 7.06802 8.05698 7.09229L7.96894 7.16914C7.93959 7.19475 7.90358 7.20823 7.86489 7.20823H7.31533C7.26598 7.20823 7.21796 7.2325 7.18861 7.27294L6.76443 7.84591C6.74443 7.87422 6.73242 7.90793 6.73242 7.94163V8.32181C6.73242 8.35686 6.74309 8.39057 6.76443 8.41888L6.9125 8.61706C6.9245 8.63324 6.93251 8.65346 6.93917 8.67233C6.94851 8.70469 6.97519 8.75188 7.03922 8.75188H7.72484C7.72484 8.75188 7.89691 8.75727 7.89691 8.87186C7.89691 8.91231 7.89557 8.95275 7.89424 8.9878C7.89157 9.04982 7.92359 9.10509 7.97694 9.1361C8.02496 9.16441 8.07565 9.21295 8.07565 9.29114V9.50145C8.07565 9.51763 8.07298 9.53381 8.06898 9.54999C8.05697 9.58908 8.02896 9.66862 7.99028 9.72794C7.95427 9.78187 8.00495 9.86276 8.0423 9.90994C8.06498 9.9396 8.07698 9.976 8.07698 10.0124V10.2214C8.07698 10.2214 8.09299 10.2982 8.16502 10.3306C8.23705 10.3629 8.26239 10.3818 8.26239 10.3818V10.4654C8.26239 10.5544 8.33309 10.6258 8.42113 10.6258H8.62921C8.62921 10.6258 8.72259 10.6326 8.78395 10.5382C8.8453 10.4438 9.06406 10.1014 9.06406 10.1014C9.06406 10.1014 9.10408 10.0582 9.06406 9.9814C9.02404 9.90455 9.04272 9.8358 9.04272 9.8358L9.23347 9.72525C9.23347 9.72525 9.32284 9.71042 9.32284 9.58504V9.44887C9.32284 9.4273 9.3175 9.40573 9.3055 9.38686L9.27215 9.33024C9.23613 9.26822 9.24547 9.19137 9.29349 9.1388L9.68832 8.71547C9.68832 8.71547 9.79237 8.55909 9.79237 8.47955H9.48957C9.43355 8.47955 9.38286 8.44989 9.35352 8.4027L9.00804 7.82704C9.00194 7.81696 8.99796 7.80573 8.99635 7.79403C8.99473 7.78234 8.99551 7.77043 8.99864 7.75905C9.00176 7.74767 9.00717 7.73706 9.01453 7.72789C9.02188 7.71871 9.03102 7.71116 9.04139 7.7057C9.0814 7.68413 9.13076 7.69896 9.15343 7.73671L9.48824 8.28811L9.48691 8.33799C9.48691 8.35417 9.49891 8.3663 9.51492 8.3663C9.59762 8.3663 9.84172 8.35686 9.97778 8.23688C10.0498 8.17351 10.0938 8.1088 10.1205 8.05488C10.1525 7.99016 10.1365 7.91197 10.0832 7.86479L9.99778 7.78929L9.88707 7.81356L9.69099 7.61538C9.66164 7.58572 9.66965 7.53449 9.707 7.51561C9.7174 7.51036 9.72907 7.5082 9.74065 7.5094C9.75222 7.51059 9.76322 7.51508 9.77236 7.52235L10.0792 7.75963C10.0792 7.75963 10.1418 7.81625 10.2059 7.81625H10.3859C10.442 7.81625 10.494 7.84591 10.522 7.89445L10.9235 8.57661C10.9235 8.57661 10.9835 8.63324 11.0182 8.63054C11.0529 8.62784 11.0996 8.4809 11.0996 8.4809C11.0996 8.34473 11.1649 8.21531 11.2757 8.13711L11.4144 8.0387C11.4771 7.99421 11.5611 8.00095 11.6158 8.05353L11.7012 8.13711V8.22609C11.7012 8.24092 11.7132 8.2544 11.7292 8.2544H11.7665L11.8025 8.218H11.8452V8.57661C11.8452 8.61706 11.8599 8.65616 11.8879 8.68581L12.1547 8.97432V8.87051C12.1547 8.83411 12.1427 8.79906 12.12 8.77075L11.9946 8.61302C11.9719 8.5847 11.9599 8.54965 11.9599 8.51325V8.40405C11.9599 8.38652 11.9813 8.37844 11.9933 8.39057L12.1547 8.55774L12.1587 8.6629C12.16 8.68312 12.184 8.69256 12.1974 8.67773L12.4255 8.42832C12.4255 8.42832 12.4922 8.34473 12.4255 8.27598C12.3774 8.22609 12.3108 8.16273 12.2681 8.12228C12.2627 8.11735 12.2585 8.1113 12.2557 8.10456C12.2529 8.09782 12.2516 8.09054 12.2519 8.08324C12.2521 8.07594 12.2539 8.06877 12.2572 8.06225C12.2605 8.05572 12.2651 8.04999 12.2707 8.04544L12.3148 8.00769L12.4255 8.01039C12.4255 8.01039 12.4023 8.06225 12.3672 8.12228C12.3672 8.12228 12.3845 8.218 12.49 8.0387C12.4984 8.03155 12.526 8.03599 12.5568 8.04093C12.5964 8.0473 12.6411 8.0545 12.6562 8.0387C12.7171 7.97532 12.9657 7.63155 12.9657 7.63155C12.9657 7.63155 12.9977 7.50618 12.923 7.44012C12.847 7.37406 12.8803 7.29317 12.8803 7.29317L12.9737 7.21093V7.15296H12.7296C12.7296 7.15296 12.7509 7.02219 12.9243 7.0141C12.935 7.01346 12.9453 7.01313 12.9551 7.01281C12.9662 7.01245 12.9765 7.01212 12.9857 7.0114C13.0035 7.01095 13.0211 7.01411 13.0377 7.02069C13.0542 7.02727 13.0693 7.03714 13.082 7.04971C13.0946 7.06229 13.1047 7.07731 13.1115 7.09388C13.1184 7.11046 13.1219 7.12826 13.1218 7.14622V7.38889L13.1578 7.39293C13.1578 7.39293 13.2258 7.39967 13.2511 7.30934C13.2511 7.30934 13.2965 7.29586 13.2965 7.24059V7.17453L13.2311 7.09499L13.3378 6.95747C13.3565 6.93321 13.3832 6.91703 13.4125 6.91164L13.4672 6.90085C13.4997 6.89468 13.5285 6.87578 13.5473 6.84827L13.794 6.47483C13.8114 6.44787 13.8207 6.41686 13.8207 6.38585V6.28339C13.8207 6.27016 13.8155 6.25748 13.8063 6.24812C13.797 6.23877 13.7844 6.23351 13.7714 6.23351H13.6273C13.6273 6.23351 13.5673 6.16206 13.6486 6.11353C13.706 6.07847 13.818 5.98545 13.8807 5.93287C13.9087 5.90861 13.9448 5.89512 13.9821 5.89512H14.2729C14.3062 5.89512 14.3383 5.88434 14.3649 5.86546L14.5557 5.72795C14.5626 5.7227 14.571 5.71986 14.5797 5.71986C14.6624 5.71986 14.7051 5.81963 14.6491 5.88164L14.4516 6.096C14.425 6.12431 14.409 6.16341 14.409 6.2025L14.4063 6.37507C14.4063 6.40742 14.4316 6.43439 14.465 6.43439H14.513L14.7718 6.16745C14.7891 6.14993 14.8011 6.12566 14.8051 6.10139L14.8145 6.04477C14.8278 5.96792 14.8932 5.9113 14.9705 5.9113H15.0839C15.1226 5.9113 15.1599 5.89782 15.188 5.87221L15.3467 5.732C15.3547 5.72526 15.364 5.72121 15.3747 5.72121H15.4574C15.4814 5.72121 15.5001 5.70234 15.5001 5.67807V5.59718C15.5001 5.58505 15.5054 5.57426 15.5134 5.56617L15.5748 5.5082C15.6241 5.46236 15.6962 5.45158 15.7562 5.48393L15.8602 5.53921C15.8856 5.55269 15.9176 5.54595 15.9363 5.52303L15.987 5.45832C15.9927 5.45104 15.9967 5.44255 15.9987 5.43349C16.0008 5.42442 16.0008 5.41501 15.9987 5.40595C15.9967 5.39689 15.9926 5.38841 15.9869 5.38114C15.9812 5.37387 15.9739 5.368 15.9656 5.36395L15.4627 5.11454C15.4361 5.1051 15.0972 5.09971 15.0732 5.09971ZM8.14073 7.02391L8.23108 6.94602L8.14101 7.02488L8.00762 6.86175C8.00306 6.856 7.9999 6.84962 7.99807 6.84304C7.99994 6.84928 8.00301 6.85531 8.00734 6.86078L8.14073 7.02391ZM8.89599 7.51696H8.81462C8.80395 7.51696 8.79328 7.51561 8.78261 7.51292C8.69457 7.48865 8.25439 7.36462 8.17302 7.32687C8.16401 7.32283 8.15608 7.31667 8.14991 7.3089C8.14373 7.30113 8.13949 7.29198 8.13753 7.28221C8.13557 7.27244 8.13596 7.26234 8.13865 7.25276C8.14134 7.24317 8.14627 7.23437 8.15302 7.22711L8.26239 7.10982C8.29974 7.07611 8.35843 7.07881 8.39312 7.11521L8.49316 7.22171L8.57986 7.20554L8.55585 7.14217C8.55585 7.14217 8.54518 7.11251 8.53451 7.08555C8.52384 7.05859 8.58253 7.02488 8.58253 7.02488C8.58253 7.02488 8.64255 7.01949 8.64255 7.11251C8.64255 7.20554 8.73993 7.27564 8.73993 7.27564H9.07207C9.09341 7.27564 9.10675 7.29856 9.09608 7.31608L9.03738 7.42933C9.00937 7.48326 8.95468 7.51696 8.89599 7.51696ZM9.3135 7.0141H9.20012L9.11742 6.94938C9.10805 6.94263 9.0969 6.93888 9.0854 6.9386H8.97736C8.96135 6.9386 8.94535 6.94534 8.93334 6.95613L8.85464 7.02623L8.77728 7.03836C8.77007 7.03962 8.76269 7.03939 8.75557 7.03767C8.74846 7.03596 8.74177 7.03279 8.7359 7.02838C8.73004 7.02396 8.72512 7.01839 8.72146 7.01199C8.71779 7.0056 8.71545 6.99852 8.71458 6.99118L8.70391 6.9049C8.70124 6.87928 8.70925 6.85501 8.72525 6.83614L8.85331 6.69054L8.91066 6.68649L8.908 6.71211C8.904 6.74312 8.92801 6.77008 8.95868 6.77008H8.9867C9.01471 6.77008 9.04005 6.7539 9.05072 6.72829L9.0774 6.67032L9.19612 6.69054L9.20679 6.77682C9.20946 6.79569 9.21879 6.81322 9.23347 6.82535L9.36552 6.93725V6.96152C9.36552 6.99118 9.34284 7.0141 9.3135 7.0141ZM9.88707 7.10712V7.20554H9.68165L9.66431 7.10712C9.66164 7.09364 9.66431 7.07881 9.67232 7.06802L9.68299 7.05319C9.69766 7.03162 9.69499 7.00196 9.67498 6.98444L9.57894 6.89546V6.73233L9.719 6.67166H9.79103C9.81904 6.67166 9.84305 6.69054 9.85106 6.7175L9.85239 6.72155C9.85773 6.74177 9.85239 6.76199 9.83905 6.77817C9.83131 6.78686 9.82621 6.79763 9.82438 6.80918L9.81104 6.89411L9.92442 6.99927L9.84305 7.05319L9.88707 7.10712Z" fill="#050505"/>
<path d="M12.9448 7.80027C12.9394 7.78548 12.9351 7.77825 12.9281 7.77859C12.9207 7.77909 12.9104 7.78771 12.8922 7.80426C12.8671 7.82734 12.8542 7.85369 12.8531 7.88411C12.8524 7.90311 12.8564 7.9237 12.8648 7.9461C12.8717 7.964 12.8843 7.97846 12.8933 7.97846C12.9184 7.97846 12.9589 7.83763 12.9448 7.80027Z" fill="#050505"/>
<path d="M12.894 8.10756C12.9023 8.10857 12.9105 8.11046 12.9184 8.11324L12.9316 8.11731C12.9502 8.12297 12.9592 8.12575 12.965 8.1316C12.9705 8.13721 12.973 8.14563 12.9778 8.16211L12.9819 8.17573C12.9902 8.20309 12.9837 8.22872 12.9642 8.24507C12.9184 8.28348 12.9264 8.30256 12.9942 8.31773C13.041 8.32807 13.0551 8.34236 13.0551 8.37951C13.0551 8.42565 13.0523 8.42633 13.0002 8.39897C12.97 8.38312 12.9406 8.37606 12.9346 8.38296C12.9285 8.38968 12.935 8.3993 12.949 8.40447C13.0036 8.4241 13.0347 8.47507 13.0225 8.52445C13.0085 8.58077 13.0366 8.58989 13.082 8.54391C13.1298 8.49537 13.1706 8.56665 13.1599 8.68008C13.1564 8.71844 13.1221 8.73479 13.0702 8.72311C13.0619 8.7213 13.0543 8.71702 13.0483 8.71134C13.0401 8.70365 13.0349 8.69344 13.0349 8.68352C13.0349 8.66011 13.0217 8.65545 12.9839 8.66495C12.9462 8.67457 12.9332 8.66957 12.9332 8.64582C12.9332 8.63351 12.9401 8.62027 12.9499 8.61128C12.9541 8.60741 12.9589 8.60435 12.9638 8.60245C12.9772 8.59724 12.9838 8.593 12.9837 8.5851C12.9836 8.57736 12.977 8.5661 12.9638 8.54702C12.9471 8.5229 12.9332 8.48709 12.9332 8.46696C12.9332 8.44683 12.9255 8.43032 12.9153 8.43032C12.8877 8.43032 12.8268 8.237 12.8518 8.22855C12.8564 8.22704 12.8607 8.22124 12.8642 8.21267C12.8694 8.19977 12.8729 8.18064 12.8729 8.16039C12.8729 8.11975 12.8755 8.10634 12.894 8.10756Z" fill="#050505"/>
<path d="M12.8006 8.56682C12.8469 8.52345 12.8717 8.45112 12.8404 8.45112C12.8259 8.45112 12.7582 8.52962 12.7296 8.57955C12.6993 8.63187 12.7387 8.62481 12.8006 8.56682Z" fill="#050505"/>
<path d="M12.9121 8.69764C12.9241 8.69764 12.9332 8.70676 12.9332 8.71811C12.9332 8.72929 12.9295 8.73862 12.9246 8.73862C12.9246 8.73862 12.9203 8.7374 12.9176 8.73525C12.9129 8.7316 12.9073 8.72525 12.903 8.71794C12.8959 8.70676 12.9002 8.69764 12.9121 8.69764Z" fill="#050505"/>
<path d="M13.2543 8.91281C13.2408 8.88251 13.2242 8.86839 13.2104 8.86978C13.1965 8.87117 13.1852 8.88785 13.1806 8.91987C13.1793 8.92929 13.1757 8.93828 13.1701 8.94601C13.1829 8.99776 13.2218 9.00619 13.2341 9.00884C13.2362 9.0093 13.2378 9.00989 13.2378 9.00989C13.2451 8.9993 13.2539 8.98989 13.2632 8.98005C13.2676 8.97535 13.2727 8.96989 13.2772 8.9648L13.2543 8.91281Z" fill="#050505"/>
<path d="M13.0822 8.89386C13.108 8.89041 13.1166 8.90865 13.0932 8.93723C13.0894 8.94147 13.0865 8.94639 13.0846 8.95169L13.028 8.96152C13.0165 8.96387 13.0045 8.96561 12.9924 8.96735C12.954 8.97288 12.9151 8.97849 12.8926 9.00388C12.8926 9.00817 12.8958 9.01128 12.9012 9.013C12.9087 9.0154 12.9205 9.01514 12.9336 9.01161C12.9373 9.01066 12.9388 9.00971 12.9404 9.00873C12.9417 9.00794 12.943 9.00712 12.9455 9.00628L12.9657 9.00388L13.0291 9.01245L13.0252 9.01762L13.023 9.01892L13.0177 9.02174C13.0132 9.02409 13.0085 9.02653 13.005 9.02969C12.9751 9.05587 12.961 9.08356 12.9707 9.09663C12.9795 9.10886 12.9865 9.1371 12.9858 9.15946C12.984 9.21199 12.9197 9.22573 12.907 9.17635C12.901 9.15278 12.8968 9.16017 12.8954 9.19716C12.8937 9.24074 12.884 9.25364 12.8572 9.2483C12.8379 9.24435 12.8219 9.223 12.8219 9.2006C12.8219 9.17825 12.8149 9.14916 12.8064 9.13605C12.798 9.12281 12.8003 9.08751 12.8117 9.05759C12.8187 9.03901 12.8207 9.03031 12.8226 9.02212L12.824 9.0159L12.8357 8.98393C12.8439 8.96177 12.853 8.9369 12.8536 8.93467L12.8507 8.93534C12.8791 8.90937 12.907 8.90298 12.951 8.91281C12.961 8.915 12.972 8.91622 12.9831 8.91655C13.0094 8.91735 13.0362 8.91315 13.0512 8.90504C13.0608 8.89953 13.0712 8.89575 13.0822 8.89386Z" fill="#050505"/>
<path d="M13.3595 9.13622C13.3595 9.10869 13.3255 9.0939 13.2684 9.09424C13.2467 9.09449 13.2251 9.09634 13.2037 9.09974C13.1245 9.1118 13.1008 9.12693 13.1245 9.15106C13.1449 9.17186 13.3595 9.15828 13.3595 9.13622Z" fill="#050505"/>
<path d="M5.86645 9.36162L5.51564 9.17692C5.48496 9.16074 5.44894 9.15131 5.41426 9.15131H5.31288C5.30372 9.15107 5.29493 9.14756 5.28809 9.14138C5.28125 9.13521 5.2768 9.12678 5.27553 9.1176C5.26486 9.00436 5.17016 8.91673 5.05811 8.91673H5.0261C4.95807 8.91673 4.89404 8.88437 4.85269 8.82909L4.80467 8.76438C4.76732 8.7145 4.7113 8.68349 4.64994 8.6781L4.3885 8.65518C4.38213 8.65499 4.37601 8.65262 4.37116 8.64844L4.32847 8.61878C4.31647 8.61069 4.3018 8.60934 4.28979 8.61743L4.10305 8.72394C4.0697 8.74281 4.03368 8.75225 3.995 8.75225H3.80292C3.79625 8.75225 3.79092 8.7509 3.78558 8.74821C3.76424 8.73607 3.71488 8.69832 3.71488 8.61474V8.50284C3.71488 8.49788 3.71392 8.49297 3.71204 8.48839C3.71016 8.48381 3.70741 8.47965 3.70394 8.47615C3.70048 8.47264 3.69636 8.46986 3.69183 8.46797C3.6873 8.46607 3.68244 8.46509 3.67753 8.46509H3.55615C3.54962 8.46503 3.54322 8.46325 3.53759 8.45991C3.53196 8.45657 3.52729 8.4518 3.52405 8.44607C3.52081 8.44034 3.51912 8.43386 3.51913 8.42726C3.51915 8.42066 3.52087 8.41418 3.52414 8.40847L3.58149 8.30736C3.58416 8.30196 3.58683 8.29522 3.58683 8.28848V8.1995C3.58683 8.18949 3.5829 8.17989 3.57589 8.17281C3.56889 8.16573 3.55939 8.16176 3.54948 8.16176H3.48279C3.47078 8.16176 3.45878 8.1685 3.45211 8.17928L3.41476 8.2386C3.37474 8.30196 3.30538 8.33971 3.23068 8.33971H3.17733C3.17733 8.33971 3.09062 8.32353 3.09062 8.23051V7.89212C3.09196 7.88134 3.09996 7.84763 3.13598 7.82472C3.16799 7.80449 3.24268 7.76405 3.28003 7.74383C3.29337 7.73709 3.31071 7.73843 3.32272 7.74922L3.39342 7.81528C3.40009 7.82202 3.40809 7.82472 3.41743 7.82472L3.43179 7.82481C3.45442 7.82503 3.48295 7.82531 3.48946 7.82202C3.49255 7.82046 3.4925 7.81526 3.49244 7.80818C3.49228 7.79085 3.49202 7.76223 3.53748 7.74787C3.60284 7.729 3.64552 7.78832 3.64552 7.78832L3.81092 7.9865C3.82293 8.00132 3.84427 8.00402 3.86028 7.99324L3.88429 7.97706C3.90029 7.96627 3.90563 7.9447 3.89629 7.92718L3.89362 7.92178C3.84027 7.82876 3.86028 7.71012 3.94164 7.64137L4.07904 7.52408C4.07904 7.52408 4.09504 7.51329 4.10305 7.45262C4.10838 7.41622 4.11772 7.3623 4.12439 7.32455C4.13172 7.31242 4.13838 7.30063 4.14505 7.28885C4.15171 7.27706 4.15841 7.26522 4.16574 7.2531L4.46186 7.00099C4.4792 6.98616 4.50455 6.9902 4.51655 7.00908C4.53122 7.03065 4.55523 7.05492 4.58591 7.05357C4.6326 7.05087 4.74865 6.98751 4.794 6.96055C4.79972 6.95737 4.80448 6.95268 4.80777 6.94698C4.81106 6.94128 4.81276 6.93479 4.81267 6.92819V6.881L4.66995 6.91066C4.64994 6.91471 4.62993 6.90123 4.62593 6.87966L4.60992 6.78528C4.60843 6.77668 4.60402 6.76888 4.59744 6.76322C4.59087 6.75756 4.58255 6.7544 4.57391 6.75428L4.43118 6.77045L4.44852 6.72731C4.45386 6.71248 4.4672 6.70305 4.4832 6.70035L4.83535 6.6626C4.85136 6.65586 4.87137 6.64777 4.89137 6.63968C4.91138 6.63159 4.93139 6.6235 4.9474 6.61676L5.01809 6.56149C5.03543 6.54801 5.03677 6.52239 5.0221 6.50621L4.62593 6.09637C4.62043 6.09086 4.61343 6.08715 4.60582 6.0857C4.59821 6.08426 4.59034 6.08516 4.58325 6.08829L4.46453 6.14491C4.45252 6.1503 4.43785 6.14895 4.42718 6.14221L4.09904 5.90898C4.09519 5.90615 4.09082 5.90411 4.08619 5.90298C4.08156 5.90185 4.07675 5.90166 4.07204 5.90241C4.06734 5.90316 4.06282 5.90485 4.05876 5.90736C4.05469 5.90987 4.05116 5.91317 4.04836 5.91707L3.99767 5.98717C3.99367 5.99257 3.991 5.99931 3.991 6.0074L3.98166 6.18131C3.98166 6.19209 3.98433 6.20153 3.99233 6.20962L4.04035 6.2595C4.05636 6.27568 4.05369 6.30264 4.03502 6.31612L3.96432 6.36735C3.95957 6.37084 3.95408 6.37314 3.94829 6.37408C3.94249 6.37501 3.93656 6.37456 3.93097 6.37275L3.77091 6.39971C3.74823 6.33904 3.69888 6.29186 3.63752 6.27029L3.55748 6.24198C3.41209 6.19209 3.36274 6.01009 3.46011 5.89145L3.61618 5.70136C3.62019 5.69607 3.62289 5.68987 3.62405 5.68331C3.62521 5.67674 3.62479 5.66999 3.62285 5.66361L3.57883 5.54902L3.57082 5.53689L3.39475 5.3468C3.32539 5.27265 3.20134 5.3104 3.18533 5.41151L3.184 5.42229C3.17466 5.48161 3.12264 5.5261 3.06395 5.5261H2.53973C2.52341 5.52235 2.50708 5.51902 2.49053 5.51564C2.47733 5.51295 2.46396 5.51022 2.45036 5.50723L2.09154 5.34545C2.07888 5.34208 2.06656 5.33905 2.05424 5.33602C2.04191 5.33299 2.02951 5.32994 2.01684 5.32657L1.68737 5.305C1.67203 5.3077 1.65669 5.31006 1.64135 5.31242C1.62601 5.31478 1.61067 5.31714 1.59533 5.31983L1.44727 5.3778C1.40725 5.39263 1.36457 5.39668 1.32322 5.38724L0.590913 5.22951C0.546895 5.22007 0.500209 5.22411 0.458858 5.24299L0.113381 5.39263C0.0880367 5.40342 0.0827012 5.43712 0.104043 5.456L0.194748 5.53284C0.220092 5.55441 0.205419 5.59756 0.172072 5.5989L0.036015 5.6016C0.0160067 5.6016 0 5.61913 0 5.63935V5.65822C0 5.67844 0.0160067 5.69462 0.036015 5.69597L0.153397 5.69732C0.193414 5.69867 0.204085 5.75259 0.16807 5.76877L0.0666945 5.81461C0.0520217 5.82135 0.0440184 5.83618 0.0453523 5.85236L0.0546895 5.95482C0.0640267 6.05593 0.138725 6.13682 0.238766 6.153L0.310796 6.16513C0.345477 6.17052 0.353481 6.21636 0.324135 6.23389L0.301459 6.24737C0.277449 6.2622 0.277449 6.29725 0.301459 6.31073L0.313464 6.31747C0.324135 6.32421 0.33614 6.32421 0.348145 6.32017L0.965736 6.0384C1.04577 6.002 1.13914 6.01683 1.20317 6.0775L1.79141 6.62081C1.8341 6.65991 1.85944 6.71518 1.86211 6.77315L1.88212 7.18838C1.88479 7.23557 1.90079 7.28006 1.93014 7.31646L2.50905 8.04447C2.51972 8.05795 2.53839 8.06199 2.5544 8.0539C2.57441 8.04312 2.58108 8.0175 2.56774 7.99863C2.56774 7.99863 2.93322 8.38151 2.96791 8.39768L3.26403 8.54598C3.29471 8.56081 3.32672 8.5689 3.3614 8.5689H3.50813C3.5228 8.5689 3.53614 8.57699 3.54148 8.59047L3.59083 8.69832C3.59083 8.699 3.59117 8.69933 3.5915 8.69967C3.59183 8.70001 3.59217 8.70035 3.59217 8.70102L3.59414 8.70422C3.60938 8.72904 3.68174 8.8469 3.7589 8.85201C3.8456 8.85741 4.00167 8.85201 4.00167 8.85201C4.00167 8.85201 4.05769 8.85067 4.05769 8.91268V9.00705C4.05769 9.02053 4.05102 9.03267 4.03902 9.03941C3.991 9.06637 3.86695 9.14591 3.86695 9.23624V9.4479C3.86695 9.45734 3.86961 9.46543 3.87495 9.47217C3.89096 9.49104 3.92564 9.53149 3.95498 9.55575C3.98222 9.57754 4.02682 9.6286 4.0535 9.65913L4.0657 9.67304C4.07103 9.67978 4.0737 9.68787 4.0737 9.69731V9.81864C4.07437 9.82067 4.0747 9.82303 4.07503 9.82539C4.07537 9.82774 4.0757 9.8301 4.07637 9.83213C4.08304 9.8483 4.10038 9.88875 4.13106 9.90358C4.14973 9.91302 4.19642 9.95076 4.2391 9.98851C4.29246 10.0343 4.32047 10.1031 4.31513 10.1746L4.28846 10.5197C4.28712 10.5264 4.28612 10.5332 4.28512 10.5399C4.28413 10.5466 4.28311 10.5534 4.28179 10.5601L4.16307 11.0104C4.16174 11.0239 4.16074 11.037 4.15974 11.0502C4.15874 11.0633 4.15773 11.0765 4.1564 11.09L4.16841 11.2747C4.17107 11.307 4.16841 11.3394 4.15773 11.3704L4.11372 11.4958C4.10038 11.5362 4.09771 11.5793 4.10705 11.6211L4.16307 11.8544C4.16974 11.8813 4.18441 11.9056 4.20709 11.9231L4.26445 11.969C4.28579 11.9865 4.3178 12.0108 4.34048 11.9946C4.41711 11.9414 4.45987 11.7765 4.49486 11.6415C4.51042 11.5815 4.52444 11.5274 4.53923 11.4917C4.5484 11.4691 4.60583 11.3868 4.67325 11.2902C4.78233 11.134 4.91754 10.9404 4.91672 10.9012L4.91405 10.8109C4.91405 10.7893 4.93006 10.7731 4.9514 10.7731H5.06478C5.07545 10.7731 5.08479 10.7691 5.09146 10.761L5.3569 10.4671C5.36357 10.4604 5.36624 10.4509 5.36624 10.4415V10.3215C5.36624 10.2999 5.38358 10.2838 5.40492 10.2838C5.45027 10.2865 5.52497 10.2865 5.55032 10.2649C5.57677 10.2426 5.64692 10.1614 5.68781 10.1141L5.70905 10.0896C5.71438 10.0829 5.71839 10.0748 5.71839 10.0654V9.87527C5.71839 9.81999 5.73839 9.76741 5.77574 9.72562L5.90913 9.57732C5.94648 9.53688 5.95582 9.47621 5.92914 9.42229C5.9158 9.39667 5.89313 9.3751 5.86645 9.36162Z" fill="#050505"/>
<path d="M14.9159 10.7007C14.9121 10.6996 14.909 10.6996 14.9075 10.7011C14.9016 10.7062 14.9126 10.7366 14.9321 10.7685C14.963 10.8194 14.9651 10.8297 14.948 10.8544C14.9311 10.8786 14.9317 10.8846 14.9518 10.8978C14.9875 10.9214 14.9797 10.9319 14.9301 10.9273C14.8919 10.9239 14.8814 10.9297 14.8591 10.9668C14.8392 10.9959 14.8129 11.0213 14.7816 11.0414C14.7106 11.0848 14.6744 11.15 14.7213 11.15C14.7345 11.15 14.7389 11.1591 14.7339 11.1759C14.7245 11.2082 14.7281 11.2082 14.7989 11.1742C14.8401 11.1544 14.8592 11.1358 14.8651 11.1091C14.8702 11.0862 14.8861 11.0674 14.9062 11.0607C14.9243 11.0547 14.9376 11.0464 14.936 11.042C14.9292 11.0238 14.9691 10.9603 14.9844 10.9649C15.0045 10.971 15.0645 10.9052 15.0535 10.8891C15.0492 10.8829 15.055 10.8779 15.0664 10.8779C15.0878 10.8779 15.1093 10.8297 15.0962 10.8108C15.0921 10.8047 15.0728 10.8036 15.0535 10.8079C15.0292 10.8134 15.0184 10.8103 15.0181 10.7982C15.0175 10.7773 14.9432 10.7094 14.9159 10.7007Z" fill="#050505"/>
<path d="M12.885 9.27392L12.3995 9.2173C12.3871 9.21606 12.3749 9.21288 12.3635 9.20786L12.2461 9.15932C12.2288 9.15258 12.2114 9.14045 12.1981 9.12697L11.8072 8.71308C11.8019 8.70769 11.7954 8.70356 11.7882 8.70099C11.7811 8.69843 11.7734 8.69749 11.7659 8.69825C11.7285 8.70365 11.7125 8.74814 11.7379 8.77645L12.1487 9.24156C12.1661 9.26044 12.1874 9.27392 12.2114 9.28201L12.4435 9.35211C12.4569 9.35616 12.4689 9.3575 12.4822 9.3575H12.8797L12.885 9.27392Z" fill="#050505"/>
<path d="M13.8508 9.53546L13.8308 9.59208C13.7907 9.70533 13.6787 9.77678 13.56 9.76195C13.5519 9.76102 13.5441 9.75807 13.5374 9.75337C13.5307 9.74867 13.5253 9.74237 13.5216 9.73502C13.5179 9.72768 13.5161 9.71952 13.5162 9.71128C13.5164 9.70304 13.5186 9.69497 13.5226 9.6878L13.6227 9.50176L13.3626 9.51119C13.3279 9.51254 13.2932 9.52063 13.2625 9.53546L13.1651 9.5813C13.1398 9.59343 13.1158 9.60961 13.0958 9.62983L12.9144 9.80779C12.893 9.82936 12.8677 9.84689 12.8397 9.85902L12.717 9.91429C12.6249 9.95609 12.5649 10.0478 12.5649 10.1502V10.1691C12.5649 10.2041 12.5716 10.2379 12.5849 10.2702L12.6809 10.498C12.6836 10.5034 12.6849 10.5075 12.6863 10.5129C12.7023 10.5749 12.769 10.6113 12.829 10.5897L13.0744 10.5021C13.1091 10.49 13.1465 10.4846 13.1825 10.4886L13.4759 10.5156C13.556 10.5223 13.6267 10.5668 13.6694 10.6356L13.6894 10.6666C13.7361 10.7421 13.8174 10.7879 13.9068 10.7879H14.0255C14.0935 10.7879 14.1589 10.7609 14.2069 10.7124L14.3376 10.5803C14.3857 10.5318 14.4123 10.4657 14.4123 10.3969V10.2244C14.4123 10.1516 14.3817 10.0828 14.3296 10.0343L14.0615 9.78622C14.0362 9.7633 14.0162 9.73499 14.0028 9.70398L13.9228 9.52872C13.9055 9.50176 13.8614 9.50311 13.8508 9.53546Z" fill="#050505"/>
<path d="M13.3219 9.2501C13.3387 9.25132 13.3506 9.26388 13.3502 9.28729C13.3499 9.30175 13.321 9.32982 13.2857 9.34962C13.2515 9.36882 13.2307 9.37966 13.2181 9.38248C13.202 9.38609 13.1993 9.3766 13.1993 9.35457C13.1993 9.33755 13.2054 9.32394 13.2128 9.32394C13.2204 9.32394 13.2434 9.30448 13.2641 9.2809C13.2835 9.25888 13.3053 9.24888 13.3219 9.2501Z" fill="#050505"/>
<path d="M13.079 9.27195C13.2391 9.27128 13.2277 9.31154 13.0657 9.31965C12.9714 9.32432 12.9452 9.31965 12.9509 9.29897C12.9559 9.28074 12.9956 9.27212 13.079 9.27195Z" fill="#050505"/>
<path d="M6.11708 5.52046H6.20645L6.27447 5.5663L6.45588 5.51911L6.48923 5.6V5.71459L6.31449 5.73616C6.27848 5.74021 6.24246 5.73077 6.21445 5.70785L6.06105 5.58652L6.11708 5.52046Z" fill="#050505"/>
<path d="M8.12058 4.55113H7.88981L7.83379 4.59023L8.03121 4.84099H8.12058L8.20328 4.68864L8.4047 4.79245L8.43671 4.74392L8.19794 4.5754C8.17527 4.55922 8.14859 4.55113 8.12058 4.55113Z" fill="#050505"/>
<path d="M8.61145 4.37183H8.31266L8.28465 4.41766L8.37135 4.48238C8.39403 4.4999 8.42204 4.50934 8.45138 4.50934H8.61145L8.68748 4.4298L8.61145 4.37183Z" fill="#050505"/>
<path d="M3.04246 4.37857L2.84504 4.45272L2.6543 4.50125L2.92774 4.63067L3.14383 4.56192L3.21586 4.54843L3.15851 4.43923L3.04246 4.37857Z" fill="#050505"/>
<path d="M3.41461 4.78032H3.32925V4.82346L3.3746 4.83964L3.38527 4.88413L3.45596 4.89491L3.50398 4.94884L3.92816 4.93536L3.95217 4.88413L3.91482 4.82885H3.45863L3.41461 4.78032Z" fill="#050505"/>
<path d="M3.03045 4.88413L2.99711 4.78841L3.03045 4.76953L3.15717 4.78032L3.18785 4.80863L3.11716 4.89087L3.03045 4.88413Z" fill="#050505"/>
<path d="M3.21586 4.72504L3.23187 4.67112L3.26655 4.64685L3.30123 4.66033L3.35859 4.6846V4.70887H3.32925L3.28256 4.74661L3.21586 4.72504Z" fill="#050505"/>
<path d="M3.84413 8.09544L3.76143 8.13184C3.75075 8.13724 3.75075 8.15341 3.76143 8.15611L3.84946 8.19251L3.95217 8.17633L4.11891 8.29093H4.23762C4.23762 8.29093 4.31899 8.28014 4.31899 8.25857C4.31899 8.237 4.23762 8.22622 4.23762 8.22622L4.06555 8.09544H3.84413Z" fill="#050505"/>
<path d="M4.40036 8.27205C4.40036 8.27205 4.32566 8.31654 4.335 8.33811C4.35101 8.37586 4.49507 8.33811 4.49507 8.33811C4.49507 8.33811 4.54709 8.28958 4.53775 8.27205C4.52041 8.24104 4.40036 8.27205 4.40036 8.27205Z" fill="#050505"/>
<path d="M14.1618 10.9293H13.8816L13.9563 11.0938H14.0217L14.1618 10.9293Z" fill="#050505"/>
</svg>
