<svg width="16" height="16" viewBox="0 0 16 16" fill="none" xmlns="http://www.w3.org/2000/svg">
<path d="M5.6 11.2H10.4V12.8H5.6V11.2ZM16 11.2H13.6V14.4C13.6 14.8243 13.4314 15.2313 13.1314 15.5314C12.8313 15.8314 12.4243 16 12 16H4C3.57565 16 3.16869 15.8314 2.86863 15.5314C2.56857 15.2313 2.4 14.8243 2.4 14.4V11.2H0V5.6C0 5.17565 0.168571 4.76869 0.468629 4.46863C0.768687 4.16857 1.17565 4 1.6 4H2.4V1.6C2.4 1.17565 2.56857 0.768687 2.86863 0.468629C3.16869 0.168571 3.57565 0 4 0H12C12.4243 0 12.8313 0.168571 13.1314 0.468629C13.4314 0.768687 13.6 1.17565 13.6 1.6V4H14.4C14.8243 4 15.2313 4.16857 15.5314 4.46863C15.8314 4.76869 16 5.17565 16 5.6V11.2ZM4 4H12V1.6H4V4ZM12 9.6H4V14.4H12V9.6ZM14.4 6.8C14.3999 6.64236 14.3688 6.48628 14.3085 6.34066C14.2481 6.19504 14.1596 6.06274 14.0481 5.95131C13.9366 5.83988 13.8043 5.7515 13.6586 5.69122C13.5129 5.63094 13.3568 5.59995 13.1992 5.6C13.0416 5.60005 12.8855 5.63115 12.7399 5.69153C12.5942 5.7519 12.4619 5.84037 12.3505 5.95187C12.2391 6.06338 12.1507 6.19574 12.0904 6.3414C12.0301 6.48706 11.9991 6.64316 11.9992 6.8008C11.9993 7.11917 12.1259 7.42445 12.3511 7.64949C12.5763 7.87454 12.8816 8.00091 13.2 8.0008C13.5184 8.00069 13.8237 7.87412 14.0487 7.64893C14.2737 7.42373 14.4001 7.11837 14.4 6.8Z" fill="black"/>
</svg>
