<svg width="16" height="16" viewBox="0 0 16 16" fill="none" xmlns="http://www.w3.org/2000/svg">
<path d="M13.7144 5.82342L13.7144 10.7939C13.7144 11.7065 13.3532 12.5817 12.7102 13.2271C12.0673 13.8724 11.1953 14.2349 10.286 14.2349C9.37672 14.2349 8.50469 13.8724 7.86174 13.2271C7.21879 12.5817 6.85758 11.7065 6.85758 10.7939L6.85758 5.44108C6.85758 4.93406 6.65691 4.44781 6.29972 4.08929C5.94252 3.73078 5.45806 3.52937 4.95291 3.52937C4.44776 3.52937 3.9633 3.73078 3.60611 4.08929C3.24891 4.44781 3.04824 4.93406 3.04824 5.44108L3.04824 10.5415C3.55678 10.7219 3.98541 11.0769 4.25836 11.5439C4.53131 12.0108 4.63101 12.5595 4.53983 13.0931C4.44866 13.6267 4.17248 14.1107 3.76011 14.4597C3.34774 14.8086 2.82574 15 2.28637 15C1.747 15 1.225 14.8086 0.812635 14.4597C0.400268 14.1107 0.124087 13.6267 0.0329096 13.0931C-0.0582674 12.5595 0.0414317 12.0108 0.314383 11.5439C0.587334 11.0769 1.01596 10.7219 1.5245 10.5415L1.5245 5.44108C1.5245 4.52845 1.88571 3.6532 2.52866 3.00787C3.17161 2.36254 4.04364 2 4.95291 2C5.86218 2 6.73421 2.36254 7.37716 3.00787C8.02011 3.6532 8.38132 4.52845 8.38132 5.44108L8.38132 10.7939C8.38132 11.3009 8.58199 11.7871 8.93918 12.1456C9.29638 12.5042 9.78084 12.7056 10.286 12.7056C10.7911 12.7056 11.2756 12.5042 11.6328 12.1456C11.99 11.7871 12.1907 11.3009 12.1907 10.7939L12.1907 5.82342L9.90505 5.82342L12.9525 2L16 5.82342L13.7144 5.82342Z" fill="black"/>
</svg>
