<svg width="16" height="16" viewBox="0 0 16 16" fill="none" xmlns="http://www.w3.org/2000/svg">
<path fill-rule="evenodd" clip-rule="evenodd" d="M2 2C2 1.44772 2.44772 1 3 1H13C13.5523 1 14 1.44772 14 2C14 2.55228 13.5523 3 13 3H3C2.44772 3 2 2.55228 2 2ZM0 6C0 4.89543 0.895431 4 2 4H14C15.1046 4 16 4.89543 16 6V14C16 15.1046 15.1046 16 14 16H2C0.895431 16 0 15.1046 0 14V6ZM6.66035 6.06156C7.76057 5.86033 8.70342 6.15245 9.48888 6.93792C10.4438 7.89288 10.6731 9.2987 10.1768 10.4702L11.7644 12.0578C12.0785 12.3719 12.0785 12.8813 11.7644 13.1955L11.1955 13.7644C10.8813 14.0785 10.3719 14.0785 10.0578 13.7644L8.47018 12.1768C7.2987 12.6731 5.89288 12.4438 4.93792 11.4889C4.15246 10.7034 3.86033 9.76058 4.06155 8.66036C4.07625 8.58001 4.11505 8.50604 4.17281 8.44829C4.3299 8.2912 4.58459 8.2912 4.74168 8.44829L6.3601 10.0667C6.51719 10.2238 6.77188 10.2238 6.92897 10.0667L8.06671 8.92897C8.2238 8.77188 8.2238 8.51719 8.06671 8.3601L6.44829 6.74168C6.39053 6.68392 6.35173 6.60996 6.33703 6.52961C6.29707 6.31108 6.44182 6.10153 6.66035 6.06156Z" fill="black"/>
</svg>
