<svg width="16" height="16" viewBox="0 0 16 16" fill="none" xmlns="http://www.w3.org/2000/svg">
<path d="M2 0C0.895386 0 0 0.895508 0 2V10C0 11.1045 0.895386 12 2 12V4C2 2.89551 2.89539 2 4 2H12C12 0.895508 11.1046 0 10 0H2Z" fill="black"/>
<path fill-rule="evenodd" clip-rule="evenodd" d="M6 4C4.89543 4 4 4.89543 4 6V14C4 15.1046 4.89543 16 6 16H14C15.1046 16 16 15.1046 16 14V6C16 4.89543 15.1046 4 14 4H6ZM11.4889 6.93792C10.7034 6.15245 9.76057 5.86033 8.66035 6.06156C8.44182 6.10153 8.29707 6.31108 8.33703 6.52961C8.35173 6.60996 8.39053 6.68392 8.44829 6.74168L10.0667 8.3601C10.2238 8.51719 10.2238 8.77188 10.0667 8.92897L8.92897 10.0667C8.77188 10.2238 8.51719 10.2238 8.3601 10.0667L6.74168 8.44829C6.58459 8.2912 6.3299 8.2912 6.17281 8.44829C6.11505 8.50604 6.07625 8.58001 6.06155 8.66036C5.86033 9.76058 6.15246 10.7034 6.93792 11.4889C7.89288 12.4438 9.2987 12.6731 10.4702 12.1768L12.0578 13.7644C12.3719 14.0785 12.8813 14.0785 13.1955 13.7644L13.7644 13.1955C14.0785 12.8813 14.0785 12.3719 13.7644 12.0578L12.1768 10.4702C12.6731 9.2987 12.4438 7.89288 11.4889 6.93792Z" fill="black"/>
</svg>
