<svg width="16" height="16" viewBox="0 0 16 16" fill="none" xmlns="http://www.w3.org/2000/svg">
<path fill-rule="evenodd" clip-rule="evenodd" d="M3 0C1.89543 0 1 0.895431 1 2V14C1 15.1046 1.89543 16 3 16H13C14.1046 16 15 15.1046 15 14V4.75147C15 4.26702 14.8242 3.79904 14.5052 3.43446L12.0976 0.682991C11.7178 0.248961 11.1692 0 10.5925 0H3ZM6.32543 3.07695C7.70071 2.82541 8.87927 3.19057 9.86111 4.1724C11.0548 5.3661 11.3414 7.12337 10.721 8.58772L12.7055 10.5722C13.0982 10.9649 13.0982 11.6016 12.7055 11.9944L11.9944 12.7055C11.6016 13.0982 10.9649 13.0982 10.5722 12.7055L8.58772 10.721C7.12337 11.3414 5.3661 11.0548 4.1724 9.86111C3.19057 8.87927 2.82542 7.70072 3.07694 6.32545C3.09531 6.22502 3.14382 6.13256 3.21601 6.06036C3.41237 5.864 3.73074 5.864 3.9271 6.06036L5.95012 8.08339C6.14648 8.27975 6.46485 8.27975 6.66121 8.08339L8.08339 6.66121C8.27975 6.46485 8.27975 6.14648 8.08339 5.95012L6.06036 3.92709C5.98817 3.8549 5.93966 3.76244 5.92129 3.66202C5.87133 3.38885 6.05227 3.12691 6.32543 3.07695Z" fill="black"/>
</svg>
