<svg width="20" height="20" viewBox="0 0 20 20" fill="none" xmlns="http://www.w3.org/2000/svg">
<path fill-rule="evenodd" clip-rule="evenodd" d="M4.92125 15.4249C4.97915 15.3091 5.01316 15.1828 5.02125 15.0536C5.02968 14.7575 5.08235 14.4642 5.1775 14.1836C4.23103 13.8245 3.36455 13.2825 2.6275 12.5886C1.77207 11.812 1.27391 10.7175 1.25 9.56238C1.26125 6.49988 5.055 3.94988 9.8875 3.75238L10.1475 3.74988C10.7714 3.69559 11.3904 3.89831 11.8612 4.31113C12.2688 4.88521 12.4188 5.60316 12.275 6.29238L12.19 7.47863L13.4438 7.62863C13.9213 7.30113 14.4513 6.93488 14.9937 6.55863C14.6773 6.51796 14.3606 6.47921 14.0437 6.44238L13.5225 6.38113C13.7073 5.34042 13.4319 4.2707 12.7675 3.44863C12.0573 2.77548 11.0974 2.43089 10.1213 2.49863L9.8375 2.50488C4.24375 2.73238 0.0125 5.76613 0 9.55613C0.0195896 11.0485 0.652482 12.4671 1.75 13.4786C2.66149 14.3389 3.74124 15.0011 4.92125 15.4236V15.4249ZM8.75 4.99988C8.05964 4.99988 7.5 5.55952 7.5 6.24988C7.5 6.94023 8.05964 7.49988 8.75 7.49988C9.44036 7.49988 10 6.94023 10 6.24988C10 5.55952 9.44036 4.99988 8.75 4.99988ZM8.75 6.74988C8.47386 6.74988 8.25 6.52602 8.25 6.24988C8.25 5.97374 8.47386 5.74988 8.75 5.74988C9.02614 5.74988 9.25 5.97374 9.25 6.24988C9.25 6.52602 9.02614 6.74988 8.75 6.74988ZM5 11.2499C5 10.5595 5.55964 9.99988 6.25 9.99988C6.94036 9.99988 7.5 10.5595 7.5 11.2499C7.5 11.9402 6.94036 12.4999 6.25 12.4999C5.55964 12.4999 5 11.9402 5 11.2499ZM6.25 11.7499C5.97386 11.7499 5.75 11.526 5.75 11.2499C5.75 10.9737 5.97386 10.7499 6.25 10.7499C6.52614 10.7499 6.75 10.9737 6.75 11.2499C6.75 11.526 6.52614 11.7499 6.25 11.7499ZM19.4588 12.0361C20.1262 11.0046 20.1789 9.69154 19.5963 8.60988C19.5062 8.44951 19.3989 8.29945 19.2763 8.16238C18.9879 8.43821 18.6854 8.7303 18.3687 9.03863C18.4136 9.08747 18.4545 9.13971 18.4913 9.19488C18.8668 9.89038 18.8269 10.7366 18.3875 11.3936C17.3888 13.0486 14.7813 14.2311 12.1938 14.7311L11.11 15.6974C11.0984 15.854 11.0745 16.0095 11.0388 16.1624C14.2875 15.8236 18.0425 14.3836 19.4588 12.0361ZM6.25 7.49988C6.25 8.19023 5.69036 8.74988 5 8.74988C4.30964 8.74988 3.75 8.19023 3.75 7.49988C3.75 6.80952 4.30964 6.24988 5 6.24988C5.69036 6.24988 6.25 6.80952 6.25 7.49988ZM5 6.99988C5.27614 6.99988 5.5 7.22374 5.5 7.49988C5.5 7.77602 5.27614 7.99988 5 7.99988C4.72386 7.99988 4.5 7.77602 4.5 7.49988C4.5 7.22374 4.72386 6.99988 5 6.99988ZM8.20875 13.5336L9.865 15.4786C9.865 15.4786 9.98625 16.9749 7.93 17.8886C6.74916 18.4346 5.37859 18.384 4.24125 17.7524C4.24125 17.7524 6.23375 16.7224 6.27125 15.0811C6.30875 13.4224 8.20875 13.5336 8.20875 13.5336ZM6.96875 16.9074C7.31126 16.3688 7.50213 15.7478 7.52125 15.1099C7.51332 14.9963 7.58168 14.8912 7.68875 14.8524L8.53 15.8399C8.27625 16.2602 7.88499 16.58 7.4225 16.7449C7.27557 16.8104 7.12389 16.8648 6.96875 16.9074ZM15.2712 10.3124C15.2712 10.3124 19.3962 6.26488 20 5.77488C19.8082 5.53744 19.7472 5.46179 19.6858 5.3865C19.6244 5.31117 19.5625 5.23619 19.3687 4.99988C18.765 5.48488 14.0063 8.75738 14.0063 8.75738L9.425 12.8449L10.7087 14.3799L15.2712 10.3124Z" fill="black"/>
</svg>
