<?xml version="1.0" encoding="UTF-8"?>
<svg width="16" height="15" viewBox="0 0 16 15" fill="none" xmlns="http://www.w3.org/2000/svg">
    <path d="M7.0995 5.99504C7.04623 5.46229 7.46459 5 8 5C8.53541 5 8.95377 5.46228 8.9005 5.99504L8.54975 9.50248C8.52151 9.78492 8.28384 10 8 10C7.71616 10 7.47849 9.78492 7.45025 9.50248L7.0995 5.99504Z" fill="#BF0017"/>
    <path d="M8 13C8.55228 13 9 12.5523 9 12C9 11.4477 8.55228 11 8 11C7.44772 11 7 11.4477 7 12C7 12.5523 7.44772 13 8 13Z" fill="#BF0017"/>
    <path fill-rule="evenodd" clip-rule="evenodd" d="M0 15L8 0L16 15H0ZM1.66667 14L8 2.125L14.3333 14H1.66667Z" fill="#BF0017"/>
</svg>
