<?xml version="1.0" encoding="UTF-8"?>
<svg width="68px" height="68px" viewBox="0 0 68 68" version="1.1" xmlns="http://www.w3.org/2000/svg" xmlns:xlink="http://www.w3.org/1999/xlink">
    <title>thumbnail_style_popup</title>
    <g stroke="none" stroke-width="1" fill="none" fill-rule="evenodd">
        <g transform="translate(-1356.000000, -336.000000)" fill-rule="nonzero">
            <g transform="translate(1356.000000, 336.000000)">
                <g>
                    <path d="M10,14 L12,16 L63,16 C63.5522847,16 64,16.4477153 64,17 L64,63 C64,63.5522847 63.5522847,64 63,64 L5,64 C4.44771525,64 4,63.5522847 4,63 L4,17 C4,16.4477153 4.44771525,16 5,16 L8,16 L10,14 Z" fill="#282828"></path>
                    <rect fill="#363636" x="8" y="20" width="52" height="19" rx="1"></rect>
                    <polygon fill="#6A6A6A" points="10 23 14 23 12 25"></polygon>
                    <rect fill="#363636" x="8" y="42" width="52" height="8" rx="1"></rect>
                    <rect fill="#363636" x="8" y="53" width="52" height="7" rx="1"></rect>
                    <polygon fill="#6A6A6A" transform="translate(12.000000, 56.000000) rotate(-90.000000) translate(-12.000000, -56.000000) " points="10 55 14 55 12 57"></polygon>
                    <rect fill="#525252" x="11" y="29" width="46" height="2"></rect>
                    <rect fill="#525252" x="11" y="34" width="35" height="2"></rect>
                    <rect fill="#6A6A6A" x="6" y="4" width="8" height="8" rx="2"></rect>
                </g>
            </g>
        </g>
    </g>
</svg>