<svg width="108" height="108" viewBox="0 0 108 108" fill="none" xmlns="http://www.w3.org/2000/svg">
<rect x="16" y="36" width="76" height="4" fill="#6A6A6A"/>
<rect x="16" y="44" width="9" height="9" fill="#363636"/>
<path fill-rule="evenodd" clip-rule="evenodd" d="M91 45H28V52H91V45ZM27 44V53H92V44H27Z" fill="#363636"/>
<path fill-rule="evenodd" clip-rule="evenodd" d="M50 30H8V100H100V30H58L54 26L50 30ZM54 27.4142L50.4142 31H9V99H99V31H57.5858L54 27.4142Z" fill="#363636"/>
<path d="M8 8L100 8V24H8V8Z" fill="#363636"/>
<rect x="12" y="13" width="74" height="6" fill="#6A6A6A"/>
<path d="M96 18L90 18L93 15L96 18Z" fill="#6A6A6A"/>
<rect x="27" y="58" width="65" height="4" fill="#6A6A6A"/>
<circle cx="20" cy="60" r="3" fill="#999999"/>
<rect x="27" y="68" width="65" height="4" fill="#363636"/>
<path fill-rule="evenodd" clip-rule="evenodd" d="M20 72C21.1046 72 22 71.1046 22 70C22 68.8954 21.1046 68 20 68C18.8954 68 18 68.8954 18 70C18 71.1046 18.8954 72 20 72ZM20 73C21.6569 73 23 71.6569 23 70C23 68.3431 21.6569 67 20 67C18.3431 67 17 68.3431 17 70C17 71.6569 18.3431 73 20 73Z" fill="#363636"/>
<rect x="27" y="78" width="65" height="4" fill="#363636"/>
<path fill-rule="evenodd" clip-rule="evenodd" d="M20 82C21.1046 82 22 81.1046 22 80C22 78.8954 21.1046 78 20 78C18.8954 78 18 78.8954 18 80C18 81.1046 18.8954 82 20 82ZM20 83C21.6569 83 23 81.6569 23 80C23 78.3431 21.6569 77 20 77C18.3431 77 17 78.3431 17 80C17 81.6569 18.3431 83 20 83Z" fill="#363636"/>
<path d="M24.9147 95L25.5905 95.7372L28.7198 92.8686L25.5905 90L24.9147 90.7372L27.2399 92.8686L24.9147 95Z" fill="#6A6A6A"/>
<path d="M19.8051 90.7372L19.1294 90.0001L16 92.8687L19.1294 95.7372L19.8051 95.0001L17.4799 92.8687L19.8051 90.7372Z" fill="#6A6A6A"/>
<path fill-rule="evenodd" clip-rule="evenodd" d="M92 87L16 87L16 86L92 86L92 87Z" fill="#363636"/>
</svg>
