<svg width="16" height="14" viewBox="0 0 16 14" fill="none" xmlns="http://www.w3.org/2000/svg">
<path d="M7.46667 0H8.53333V2H7.46667V0Z" fill="black"/>
<path d="M14.3083 2L15.0626 2.70711L13.5541 4.12132L12.7998 3.41421L14.3083 2Z" fill="black"/>
<path d="M13.8667 7H16V8H13.8667V7Z" fill="black"/>
<path d="M1.82083 2L1.06659 2.70711L2.57508 4.12132L3.32933 3.41421L1.82083 2Z" fill="black"/>
<path d="M0 7V8H2.13333V7H0Z" fill="black"/>
<path fill-rule="evenodd" clip-rule="evenodd" d="M12.8 7.5C12.8 9.06021 11.9531 10.435 10.6667 11.2422V14H5.33333V11.2422C4.04695 10.435 3.2 9.06021 3.2 7.5C3.2 5.01472 5.34903 3 8 3C10.651 3 12.8 5.01472 12.8 7.5ZM10.0733 10.4112L9.6 10.7082V13H6.4V10.7082L5.92668 10.4112C4.92347 9.78166 4.26667 8.71254 4.26667 7.5C4.26667 5.567 5.93814 4 8 4C10.0619 4 11.7333 5.567 11.7333 7.5C11.7333 8.71254 11.0765 9.78166 10.0733 10.4112Z" fill="black"/>
</svg>
